<?xml version="1.0" encoding="UTF-8"?>
<svg xmlns="http://www.w3.org/2000/svg" viewBox="0 0 467.57 611.31">
  <defs>
    <style>
      .cls-1 {
        fill: #f1f1f1;
      }

      .cls-2 {
        fill: #070707;
      }

      .cls-3 {
        fill: #040404;
      }

      .cls-4 {
        fill: #dfdfdf;
      }

      .cls-5 {
        fill: #474747;
      }

      .cls-6 {
        fill: #8f8f8f;
      }

      .cls-7 {
        fill: #2b2b2b;
      }

      .cls-8 {
        fill: #d8c4ad;
        mix-blend-mode: darken;
      }

      .cls-9 {
        fill: #cecece;
      }

      .cls-10 {
        fill: #1b1b1b;
      }

      .cls-11 {
        fill: #323232;
      }

      .cls-12 {
        fill: #595959;
      }

      .cls-13 {
        fill: #393939;
      }

      .cls-14 {
        fill: #efe1d0;
      }

      .cls-15 {
        fill: #ddd;
      }

      .cls-16 {
        fill: #e50e0e;
      }

      .cls-17 {
        fill: #545454;
      }

      .cls-18 {
        fill: #292929;
      }

      .cls-19 {
        fill: #eaeaea;
      }

      .cls-20 {
        fill: #010101;
      }

      .cls-21 {
        fill: #d2d2d2;
      }

      .cls-22 {
        fill: #454545;
      }

      .cls-23 {
        fill: #0a0a0a;
      }

      .cls-24 {
        fill: #b6b6b6;
      }

      .cls-25 {
        fill: #030303;
      }

      .cls-26 {
        fill: #777;
      }

      .cls-27 {
        fill: #d0d0d0;
      }

      .cls-28 {
        fill: #909090;
      }

      .cls-29 {
        fill: #1c1c1c;
      }

      .cls-30 {
        fill: #b5b5b5;
      }

      .cls-31 {
        fill: #f4f4f4;
      }

      .cls-32 {
        fill: #111;
      }

      .cls-33 {
        fill: #2c2c2c;
      }

      .cls-34 {
        fill: #aaa;
      }

      .cls-35 {
        fill: #979797;
      }

      .cls-36 {
        fill: #919191;
      }

      .cls-37 {
        fill: #3b3b3b;
      }

      .cls-38 {
        fill: #1e1e1e;
      }

      .cls-39 {
        fill: #606060;
      }

      .cls-40 {
        fill: #3e3e3e;
      }

      .cls-41 {
        fill: #d8d8d8;
      }

      .cls-42 {
        fill: #ccc;
      }

      .cls-43 {
        fill: #c69a71;
      }

      .cls-44 {
        fill: #3a3a3a;
      }

      .cls-45 {
        fill: #525252;
      }

      .cls-46 {
        isolation: isolate;
      }

      .cls-47 {
        fill: #b1b1b1;
      }

      .cls-48 {
        fill: #373737;
      }

      .cls-49 {
        fill: #5d5d5d;
      }

      .cls-50 {
        fill: #4e4e4e;
      }

      .cls-51 {
        fill: #060606;
      }

      .cls-52 {
        fill: #bebebe;
      }

      .cls-53 {
        fill: #656565;
      }

      .cls-54 {
        fill: #303030;
      }

      .cls-55 {
        fill: #636363;
      }

      .cls-56 {
        fill: #797979;
      }

      .cls-57 {
        fill: #a6a6a6;
      }

      .cls-58 {
        fill: #c7c7c7;
      }

      .cls-59 {
        fill: #0d0d0d;
      }

      .cls-60 {
        fill: #e7e7e7;
      }

      .cls-61 {
        fill: #050505;
      }

      .cls-62 {
        fill: #141414;
      }

      .cls-63 {
        fill: #dadada;
      }

      .cls-64 {
        fill: #464646;
      }

      .cls-65 {
        fill: #b3b3b3;
      }

      .cls-66 {
        fill: #575757;
      }

      .cls-67 {
        fill: #b0b0b0;
      }

      .cls-68 {
        fill: #717171;
      }

      .cls-69 {
        fill: #1d1d1d;
      }

      .cls-70 {
        fill: #252525;
      }

      .cls-71 {
        fill: #212121;
      }

      .cls-72 {
        fill: #3f3f3f;
      }

      .cls-73 {
        fill: #020202;
      }

      .cls-74 {
        fill: #969696;
      }

      .cls-75 {
        fill: #3d3d3d;
      }

      .cls-76 {
        fill: #0b0b0b;
      }

      .cls-77 {
        fill: #cdcdcd;
      }

      .cls-78 {
        fill: #f9f9f9;
      }

      .cls-79 {
        fill: #242424;
      }

      .cls-80 {
        fill: #cacaca;
      }

      .cls-81 {
        fill: #282828;
      }

      .cls-82 {
        fill: #878787;
      }

      .cls-83 {
        fill: #353535;
      }

      .cls-84 {
        fill: #565656;
      }

      .cls-85 {
        fill: #121212;
      }

      .cls-86 {
        fill: #272727;
      }

      .cls-87 {
        fill: #fafafa;
      }

      .cls-88 {
        fill: silver;
      }

      .cls-89 {
        fill: #181818;
      }

      .cls-90 {
        fill: #e9e9e9;
      }

      .cls-91 {
        fill: #101010;
      }

      .cls-92 {
        fill: #858585;
      }

      .cls-93 {
        fill: #e1e1e1;
      }

      .cls-94 {
        fill: #080808;
      }

      .cls-95 {
        fill: #c5c5c5;
      }

      .cls-96 {
        fill: #f7f7f7;
      }

      .cls-97 {
        fill: #414141;
      }

      .cls-98 {
        fill: #1f1f1f;
      }

      .cls-99 {
        fill: #2a2a2a;
      }

      .cls-100 {
        fill: #f8f8f8;
      }

      .cls-101 {
        fill: #f5f5f5;
      }

      .cls-102 {
        fill: #818181;
      }

      .cls-103 {
        fill: #f0f0f0;
      }

      .cls-104 {
        fill: #222;
      }

      .cls-105 {
        fill: #0c0c0c;
      }

      .cls-106 {
        fill: #838383;
      }

      .cls-107 {
        fill: #afafaf;
      }

      .cls-108 {
        fill: #7f7f7f;
      }

      .cls-109 {
        fill: #202020;
      }

      .cls-110 {
        fill: #8c8c8c;
      }

      .cls-111 {
        fill: #d8ac80;
      }

      .cls-112 {
        fill: #989898;
      }

      .cls-113 {
        fill: #b9b9b9;
      }

      .cls-114 {
        fill: #f3f3f3;
      }

      .cls-115 {
        fill: #494949;
      }

      .cls-116 {
        fill: #191919;
      }

      .cls-117 {
        fill: #c2c2c2;
      }

      .cls-118 {
        fill: #232323;
      }

      .cls-119 {
        fill: #cbcbcb;
      }

      .cls-120 {
        fill: #6e6e6e;
      }

      .cls-121 {
        fill: #2d2d2d;
      }

      .cls-122 {
        fill: #6a6a6a;
      }

      .cls-123 {
        fill: #434343;
      }

      .cls-124 {
        fill: #737373;
      }

      .cls-125 {
        fill: #a8a8a8;
      }

      .cls-126 {
        fill: #fcfcfc;
      }

      .cls-127 {
        fill: #2f2f2f;
      }

      .cls-128 {
        fill: #ededed;
      }

      .cls-129 {
        fill: #313131;
      }

      .cls-130 {
        fill: #484848;
      }

      .cls-131 {
        fill: #4b4b4b;
      }

      .cls-132 {
        fill: #9c9c9c;
      }

      .cls-133 {
        fill: #535353;
      }

      .cls-134 {
        fill: #9f9f9f;
      }

      .cls-135 {
        fill: #d3d3d3;
      }

      .cls-136 {
        fill: #1a1a1a;
      }

      .cls-137 {
        fill: #e0e0e0;
      }

      .cls-138 {
        fill: #2e2e2e;
      }

      .cls-139 {
        fill: #555;
      }

      .cls-140 {
        fill: #bfbfbf;
      }

      .cls-141 {
        fill: #c8c8c8;
      }

      .cls-142 {
        fill: #b2b2b2;
      }

      .cls-143 {
        fill: #343434;
      }

      .cls-144 {
        fill: #161616;
      }

      .cls-145 {
        fill: #090909;
      }
    </style>
  </defs>
  <g class="cls-46">
    <g id="Layer_1" data-name="Layer 1">
      <g>
        <path class="cls-14" d="M72.51,537.06c6.39.73,20.52-7.89,27.46-7.71,2.38.06,4.8.29,6.99,1.22,7.47,3.19,9.25,12.69,13.22,19.78,6.41,11.44,19.71,17.34,32.65,19.49,12.94,2.15,26.22,1.34,39.19,3.3,14.79,2.24,28.87,8.05,43.68,10.11,2.35.33,4.8.55,7.04-.23,2.22-.77,3.99-2.45,6.01-3.66,9.33-5.6,21.13-.44,32.01-.11,11.15.34,21.75-4.62,31.44-10.17,14.72-8.43,28.51-18.51,41.01-29.98,1.52-1.39,3.14-3.53,2.07-5.29-.64-1.06-2-1.4-3.22-1.59-9.92-1.48-20.44,1.8-27.76,8.66-2.39,2.24-4.48,4.86-7.3,6.52-2.82,1.66-6.72,2.11-9.18-.05-2.72-2.38-2.48-6.75-1.05-10.07,1.42-3.32,3.77-6.24,4.74-9.72.97-3.48-.12-8.01-3.55-9.14-2.49-.82-5.14.44-7.46,1.66-11.21,5.93-22.75,12.13-30.63,22.06-2.34,2.95-4.39,6.26-7.48,8.42-2.88,2.01-6.41,2.83-9.85,3.53-12.48,2.54-25.16,4.06-37.88,4.54-4.08.15-9.48-.88-9.89-4.95-.4-3.89,4.21-6.02,7.53-8.08,6.85-4.25,10.42-12.54,10.75-20.6.33-8.05-2.14-15.96-5.11-23.45-2.72-6.86-8.37-19.47-13.82-24.45-7.81-7.12-18.76-9.31-28.98-12.01-10.22-2.7-26.52-5.42-26.39-15.99-.23,19.18,14.99,32.61,18.72,53.44,3.73,20.85,7.43,33.62,13.48,48.42-1.09,1.29-1.03-.63-2.3-1.73-1.27-1.11-4.63-11.47-5.15-13.07-3.38-10.39-5.66-10.61-7.92-21.3-1.54-7.33-.3-19.41-5.05-25.21-14.68,7.68-22.78,11.34-28.8,28.79-1.33,3.85-1.39,9.21-1.62,13.27-2.8.41,1.13-4-1.38-5.28,1.03-8.27,7.73-19.74,9-23.89,2.12-6.92-65.22,34.51-65.22,34.51Z"/>
        <path class="cls-8" d="M400.95,239.96c-2.01.9-3.27,2.17-3.81,3.81-1.22,1-2.82,1.85-4.8,2.54-1.7,1.98-3.27,2.83-4.72,2.53l-.07,1.04c-3.42,4.13-6.78,8.22-10.08,12.28.12,1.61.33,1.83.63.63,1.93-3.95,5.86-9.49,9.33-12.79.12-.12.44-.03.82.11,1.12-2.34,2.86-.36,3.02,1.68.51,6.82.77,13.66.79,20.52.38.32.68.64.72.99.87,8.19.4,16.86-.09,25.01,1.25.19-.43,5.62-.41,5.34.15-1.74.91-4.55,1.68-5.97-.42-4.59-.49-9.33,0-13.95l-.73-.95-.54-16.18c-1.39-1.45-1.85-8.85.82-9.25s7.47,11.27,6.35,14.13l-2.02,13.06c.44-.62,1.09-.49,1.83-.18.23,1.45.66,2.51,1.27,3.17.4.93.64,1.93.43,2.93-3.84,18.75-7.88,31.32-17.4,47.7-1.29,2.9-3.05,4.7-5.24,6.46.04,2.51-5.94,5.48-8.27,5.67-6.51.52-7.29-7.33-7.72-12.15-.33-12.97-.92-26.03-1.77-39.19-1.37-3.24-1.79-6.83-1.27-10.78-.81-3.3-1.02-2.03-.63,3.81.89,4.03,1.32,8.26,1.27,12.69l.85,2.78c1.59,34.48,3.02,69.19.01,103.41-1.99,22.7-4.93,47.34-15.45,67.6-.08,1.16.13,1.58.63,1.27,4.09-11.28,7.84-22.59,11.24-33.92,1.76-.8,2.57-.9,2.88,1.39,2.11,18.42,1.72,36.87-1.36,54.97,5.69-19.87,6.31-41.61,3.68-62.23,2.39-5.81,5,1.91,5.91,5.08,5.65,12.64,12.63,16.57,24.38,22.63,5.16,2.73,9.64,6.22,13.45,10.47,2.89,3.31,2.81,11.44-1.2,13.03-.74,3.2-2.35,6.12-4.81,8.76-11.9,14.41-26.69,27.39-41.97,38.11-.56.4-1.36.25-2.06.07-.38-2.9-5-4.13-7.39-4.2-6.9-.21-16.64,7.19-23.25,10.02-3.59,1.54-7.41,2.78-11.21,3.69-.75-1.39,1.25-3.59,2.54-3.81.21-1.41,0-1.84-.63-1.27-.02,1.67-2.14,4.84-3.81,4.44-1.61-1.06-8.2-.63-8.25-3.46-.04-2.08,6.75-11.49,7.46-16.03,1.31-8.43-4.14-11.64-11.93-10.03-4.48.92-8.47,5.39-12.01,7.96-2.74,1.3-5.49,2.57-8.25,3.81-.29.65-.63,1.23-1.13,1.51-9.65,5.5-21.19,9.47-32.12,11.27-.53-1.93-.21-4.18.95-6.76-4.64-16.47-2.47-42.89,5.46-58.03,1.32-2.51,11.86-15.34,14.15-11.8,1.63,2.52-4.8,24.42-8.19,28.98-1.39,2.81-1.78,6.93.58,9.1,8.83-5.57,17.5-11.39,26-17.47,27.04-13.05,41.02-38.64,53.9-64.79,1.16-.63,16.49-27.73,14.33-26.77l-3.66,5.3c-2.94,4.25-5.8,6.07-7.21.17-6.69,2.68-11.89,8.05-15.89,13.97l-9.42,15.19c-2.85,4.74-5.89,8.4-10.82,10.95-2.62,1.35-10.94,4.44-12.71,2.28,1.55-5.99,3.24-12.04,5.05-18.14,1.81-14.14-7.94-4.65-9.05,2.9-1.56,1.12-2.43.77-2.72-.95l-.52.32c-.06,1.72-1.69,3.53-3.17,3.81-.79,2.08-2.28,4.12-4.41,4.94-2.43,8.17-12.85,22.61-22.23,17.25-4.34,1.63-8.73,3.05-13.16,4.26-.83,1.12-1.41,1.84-2.69.82-1.1-.52-1.18-1.62-.24-3.32-.49,1.14-1.26,1.61-2.29,1.41-3.54,5.42-4.01-.6-1.46-3.81l-1.49.27c-1.04,1.1-1.97,1.63-2.95.12,0,3.05-5.57,4.04-7.88,2.02-1.85,1.36-3.6.48-5.27-2.63-1.26,1.02-2.82.08-3.79-1.05-1.2-.2-.94-2.07,0-2.54-.48-2.26,1.41-2.72,5.66-1.36.42-1.22,1.37-1.74,2.55-1.22,2.02,2.74,4.65.55,6.19-1.63,3.23.57,4.59-.27,3.37-4.44,1.55-.68,2.39-1.97,2.53-3.86,2.44.3,3.3,0,2.59-.93,1.87-.32,2.99-1.27,3.35-2.85h1.68c1.03-7.03,5.41-.01,6.31,3.89.31-1.09.59-1.74,1.94-1.54,1.06-1.41,2.11-1.19,3.17.63-.55-2.26,3.39-3.66,5.26-2.62.84-2.68,2.68-3.03,5.15-2.15.01-1.76.85-2.74,2.18-3.81-1.48-2.98-1.57-4.89,2.24-5.28-.11-1.36.66-2.06,1.84-2.59-1.08-1.71-.28-3.09,1.78-2.83.83-1.7,2.02-1.9,3.54-1.09,2.39-9.25,6.89-13.29,14.92-17.92,1.03-.94,2.52-2.59,2.7-4,.89-6.94,1.81-19.51.17-26.08-2.68-6.49-4.86-12.32-2.95-19.55,2.08-8.74,3.33-17.57,3.76-26.47-.2-3.82-.94-5.36-4.73-6.47-1.54-.85-2.7-1.75-1.62-3.45-.89-.22-1.39-.46-1.34-1.28-3.37.5-4.83-.13-4.36-1.89l1.34-1.4c8.53-.9,16-4.29,19.87-12.27.81-1.67,3.56-8.74,2.26-7.9-1.59-.88-1.1-1.89.63-1.9.74-.4.95-.83.63-1.27-1.87-.43-.64-6.34,1.27-6.34.6.08.6-.35,0-1.27-1.69-.97-1.72-1.56,0-2.54.22-2.34.43-4.67.63-6.98,1.98-.41,2.62-.83,1.9-1.27-4.46,2.69-3.3-6.56-2.31-8.87.57-1.32,5.09-5.79,6.38-6.35.48.26,1.35.32,1.84.17,2.6-.8,28.12-3.99,29.37-3.2.28.18.58.33.88.48,2.86,9.49,4.4,18.53,1.58,28.53.02,3.41.34,4.83,3.48,4.47-.22-1.43.94-2.52,3.46-3.28.44-1.84,1.19-2.86,2.25-3.06,3.86-7.04,4.22-11.71,2.73-19.64-.11-3.8,6.08-8,9.59-5.76,4.24-3.62,8.69-7.09,13.36-10.41,1.05-.7,2.53-1.29,3.49-.34,1.87-3,7.88-2.98,10.78-1,1.45.98,3.56,2.64,1.91,4.18Z"/>
        <path d="M382.56,225.37c.19,2.2.89,3.51,2.09,3.95.59,1.33,1.29,5.39,1.32,6.72.02.64-8.2,6.26-9.62,6.99-2.47,3.84-4.18,4.9-8.78,3.75-5.8,5.64-9.38,3.12-5.99-4.5-3.34-2.48-.49-6.61,1.65-8.35-.75-8.61,3.77-4.36,4.59,1.51.82,3.37,1.77,3.98,2.85,1.81,7.91.98,4.89-5.3,2.37-9.97l-1.71-1.06c.12-5.2-16.8-26.89-19.93-26.53-1.43.17-4.24,1.59-4.38,3.16-1.18.28-2.06.85-2.65,1.71,2.57,5.14,5.07,10.35,6.95,15.8l-.49,2.48c.1.69.07.91-.63.63-3.39,0-6.12-1.85-8.2-5.56-3.38-1.33-8.82-6.6-6.8-10.2l-6.13-7.08c-9.4,2.88-18.68,3.43-28.65,2.49-5.55.12-6.46,2.62-7.2,7.68l-1.26,1.46c-8.54-4.22-17.49-7.64-27-9.33l-1.66-1.66c.7-1.05,2.18-1.26,4.44-.63,1.04-1.51,1.78-1.15,1.9.63h4.68s-.24-1.27-.24-1.27c-10.88-.7-21.67-2.22-32.11-5.94-11.39-3.28-22.21-2.4-33.08,2.13l-2.04-.63c-1.41.34-2.05.13-1.9-.63.19-.45.4-.88.68-1.26,2.9-4,22.77-8.3,28.55-8.75l-6.25-.75c-3.53-1.41-.56-5.02,1.44-2.56.06-.49.18-1.19.55-1.27,2.29-.5,8.69-.24,10.55,1.27-3.52-2.04-5.6-3.03-9.75-3.3-8.27-.53-16.72.54-24.83,1.86l-.94-1.1c-1.43.24-2.28.03-2.54-.63l1.48-1.66c9.59-2.38,19.43-4.77,29.37-3.32,1.46-.75-26.59-14.01-28.18-14.71-15.55,2.95-31.21,4.47-46.84,4.28-11.14-.21-19.38,5.99-27.3,12.57l1.06.94c1.18-.28,1.6-.07,1.27.63l-.27,1.52c-2.15,1.13-4.22,2.6-5.61,4.63,11.71-5.97,23.65-8.69,36.87-5.11l1.35,1.5c.23,1.08-1.04,1.29-3.81.63-.12.57-.33.54-.63,0-4.19-.44-8.52-.73-12.69,0l-1.64,1.61c-6.57,1.45-12.79,4.57-17.7,9.18,2.6-1.34,15.82-5.75,17.68-4.46,3.59,2.49-1.56,3.82-4.34,4.32-7.98,3.02-17.64,7.09-22.35,14.37,13.71-11.97,31.2-14.79,48.88-10.19l1.67,1.67c.45,1.03-.6,1.24-3.17.63-.36,1.22-.91,1.22-1.27,0-6.22-.52-12.56-.52-19.03,0l-1.64,1.52c-9.27,1.62-17.39,6.82-24.06,13.3l-2.21.41c.46,1.98-1.96,3.88-3.81,4.44-.01.87.2,1.72.63,2.54.64,1.18-.17,2.6-2.42,4.28,2.05-.62,4.18-.8,6.29-.37,9.36,3.69,15.35,5.01,24.84.45,3.08-1.1,7.28-.67,9.35,1.36,2.43.55,4.36,2.46,5.13,4.82l.58-.38c1.22-.7,2.3.09,3.24,2.37l1.2.17c1.87.4,1.68,1.71,0,2.54-.05,2.25-.9,3.31-2.54,3.17l-1.1,1.46c-2.37-.24-2.21.33.46,1.71,4.43-.29,8.94-.38,13.52-.27,2.53-3.36,4.8-6.91,6.83-10.64,5.89-5.48,2.81,8.28.91,10.75,8.83-.23,17.61-.87,26.36-1.94l2.48.84c2.91.22,5.02-.41,6.34-1.9l.09-.97c-6.01,1.69-9.43-1.3-12.14-6.32-1.39-2.57-3.87-7.37-2.54-9.83-.44-1.02-.61-1.68.63-1.27l1.47.17c2.65,4.84,6.85,9.37,11.71,12.06,1.08.6,4.3,2.34,3.95.45-1.01-1.23-1.86-3.21,0-3.81v-.63c1.12-1.8,2.39-2.85,3.81-3.17.56-.56,1.29-.76,2.02-.58.86-2.39,2.09-4.1,3.69-5.12-1.59-2.17,2.88-4.74,4.71-2.91,6.81-1.26,13.8-1.84,21-1.73,5.84-2.72,11.75-5.29,17.72-7.71,5.89-2.6,22.27,9.35,24.11,13.83,1.28,3.12-.8,3.86-3.47,3.59-.07,1.76-4.33-1.91-1.6.03,1.35.96,2.77,1.82,4.14,2.5.99-1.72,5.4-.6,5.71,1.27,4.18.37,8.11.79,11.79,1.26-.46,4.17-.26,8.02.61,11.55-.77,3.06-.34,5.87,1.28,8.42l-4.29,3.01c-1.53,3.4-3.87,4.61-5.35.57-.24-3.76-1.16-7.17-2.76-10.22l-.86.12c-4.56-7.68-12.02-8.1-20.48-8.43-16.45-.65-35.13,1.53-50.79,6.04-3.83,5.86-6.24,12.51-7.23,19.95-1.02,1.21-2.35,1.11-4-.31,4.01,7.24,6.94,14.86,8.77,22.86l-.9,2.27c.75,2.84.6,5.18-.47,7-6.53-4.72-10.61-13.73-11.58-21.59-1.54-1.27-2.28-6.64,1.03-4.9-4.42-4.64-4.44-10.96-2.94-16.66.14-2.77,3.61-6.24,6.34-6.34,1.09-.74.88-.95-.63-.63-2.33,1.79-4.55,3.99-6.34,6.34-.04,3.27-.06,6.58-.06,9.93,1.25,4.47,1.9,8.98,1.97,13.53,2.93,7.69,5.82,15.2,12.05,20.93l1.33-.62c2.97,1.89,6.22,3.41,9.64,4.31l.45,1.39c2.59,0,4.92.47,6.99,1.43-1.22,1.23-2.09,2.69-2.6,4.38-3.42-.24-6.79-1.12-10.11-2.64-1.5,1.37-5.71-1.06-7.25-2.24-5.93-4.52-10.51-9.27-13.95-15.99l-.92,6.66c-1.22,6.65-6.99,7.05-6.6-.21l.77-18.42c-.78-11.68-4.58-14.3-16.44-12.94l-.34,1.48c-3.19,1.01-5.38,3.09-6.12,6.44-2.92,15.34-5.81,30.7-8.67,46.1l-1.36,1.8c-.31,1.09-.49,1.7-1.27.63l-.17,1.36c-4.88,3.71-6.39,11.05-3.12,16.27l-.52,1.4c.62,1.46.12,1.6-1.27,1.9l.33,1.99c-9.86,14.67-16.19,30.34-19,47.02.39,2.28.06,4.13-.99,5.54.23.61.05,1.42-.53,1.45-1.21.06-3.33-7.13-3.61-8.52-1.86-8.98.94-14.67,5.09-22.6,6.45-10.32,11.77-19.53,14.83-31.33-.21-2.51.3-4.57,1.36-6.87-1-.78-1.05-2.22-.14-4.31-9.03,3.45-18.15,5.25-27.37,5.4-4.46-3.36-1.69-5.8,8.33-7.33-9.7,1.48-37.29,3.77-44.47-3.35l-.41-1.83c-1.36,1.12-2.63.06-3.81-3.17-7.87-8.73-6.54-23.31-12.14-30.67-2.4-3.14-6.88-1.6-7.43-3.35l-1.9-19.18c2.1-1.45,15.36-3.55,15.7-4.89-.84-1.84-.15-4.31-.89-5.97-.41-.94-3.03-2.83-4-4.24-2.15-3.14-3.84-6.8-5.22-10.34-13.83,6.04-36.3,15.45-47.54.62.35-1.11.56-2.17.63-3.17-5.84-23.64,13.07-47.33,30.62-61.28l2.36-.25c1.05-.48,1.64-.65,1.27.63,1.6.55-1.98,2.76-1.82,2.64,3.18-2.99,6.53-5.35,10.07-7.08,14.2-9.78,32.32-16.3,49.47-18.39,28.63-6.9,56.99-.02,83.48,11.34,10.23,4.39,21.33,9.24,30.05,15.93,1.24.13,1.66-.08,1.27-.63-1.89-.21-6.51-2.38-6.34-4.44-.76-1.43-.34-1.65,1.27-.63,1.89-.1,2.31-.73,1.27-1.9-9.53-3.47-18.89-7.57-28.08-12.29-16.16-6.72-32.78-12.87-50.27-14.73l-2.84-1.52-11.19-.81c-2.65-1.39,6.3-2.03,7.38-1.1.62-.38,1.26-.73,1.93-1s1.29-.52,1.94-.57c41.87-3.41,73.16.38,112.72,14.51,21.23,7.59,44.03,15.91,63.23,26.95,10.98,3.12,17.1,5.7,25.2,14.13,5.91,6.15,28.02,31.59,27.68,39.03l-1.2.82Z"/>
        <path d="M286.78,426.43c.2-.48-.48-1.48.63-1.27l1.27,1.9c1.42-4.1,4.74-14.65,10.76-10.43,2.99,2.1.02,11.58-.92,14.87-.5,1.74-4.06,10.17-3.48,10.78,7.49-1.8,13.48-2.97,18.27-9.31,8.44-11.16,13.37-26.17,26.55-33.07,5.34-2.79,3.27-.9,5.6,3.05,3.64-3.35,6.15-7.49,8.59-11.72.47-.82.54-2.14.61-2.22.5-.55,1.33-.26,1.27.95s-1.34,6.51-1.77,7.75c-2.86,8.17-10.16,17.61-14.43,25.53-8.66,16.1-13.5,27.71-25.69,42.18-10.13,12.02-15.37,13.55-27.84,21.63-3.5,2.27-25.4,17.99-27.02,17.86-.74-.06-1.59-1.67-1.89-2.38-2.62-6.29,2.25-10.85,4.3-16.62,2.31-6.51,3.28-13.47,4.89-20.16-4.75,2.16-9.92,7.4-12.39,12.02-4.99,9.32-8.71,34.2-7.89,44.73.32,4.09,2.6,9.32,2.58,12.7-.01,2.62-1.58,3.71-1.95,6.02,11.36-2.89,22.55-6.68,32.98-12.05,1.32-.42,1.74-.21,1.27.63-.46.37-.81.9-1.27,1.27-9.83,7.67-21.1,11.96-33.22,13.17-2.2,4.21-4.37,8.46-6.51,12.75l-3.4,1.98c-4.82.37-10.73-1.31-15.54-1.33-3.84,0-7.28,2-11.1,1.96-.77-.77,2.64-11.78,3.34-13.5.31-.76,1.07-1.01,1.1-1.09,12.42-19.59,23.04-41.53,28.59-63.86-10.2.22-20.39.21-30.58-.04-.11,1.21-.5,1.78-1.81,1.74-2.7,1.31-6.75-1.64-9.21-3.15-3.25-2-6.63-4.76-9.81-6.99-2.3-.22-4.8-2.8-6.34-4.44-.93.99-1.66,1.1-2.54,0-.61.63-1.03,1.47-1.27,2.54-.22,0-.38.8-1.81.33-3.41-1.12-6.6-4.68-9.67-6.29-3.41-1.79-7.6-2.56-11.16-4.7-2.97-1.78-4.71-4.26-7.17-6.15-.64-.49-.81-1.23-1.9-.94,3.24,12.47,7.5,24.75,12.57,36.58,1.36,3.16,5.87,10.13,6.35,12.74.36,2.02-.21,6.25.11,8.71,1.38,10.61,5.23,24.19,9.51,33.94.72,2.43.86,3.77-1.27,1.27-6.95-11.5-10.92-25.25-13.25-38.45-.48-2.72-.11-6.52-.86-9.29-.61-2.28-2.67-4.37-3.03-6.81-15.25,7.07-26.05,15.27-29.8,32.35-.31,4.75-.87,9.16-1.9,1.9-.41-7.81,1.85-16.67,7.61-22.2-2-.9-2-1.75,0-2.54,2.2-.73,4.35-1.36,6.58-1.98l16.11-11c-3.28-7.89-6.24-15.94-8.75-24.12-1.11-3.6-3.73-10.26-3.79-13.65l-.61-3.91c.97-.97,1.96-.08,2.58.94l1.84.43c.47-.2.73-.51.7-.97l-3.94-7.59.7-1.59c-.75-2.45-.72-3.95,1.27-1.27,1.8.66,3.26,2.1,4.39,4.33,2.59-1.99,4.7.6,5.08,3.24.46-.08.99-.06,1.35.27,2.04,1.83,4.14,3.66,6.35,4.85,1,4.53,6.21,7.29,10.48,8.65l.9,1.49c1.48-1.83,2.75-2.25,3.81-1.27.88-.18,1.72-.18,2.54,0,1.2.67,2.47,1.09,3.81,1.27,1.52-.53,2.79.32,3.81,2.54.44.28.53-.21.27-1.46,1.57-3.75,3.6-4.25,7.34-1.71.07-1.57.52-2.96,2.33-2.79,2.13-.08,4.1-.63,5.91-1.65-1.48-1.6-.74-2.39,2.22-2.38-.06-1.05.68-1.74,2.22-2.06,1.45-.32,3.39-.6,4.44.63l1.9-.63.32,1.26c1.59-1.32,3.47-2.03,2.86.64.81.37.71-2.68,1.89-1.26.41.49-.91,2.73-.63,3.17,2.08-.04,1.76-.7,3.16-1.9l.95,2.53c.95-2.2,2.18-4.24,1.61-.3-.19,1.29,2.36-.54,1.9-2.22.83-.35.64,2.63,1.89,1.26.16-.18-.66-2,1.6-2.52,2.01-.46-.36,1.64.62,1.89.9-2.39,2.53-1.29,4.76-2.53.29,2.64-1.57,4.69-2.53,6.97l2.54-1.26c1.44-.57,2.63.35,2.54,1.9.74-.39,2.4-2.17,2.55-3.17,1.05-.26.42.8.73,1.12.56.57,11.24-4.87,13.43-4.3.48.12.39,1.28.78,1.29.52.01,4.64-.09,4.88-.13,2.11-.41,9.47-7.44,10.89-9.43s3.56-8.66,4.28-9.31c.12-.11.91.29,1.14.06,1.05-1.07,2.17-3.27,3.82-3.4,1.21.32,2.99-2.44,3.17-3.81Z"/>
        <path d="M333.72,72.51c5.71,8.67,11.99,17.44,17.76,26.01,1.37,1.58.32,2.21-3.17,1.9,1.48.44,2.69,2.97,2.54,4.44,6.56,9.77,11.93,20.98,16.75,31.83,6.53,14.69,12.94,30.51,13.06,46.82,1.29,1.23,1.05,3.9.63,5.71,1.25-.77,1.46-2.46.63-5.07-.67-1.72-.34-3.84,0-5.71-1.09-4.01-.1-8.62,1.27-3.17,1.88,15.2,2.98,31.15,3.83,46.59.23,4.28-.79,9.37-1.28,13.66.41.05.88-.06,1.27,0,2.61-.94,4.13-.5,1.27,1.27-3.61,1.45-8.95,5.39-12.06,7.92-1.5,1.22-3.39,4.39-5.34,4.16-1.08-.13-1.81-1.56-3.08-1.23-.27.07-4.07,3.03-4.31,3.38-1.25,1.86.96,10.24.57,13.19-.42,3.11-3.29,6.17-4.95,8.73-2.78,1.05-1.58-2.67-.51-4.35-.17-.18-4.66-.68-4.88-.59-1.78.76-1.6,3.19-1.18,4.7-1.7,2.36-.99,3.31,1.05,5.18l-.18,1.4c-.54.4-1.34,2.14-2.22,2.53l-.94-1.89-2.54,3.16c.26-.82.99-1.45,1.13-2.35,1.34-8.22,1.9-16.97.8-25.27-.35-2.6-2.97-5.2-1.93-8.54l-30.92,3.02c-1.68,1.54-4.87,2.95-5.59,5.2-.3.93-1.08,6.48-.95,7.31.26,1.61.81,1.3,1.93,1.6.25.6-.38,1.02-1.9,1.27-.61,1.39-.57,2.97.57,4.09-.78.59-1.18,1.55-1.2,2.89-.06.84.08,1.71,0,2.54,1.04.82,1.04,1.24,0,1.27-.09.81-1.03,5.5-1.27,6.34,1.22,1.22,1.06,1.56-.63,1.27-.18.53-.46,1.57-.63,1.9.53.84.1,1.86-.38,2.72-4.87,8.63-24.05,11.77-33.21,12.98l-1.29-1.11c-1.28.15-2.36.71-3.25,1.67l-14.57,1.06c6.84.85,13.62,1.92,20.34,3.23l.65,1.02c-3.51,1.7-3.3,1.7.63,0,1.43-.68,3.34-.68,5.71,0,.54-1.82.98-1.55,1.9,0,1.02,1.42,3.79.04,5.12.92.84.55.39,1.8.59,2.25-.4.37-.81.71-1.26.97-5.82,3.4-37.3-1.32-46.06-4.28-3.33-.51-5.32-1.74-5.96-3.67-1.42,1.4-3.44-.97-2.54-2.54,3.94-.76,6.2.92,9.51,1.9.06-.77.12-1.69.44-2.4.51-1.12,1.93-.28,1.47-2.04l-5.71-.64c.7-1.81,6.39-1.31,6.66.63l.71-1.27h11.71l.89,1.27c-.31-3.07,3.53-1.74,5.56-1l3-.27.76-1.27c6.82-.35,13.68-1.66,20.27-3.56,6.11-1.76,11.15-3.75,13.63-10.07l1.5-.32c-.41-2.47.01-4.16,1.27-5.07-1.75-.54-1.8-3.29,0-3.81.64-2.45.54-4.45-.58-6.59l1.21-1.02-.74-.5c-1.98-.59-3.63-1.43-.13-1.7,2.15-.75,1.33-8.17.88-10.49l-1.35-.53-1.55-8.61,1-1c3.28,1.3,1.82,4.07,2.28,5.73.15.54,1.04,1.12,1.25,1.86.33,1.2-.91,2.52.9,3.52,2.5,1.37,1.75-.95,2.88-2.21s4.7-1.65,4.04-4.02c-.28-1-1.93-1.32-1.91-3.29.02-1.51,1.6-2.46,1.28-3.68-.24-.9-1.82-1.38-1.84-2.65-.02-1.47,2.47-5.92,1.26-8.58-2.69,2.86-3.6-.48-4.24-.62-2.16-.47-5.22.84-7.17-.65,1.5-1.93,11.3-1.42,12.78-.16-.37,2.72-.41,5.73-.1,9.04l1.27,2.35c-.45-2.16-.24-4,.63-5.52l-.1-4.7c9.65-.27,19.47,1.04,29.06,2.39.59.08,1.15.35,1.72.63s1.14.65,1.67,1.04l2.83-.09c.22-1.7.89-1.36,1.61.09l.81-1.1-.82-8.32,1.28-.73c1.24-.44,1.91-1.95,2.01-4.51,1.19.76,2.21.99,3.07.71.18-.55.39-.55.63,0l.85.23c.33,1.92,1.11,2.9,2.32,2.94l1.44.17,4.48,12.49c3.58,1.72,4.22-.47,1.92-6.59l1.03-.99c2.02.73,4.17,6.78,3.72,8.43-.6,2.17-4.05,1.61-5.58,2.71-.68.49-1.12,2.05-1.63,2.18-2.12.55-3.7-9.79-4.13-10.15-.17-.14-1.37.08-1.89,0-.26.24.23,4.17-.01,5.27-.11.52-1.06.5-1.24.89-1.02,2.08-2.02,5.08,1.26,4.63-.92,2.57-2.36,3.53-1.91,6.66.46,3.19,4.99-1.8,5.66-1.97,2.16-.54,4.71.85,6.38-.6.79-.69.81-2.23,1.87-3.21s2.66-1.04,3.82-1.89c2.11-1.54,3.59-3.34,5.61-4.85.54-.92-1.05-5.33-1.76-5.91-.36-.29-3.31,2.25-3.81,0-.42-1.9,2.95-1.42,3.14-1.6.16-.16.04-1.93.03-2.51,2.36.05,1.36-4.15.82-6.11-2.74-9.93-15.87-23.15-23.19-30.41-6.88-6.81-13.97-13.76-23.47-16.2.03-8.05.1-16.12.19-24.21-3.95-9.79-4.9-16.01-4.17-26.83,3.02-14.36,2.99-28.31-.07-41.87-1.3-2.28-1.8-4.48-1.47-6.6-1.47-3.49.64-2.75,2.54-.63Z"/>
        <path class="cls-20" d="M233.5,34.46c.55.84-.08,1.05-1.9.63l-1.56.78c-6.09-2.03-12.62-3.78-19.07-4.01-12.43-.45-20.28,8.46-22.53,20,31.12-4.03,34.97,18.2,5.53,27.45,31.85,11.23,1.67,40.21-19.77,33.2l-2.88,13.87c-1.49,2.23-14.2,3.65-11.2-2.41l2.67-8.52c-6.24,2.1-17.84,3.45-19.9-4.92-1.74-7.07,7.49-14.54,14.26-12.57,2.15-5.73,4.28-11.47,6.37-17.21-5.28-.55-9.78-3.11-9.04-8.96,1.13-8.97,14.92-14.29,22.25-16.98.46-2.91,1.42-4.63,2.86-5.15.78-.16.99.68.63,2.54.91,1.37,1.75,1.65,2.49.83,1.15-6.41,4.08-12.29,8.48-17.22-8.56,3.75-16.53,9.01-24.37,14.34l-2.46.14c-2.48.9-1.29-.57,0-1.9,13.46-9.28,21.12-17.27,38.56-20.11,13.55-2.21,19.02.73,30.58,6.16Z"/>
        <path class="cls-20" d="M378.75,344.61c1.45-2.46,4.25-3.51,2.54,0-1.09,1.42-1.31,2.4-2.87,3.79-4.06,3.6-8.56,4.64-13.62,2.56-.94,10.88-.52,21.77-.61,32.69-.2,23.84-3.7,57.81,17.09,74.82,1.8,1.48,14.93,9.79,16.49,10.21,1.41.38,2.82-.43,4.58-.26,3,.29,4.97,1.98,7.48,3.05.93,1.59.38,1.98-1.27,1.27-.11.02-2.71-1.51-1.9.31.55,1.22,3.51,3.24,4.15,5.37,1.77,5.97-1.81,10.51-4.79,15.25-2.32,2.1-1.68-.65-.63-2.54,1.33-2.47,2.34-6.25,1.75-9.05-1.69-8.04-22.06-16.88-28.6-21.5-6.42-4.53-11.2-13.93-13.12-21.46-1.65-.25-1.31.3-1.29,1.6.06,3.84,1.18,8.76,1.32,12.64.45,12.31,0,25.04-2.23,37.14-.4,2.16-3.35,15.04-4.15,15.84-1.47,1.48-1.32-2.16-1.28-2.88.29-6.78,2.26-14.39,2.59-21.51.56-11.97-.07-24.61-1.31-36.5l-6.96,21.89c-1.59,4.27-3.61,8.36-5.72,12.36-.82.71-1.03.29-.63-1.27,12.42-31.15,14.98-67.84,15.89-101.14.66-24.29-1.37-48.51-1.3-72.65-.34-1.88-.43-3.77-.29-5.67l.92-.04c.85,7.04,1.91,14.21,2.53,21.25.6,6.81-.35,18.54,1.58,24.42,2.81,8.57,9.17,2.59,13.65-.01Z"/>
        <path class="cls-8" d="M210.67,482.88c-.02-.72,1.35-2.3,0-3.8,11.03,2.85,22.39-.18,33.62.63.37,3.89-1.32,7.5-2.53,11.11-2.87,8.61-6.89,18.48-10.68,26.74-4.3,9.37-9.53,19.98-16.6,27.48,3.87-9.04,8.8-17.45,13.2-26.21-.76-2.24-2.57-3.93-3.36-6.15-1.2-3.4-.63-6.82-1.98-10.07-1.54-3.68-11.63-17.79-11.67-19.73Z"/>
        <path class="cls-25" d="M160.56,52.85l-.5,1.96c-7.88,7.05-15.43,13.19-25.79,15.75-9.25,5.03-19.33,10.66-27.25,17.72-12.13,10.8-19.24,29.98-21.63,45.87l-1.58,2.43c-.33,2.13-.95,8.51.19,9.85l1.08-.34c.25-2.09,1.98-2.97,3.81-1.9,1.63-.71,1.92.13.63,1.27-1.75,2.37-4.35,4.22-7.78,5.55-2.88,2.32-5.78,3.64-8.71,3.96-1.64.71-1.93-.12-.63-1.27,1.03-.74,4.04-2.68,4.32-3.61.95-17.11,3.27-34.68,13.18-48.98,8.96-12.93,18.95-19.48,32.18-27.44,6.78-4.08,8.49-5.05,14.71-10.03,6.39-5.11,14.78-7.14,21.87-11.43,1.54-.6,2.17-.39,1.9.63Z"/>
        <path class="cls-51" d="M95.87,307.19c.29.32,3.2,2.71,3.81,3.17,3.99,24.54,8.56,50.16,14.12,74.73,5.81,25.68,13.19,38.56,31.12,56.95,2.63,1.8,4.25,3.78,4.87,5.96l-1.9,1.9-1.27-3.17c-.38,1.3-.67,2.42-.64,3.8-1.2-6.12-7.05-9.02-11.11-13.31-11.5-12.18-16.88-22.58-21.69-38.56-8.97-29.78-11.27-61.06-17.31-91.47Z"/>
        <path class="cls-2" d="M333.72,72.51c-1.43-.8-2.93-1.31-2.54.63l-2.09-1.17c-7.43-13.73-19.88-19.15-34.46-21.95-7.69-1.48-17.74-2.93-25.48-3.51,1.84,2.42,1.9,4.42-.99,5.85-3.79,1.87-19.88-1.97-22.37-5.32-1.08-1.45-1.52-2.82-.7-4.53-4.58-1.51-8.97-3.48-13.17-5.91l-.32-1.5,1.9-.63c3.51,1.65,6.83,3.93,10.65,4.89,13.99,3.5,32.81,3.85,47.82,6.73,20.54,3.95,30.19,8.91,41.74,26.44Z"/>
        <path class="cls-23" d="M381.29,344.61c.22-2.62-1.45-.64-2.54,0,.71-2.13,2.4-3.67,3.5-5.7,3.83-7.06,12.04-23.21,13.95-30.45,1.81-6.85,2.77-13.87,4.75-20.94-.57-.33-.81-.76-.59-1.32l4.1-17.56c1.57-8.97,2.57-19.42-3.58-26.92l.08-1.77c-2.24-5.25-8.11-5.01-12.69-3.17l.63-1.26c-.61-.08-1.32.1-1.9,0,17.54-9.92,22.76,15.01,22.19,27.58-.5,11.03-4.27,18.6-6.93,28.59-1.87,7.03-2.72,14.79-5.08,21.55-2.42,6.93-11.62,25.81-15.88,31.37Z"/>
        <path class="cls-8" d="M279.81,531.09c-7.28,5.92-13.23,13.97-21.36,18.92-4.08,2.48-17.43,8.66-21.77,8.99,3.55-2.23,7.15-14.13,9.04-15.69,1-.83,7.92-1.22,10-1.73,8.53-2.1,16.23-6.76,24.08-10.49Z"/>
        <path class="cls-91" d="M406.03,493.67c-17.44,27.78-59.64,55.62-88.16,71.67-1.31.43-1.73.22-1.27-.63,13.43-7.84,27.45-17.42,39.96-26.64,14.91-10.99,40.1-30.77,48.84-46.94-.42,1.17-.84,2.11.63,2.54Z"/>
        <path class="cls-94" d="M383.19,175.26c-.88-.69-.21-2.15-1.26-1.9-.04,1.68.02,3.39,0,5.07-.18.55-.39.55-.63,0l-.89-1.38c-1.4-15.63-5.5-30.52-13.07-44.28-5.82-9.55-11.1-19.27-15.85-29.18-1-.92-2.06-1.98-3.17-3.17.1-1.06,3.03-.3,3.17-1.9,17.82,26.45,27.7,44.33,31.71,76.75Z"/>
        <path class="cls-91" d="M135.83,501.28l-.63,1.26h2.54c-.21,1.12-1.03,1.13-1.9,1.27-10.87,1.85-35.93,16.68-46.94,22.83-1.31.43-1.74.22-1.27-.63,16.18-9.58,30.23-18.79,48.2-24.74Z"/>
        <path class="cls-62" d="M177.69,480.99l21.55,13.63c.08,2.89-7.47-1.53-8.18-1.95-4.92-2.91-9.69-7.33-13.37-11.68Z"/>
        <path class="cls-109" d="M195.45,527.91c-8.9-2.16-19.66-6.61-24.74-14.58,2.41-.28,3.42,2.18,5.13,3.43,1.82,1.33,4.16,2.94,6.1,4.05,4.44,2.55,9.73,3.78,13.51,7.09Z"/>
        <path class="cls-136" d="M409.83,471.47c1.85.78,3.61,1.09,5.72,2.21,1.24.65,13.45,8.53,12.04,9.84l-19.03-10.78c.18-.03.91-1.04,1.27-1.27Z"/>
        <path class="cls-33" d="M203.69,527.91c-4.28.12-8.88-3.31-12.26-5.81-3.9-2.88-7.47-6.31-10.57-10.03l11.22,8.76,11.62,7.09Z"/>
        <path class="cls-38" d="M317.23,543.77c-.69,1.12-1.78,2.78-2.54,3.81-1.22,1.64-10.09,12.58-12.05,10.78.98-2.51,4.06-4.2,6.03-6.33,1.34-1.45,2.81-3.5,4.11-5.08,1.17-1.42,2.76-3.05,3.81-4.44.98-.67,1.19-.24.63,1.27Z"/>
        <path class="cls-70" d="M316.59,564.71l1.27.63c-6.92,3.9-12.4,6.85-19.66,10.15-1.07.4-1.22.39-.63-.63,6.17-3.62,12.87-6.55,19.03-10.15Z"/>
        <path class="cls-109" d="M87.62,526.01l1.27.63c-5.89,3.29-11.79,6.85-17.76,10.15-1.03.45-1.23.38-.63-.63,5.42-3.8,11.51-6.82,17.13-10.15Z"/>
        <path class="cls-11" d="M194.18,510.79c-4.65-.07-8.67-4.28-11.42-7.6l9.73,5.81,1.69,1.79Z"/>
        <path class="cls-97" d="M288.05,525.38c-2.06,1.5-5.43,3.2-6.98,4.44l-1.27-.63c1.82-.94,3.92-2.39,5.76-3.43.61-.35,2.07-1.72,2.48-.37Z"/>
        <path class="cls-116" d="M164.37,48.41l-.58,1.53.58.38c.76,1.85-2.27,3.61-3.81,2.54l-1.9-.63c1.72-1.04,4-2.63,5.71-3.81Z"/>
        <path class="cls-135" d="M182.76,468.3c1.3-.29,2.05.93,1.27,1.9h-.86c-.8,2.07-1.1.62-1.68.63l-2.53-3.8c1.49-.43,2.75,1.05,3.8,1.27Z"/>
        <path class="cls-77" d="M191.64,472.74l-1.27.63c-.84.55-1.86-.34-1.9-1.27-1.75-.17-6.54-4.04-3.17-3.81,2.6,1.06,4.25,2.98,6.34,4.44Z"/>
        <path class="cls-11" d="M185.3,468.3l-.62.31c1.07,1.37,2.53,2.35,3.79,3.49.84.89.49,1.22-.63.63-1.12-.9-2.79-1.62-3.81-2.54-.46-.41-.81-1.39-1.27-1.9.29.06.46-.85,2.54,0Z"/>
        <path class="cls-66" d="M298.2,575.49c-2.29,1.04-4.63,3.64-7.61,3.16l6.97-3.8.63.63Z"/>
        <path class="cls-86" d="M130.12,524.11v7.61c-2.3-1.09-1.8-3.67-1.9-5.71l.51.42.13,2.74h.62c-.46-2.02.29-3.49.64-5.07Z"/>
        <path class="cls-62" d="M178.32,545.04c.81,1.84,1.98,3.56,1.9,5.71-1.68-.88-2.31-3.02-3.16-4.44l1.26.63v-1.9Z"/>
        <path class="cls-84" d="M190.37,473.37c.77.72,1.48,2.19,2.53,2.86-1.47.64-3.71-2.4-5.07-3.49l.63-.63c.53.48,1.39.79,1.9,1.27Z"/>
        <path class="cls-14" d="M289.32,310.36c1.35,3.13,4.94,2.72,6.39,4.71.57.77,1.19,4.08,1.23,5.15.43,11.52-4.49,24.25-4.44,34.22.02,4.11,3.93,10.3,4.43,15.23.7,6.93-1.31,15.38-.91,22.55-1.37,6.82-10.72,8.37-13.96,13.31-1.13,1.72-3.72,9.8-4.16,10.12-.58.42-2.7-1.01-3.16-.63l1.27,2.52-3.81-1.26,1.9,3.8c-5.63-2.15-1.42,3.31-1.9,3.8-1.72.29-3-3.03-4.42-.95l1.89,4.76c-3.59-.92-2.65,2.3-3.18,5.07-1.67.44-1.44-1.61-2.34-1.91-2.92-.98-2.18,2.55-3.69,3.18-1.13.57-.89-1.29-1.27-1.3-.85-.04-3.17,1.44-4.11,1.94-1.08-1.25-2.14-1.46-3.17-.63-.29.64-1.52,4.89-2.53,3.81-.46-.5-1.98-7.63-4.44-8.25v6.34s-2.54-3.8-2.54-3.8l.62,6.97-3.16-5.07.62,6.34c-1.02-.27-1.1-1.85-1.89-2.86-.45-.57-1.2-1.36-1.9-1.58l.62,5.07-2.52-1.9c-.33,1.35.74,2.85.64,4.01-.05.63-4.38,3.64-4.13,1.07-1.66,3.09-5.96,5.72-8.25,1.89-.74.08-.06,1.61-.32,1.92-.18.21-4.64-.63-5.39-1.02-.54.02-1.08.73-1.58,1.01-.85,2.28-1.58,2.86-2.19,1.74l-2.25.16-.47-.29c.97-1.75.34-.83-1.89,2.76-1.64-.06-2.55.6-2.71,1.97,1.25,1.32-2.96,2.06-4.25,1.4-1.33.81-2.66,1.41-4,1.78l-.61.47c-2.32-1.06-4.02-.97-4.32,1.57-.72.09-1.4.89-2.04,2.41-2.14-.81-2.25-1.11-3.81-2.54-1.15.19-2.42-.23-3.81-1.27-.89.39-.07,2.35-2.54,0-1.09.48-2.02.17-2.78-.94.18,1.07.18,1.73-1.02,2.2-5.15-1.05-5.44-1.84-8.88-4.67-.29-.24-1.1.1-1.57-.39-.98-1.04-1.68-4.3-2.35-4.93-.13-.12-.83.43-1.41-.17-.76-.78-2.07-2.08-2.29-3.16l-1.25,1.26-.65-2.53-1.25,1.89-1.28-4.44-1.9-1.26-.94,2.53c-1.83-2.28-3.36-4.5-4.76-6.97-1.51-1.53-1.8-.49-1.27,1.27,1.05,2.78,4.73,8.6,5.08,10.46.4,2.11-1.86.21-2.55-.31-8.29-6.19-20.11-20.97-25.63-29.86-8.06-12.99-10.58-27.56-13.49-42.33-3.79-19.23-9.37-43.03-11.54-62.05-.12-1.03-.52-2.75.56-3.4,8.7,6.57,23.8,5.63,34.59,5.1,5.61-.28,11.19-1.52,16.78-1.92-1.48,3.16-15.32,5.05-15.86,5.71-.18.23-.03,1.51.28,1.93,1.1,1.5,11.43-.52,13.69-.96,5.84-1.14,11.35-3.39,17.1-4.77-.77,1.83-2.18,4.46-2.54,6.34l-1.32,4.23c-7.26,9.73-12.13,20.83-14.6,33.31-5.74,10.01-8.8,20.81-2.19,31.21l.98-.88c-2.51-17.01,11.36-39.83,19.66-54.55.9-2.04,5.19,1.19,5.71,2.54,2.01.02,4.01-.13,6-.44,1.74-1.24,5.63-1.86,6.68.44,2.33,1.02,4.81,1.99,7.43,2.92l.18.88c1.5-.38,2.56-.17,3.17.63,3.32.98,3.5,5.16,1.9,7.61-.46,4.02-.88,8.1-1.25,12.25.95-1.64,2-2.13,3.15-1.46.41-1.55,1.26-2.4,2.54-2.54-.84-2.31-1.88-7.1-1.27-9.51-1.56-3.88-1.14-5.36,1.27-4.44,2.34-1.54,7.53,1.16,9.94,2.67s6.98,4.72,6.55,7.48c1.94,3.59.68,12.88-2.31,15.64-1.77,1.63-7.12,3.63-9.61,4.48-6.3,2.14-8.09,2.73-14.46-.26-6.71.45-13.3,2.63-19.77,6.52-1.18.62-2.29.71-3.32.26-1.28,1.76-2.76.49-4.44-3.81-6.71,3.83-12.06,11.24-12.61,18.97.75-1.75,1.78-2.57,3.1-2.47-.24-.29-.41-.57-.37-.81.47-2.92,30.97-15.79,36.63-14.84,8.65,2.06,15.06,1.34,23.3-2.19.82-.28,1.49-.04,1.96.71,3.13.02,6.01,1.27,8.64,3.76,8,2.1,16.35,2.89,25.07,2.36,7.2.81,16.54,3.09,21.47,8.47l.77.02c-.58-1.23-.73-2.56-.13-3.83-.71-1.15-.2-8.36.52-8.97.62-.52,1.48-.64,2.26-.47,3.39,1.8,5.84,1.98,7.37.56.26-3.7.26-7.51,0-11.42-1.31-.81-2.3-2.28-2.95-4.41l-6.1-6.81.17-.83c-4.51-3.21-8.51-7.96-11.42-12.69-6.68-10.16-13.05-19.71-22.61-27.36-2.32-2.23-8.31-8.19-5.09-11.44.34-.34,1.13-.08,1.69.12,4.85,2.54,14.55,4.76,20.07,5.62,10.58,1.66,22.62,2.49,33.21,1.35Z"/>
        <path class="cls-20" d="M378.12,262.79c.48,3.34.79,6.76.63,10.15-1.3.17-.68-3.26-2.2-2.53-1.1.52-1.02,1.67-.85,2.69.6,3.49,7.38,11.5,8.9,15.88,1.89,5.44.45,15.78-4.86,18.88-2.94,1.72-3.45-.72-5.27-1.2-3.51-.91-4.74,4.37-5.7,6.74-.39.95.38,1.72-1.42,1.39-1.98-10.64,8.98-12.42,4.55-23.27-1.28-3.13-6.32-8.61-5.85-11.9.25-1.73,4.9-5.13,6.26-7.12,1.94-2.84,3.39-7.19,5.18-10.36.96-.94,1.3-.59.63.63Z"/>
        <path class="cls-20" d="M397.15,243.76c3.4.33,5,5.9,5.8,9.02,2.35,9.07-.06,21.31-1.95,30.43-.12.57-.74.91-1.32,1.15l-3.17,3.8c-.59-7.62,4.06-15.7,1.13-23.02-.36-.9-3.6-6.77-3.99-6.78-1.49-.04-.87,6.84-.95,8.23.36,2.48.14,4.39-.63,5.71-1.29-3.11-1.33-20.87-2.53-21.9-.35-.3-1.05-.16-1.28-.3-1.69.56-1.7.04-.63-1.27,2.68-2.56,5.19-5.55,9.51-5.07Z"/>
        <path class="cls-14" d="M283.61,307.19c-.63.05-1.27-.03-1.9,0l-6.03-.86c-3.51-.54-9.65-5.04-3.49-6.12,10.95-1.46,29.14-4.01,34.88-14.59,1.66-.94,1.22-1.02,1.01.69-1.68,13.79-11.56,19.89-24.48,20.88Z"/>
        <path class="cls-43" d="M400.95,239.96c11.34,11.22,3.62,34.68,0,47.57l-1.9,1.27c.24-1.47.42-2.96.63-4.44,1.84-13.07,6.75-29.17-2.54-40.59-.3-.37-1.31-.64-1.27-.93.27-1.71,3.63-2.15,2.54-4.78.1-.13,2.26,1.64,2.53,1.9Z"/>
        <path class="cls-94" d="M329.91,466.39c-8.67,14.97-21.07,27.33-35.52,36.79-1.32.53-1.74.32-1.27-.63,12.07-9.15,27.6-24.93,36.15-37.42.9-.68,1.12-.26.63,1.27Z"/>
        <path class="cls-25" d="M393.97,297.68c-.4,7.84-1.22,13.82-6.08,20.24-.56.74-3.88,4.28-4.39,4.49-1.37.57-.97-1.48-.97-2.24.06-9.81,9.38-13.81,10.17-21.86.1-.36.19-.65.63-.63.18-.55.39-.55.63,0Z"/>
        <path d="M353.38,279.28c-1.17-.6-3.11-3.01-3.2-4.17-.1-1.31.99-1.88,1.11-2.59.14-.86-.67-1.87-.37-2.93.34-1.24,2.61-1.57,1.19-3.62,2.62,1.33,4.65,1.52,7.61,1.26.73,1.78-.92,3.25-1.1,4.26-.13.77.48,1.33.46,1.44-.86,5.7-2.08,3.66-5.71,6.34Z"/>
        <path class="cls-94" d="M312.15,375.06c-.93.16-.82-1.19-.96-1.88-.51-2.51-.65-5.06-1.25-7.64-.94-4.03-4.17-12.14-4.15-15.55.01-1.53,1.8-5.42,3.12-3.09,2.04,3.59,1.76,9.39,3.24,13.25v14.91Z"/>
        <path class="cls-76" d="M312.15,380.76c1.92,1.83-3.91,25.4-5.67,28.9-.47.93-.57,1.81-1.94,1.54,3.21-9.38,4.06-19.53,4.53-29.4.43-1.33,1.89-1.07,3.08-1.04Z"/>
        <path class="cls-32" d="M267.12,523.48c4.13-2.52,35.99-24.55,38.05-22.83.35,1.69-.43,1.09-1.25,1.57-11.92,7-23.55,15.44-35.54,21.89-1.35.46-1.77.25-1.27-.63Z"/>
        <path class="cls-59" d="M331.18,510.16c6.68-7.66,12.5-16.88,18.09-25.38.49-.74-.16-1.64,1.57-1.26-3.44,10.56-10.89,19.93-19.03,27.27-.89.84-1.22.49-.63-.63Z"/>
        <path class="cls-38" d="M308.98,506.99c.18,1.54-2.35,2.44-3.47,3.19-6.68,4.45-14.37,9.51-21.9,12.03l25.37-15.21Z"/>
        <path class="cls-104" d="M286.15,499.38c-3.07,2.59-6.64,4.49-9.81,6.99-4.29,3.37-8,7.5-12.38,10.77-.28-1.19.66-1.51,1.26-2.22,5.16-6.13,13.22-13.22,20.93-15.53Z"/>
        <path class="cls-79" d="M298.83,484.78l17.12-15.85c-1.7,3.92-6.75,8.95-10.13,11.74-1.89,1.56-4.57,3.5-6.98,4.11Z"/>
        <path class="cls-48" d="M393.97,283.72c-.14,4.7-.35,9.35-.63,13.95l-.63.63c.83-8.41-.69-17.7-.63-26.01,0-1.01.53-3.97.63-5.71l1.26,10.47c.07,2.22-.03,4.44,0,6.65Z"/>
        <path class="cls-29" d="M388.27,250.11l-10.15,12.69c-.04-.3-.33-.57-.63-.63,2.97-5.27,5.76-9.13,10.15-13.32-.08.68.09.92.63,1.27Z"/>
        <path class="cls-89" d="M241.11,457.51c-.06.03-.8-.58-1.27-.28-.89.57-.82,2.54-2.53,2.17-.19-.2,1.49-2.28,1.73-2.96.13-.36-.48-.79-.46-.83.94-2.33,3.07-4.24,5.07-5.71l-2.53,7.61Z"/>
        <path class="cls-71" d="M360.99,298.95c-1.14,1.25-.63,3.92-.63,5.71-.9-3.97-1.29-8.6-1.27-12.69-.5-2.33-.29-3.6.63-3.81.6,3.57.83,7.2,1.27,10.78Z"/>
        <path class="cls-79" d="M310.25,265.33c-.86,4.25,2.28,3.75,5.09,5.4.82.48,1.6-.11,1.25,1.57l-6.03-2.53-.95,2.53c.16-2.15-.64-5.48.63-6.98Z"/>
        <path class="cls-124" d="M215.74,448c-.14.61.2,2.25,0,2.54-.08.12-1.56-.3-1.58,1.9l-.96-2.53-.63,1.9c-1.09-.11-1.03-1.15-1.26-1.9-.98,1.38-1.75,3.66-1.91,3.81-.12.12-1.46-.73-2.16-.7s-.27,1.22-.37,1.33c-.16.57-.38.56-.63,0-.55-.7-.95-3.41-.63-3.8,1.09-1.34,1.44,2.61,2.53,1.27.23-.28-.22-2.24,0-2.54,1.12-1.47,1.13,1.65,1.89,1.26l.96-2.53c.7.17.15,1.38.31,1.9,1.18-1.67.72-3.55,2.85,0,.49-2.94,1.45-1.84,1.59-1.91Z"/>
        <path class="cls-97" d="M294.39,503.18c-2.54,1.67-5.19,3.78-8.25,4.43,1.66-2.34,4.87-3.47,6.98-5.07l1.27.63Z"/>
        <path class="cls-129" d="M309.62,274.84c2.28,1.41,5.57,2,6.98,4.43-2.58-.07-4.88-1.85-6.98-3.16.04-.41-.04-.85,0-1.27Z"/>
        <path class="cls-12" d="M359.72,288.16c-1.06.69-.63,2.61-.63,3.81l-1.26-10.15c1.68,1.16,1.59,4.52,1.9,6.34Z"/>
        <path class="cls-5" d="M329.91,466.39l-.63-1.27,4.43-6.97c-.22,3.07-2.32,5.69-3.8,8.24Z"/>
        <path class="cls-143" d="M268.39,524.11c-1.09.59-6.13,3.85-6.97,3.17-1.2-.97.88-1.36,1.25-1.57,1.42-.83,3.06-1.37,4.46-2.23l1.27.63Z"/>
        <path class="cls-69" d="M393.97,297.68h-.63c.38-4.5-.82-9.67.63-13.95.08,4.51.23,9.49,0,13.95Z"/>
        <path class="cls-138" d="M308.35,282.45c1.64.45,3.15,1.79,4.51,2.8.33.24,2.32.68,1.2,1.63-.9.76-4.9-3.28-6.34-3.17.15-.43.51-.84.63-1.27Z"/>
        <path class="cls-121" d="M346.4,479.71c-.22.42-2.45,6.48-3.8,5.07-.35-.37,2.84-5.53,3.17-6.34l.63,1.27Z"/>
        <path class="cls-123" d="M286.78,426.43c.98,1.23-2.94,6.65-3.17,6.34.11-.78-.18-1.86,0-2.54.19-.75,1.72-3.35,2.49-1.93-.12-.83.44-1.31.68-1.87Z"/>
        <path class="cls-75" d="M312.15,264.06c.42.12,6.11,1.16,4.44,2.53-.37.31-5.01-2-6.34-1.27.45-.54,1.36-.79,1.9-1.27Z"/>
        <path class="cls-93" d="M255.07,434.68c-.18.1-.08.97-1.27.64-.28-4.25-.14.46-1.91-1.27.47-1.05.39-2.79,1.9-3.17l1.28,3.8Z"/>
        <path class="cls-44" d="M317.23,543.77l-.63-1.27c.98-1.32,1.5-3.61,3.17-4.44.14,2.25-1.45,3.97-2.53,5.71Z"/>
        <path class="cls-86" d="M331.82,510.79c-1.26,1.13-2.01,3.62-4.44,3.16.64-1.65,2.82-2.67,3.81-3.8l.63.63Z"/>
        <path class="cls-16" d="M231.6,35.09c2.67,1.02,6.24,3.34,9.08,4.55.9.39,7.42,2.17,6.77,3.05-.14.19-2.95.36-.68,3.55,2.73,3.82,32.17,10.31,19.08-1.32,1.77-.54,4.12.63,6.1.88,23.99,3.02,46.49,3.03,59.23,27.35,10.7,20.43,1.45,39.64,2.52,59.96.31,5.98,3.94,10.4,4.46,15.2.84,7.77-.74,15.98-.61,23.76,2.25.06,4.54,1.07,6.54,2.02,9.38,4.44,32.52,29.04,37.71,38.41,3.16,5.71,4.38,10.07,2.65,16.68l-1.9-3.8c-.27-8.84-23.41-35.38-30.51-42.11-8.71-8.26-11.48-6.52-21.21-10.5-3.15-1.29-5.97-3.93-9.18-5.41-15.37-7.07-34.7-13.96-50.75-20.28-42.44-16.73-74.53-19.31-119.86-15.56-20.09-.14-41.64,3.62-60.31,12.58l-1.85.11c-1.24.63-2.55,1.33-3.81,1.9l-1.52.34c-.3-3.31-.21-6.59.25-9.85,1.95-17.12,7.37-29.93,17.25-43.96,5.05-7.18,24.72-19.42,33.06-23.39,2.69-1.28,5.13-1.53,7.58-2.56,7.31-3.08,12.41-9.13,18.85-13.81,1-.73,2.6-1.71,3.81-2.54,6.3-4.32,13.75-9.33,20.5-12.79,3.09-1.58,6.39-3.69,9.94-3.69-4.54,4.61-7.47,8.6-9.69,14.72-1.39,3.84.22,6.83-5.53,6.2-.04-.9.39-1.7.63-2.53.34-2.56.12-3.4-.63-2.54-.45,1.37-1.26,5.47-1.91,6.02-1.39,1.17-8.87,3.34-11.6,4.89-4.88,2.77-13.6,9.78-9.22,15.95,2.03,2.86,4.33,2.11,7.23,2.93.75.21,1.13-.42.84.88-1.38,6.23-5.55,13.02-6.91,19.43-6.74-3.72-17.44,5.69-12.97,12.66,3.23,5.03,14.76,3.6,19.31.66.9,1.22-4.11,11.49-3.17,13.95l8.86-.66,3.2-15.83c11,7.06,38.16-6.77,32.65-20.93-1.23-3.16-5.75-6.11-8.75-7.74-2.38-1.29-4.94-1.43-6.78-3.04,7.11-1.45,24.03-8.8,22.58-17.78-1.5-9.26-19.54-9.11-26.39-7.6,1.74-10.33,8.8-21.44,20.05-22.76,7.11-.84,18.24,1.8,24.99,4.37Z"/>
        <path class="cls-8" d="M204.96,179.07c6.77-1.43,27.12-3.74,32.57-.54,1.08.64,2.32,1.97,2.95,3.08h-11.1c-.13,0-2.47.59-2.22,1.26,3.76.12,7.89.58,11.54,1.46.96.23,3.39.63,3.67,1.71-13.25-.68-25.66,3.2-37.42,8.89.16.61.8.82,1.9.63,14.99-5.26,19.49-6.31,35.4-2.74,5.2,1.17,10.82,3.62,15.82,4.48,5.83.99,10.1.09,16.01,2.7.17,1.29-1.31,1.71-4.44,1.27-.73-.15-1.42-.54-1.9-.63l-7.45-.25c-.17,0,3.04-.19,3.01.89,9.98,2.18,19.95,4.34,28.53,10.15.92-5.85,1.7-9.56,8.57-9.56,6.05,0,11.24.92,17.75.04,2.32-.31,10.13-2.75,11.28-2.44.95.26,7.04,7.48,7.41,8.5.47,1.28-1.69.56-1.23,1.84.13.36,3.64,5.04,4.09,5.48,1.13,1.08,1.93.7,2.87,1.46,1.74,1.43,2.77,4.08,4.75,5.45l1.58-1.9c.04,1.2.88,2.12,1.28,3.17,1.44,2.86,2.47,5.98,3.08,9.36l-3.71.16c-10.63-1.18-21.29-2.82-31.98-3.18l-.37,3.82c-.68-.46-1.31.6-1.9,3.17l-.64-8.24c-3.95-.93-8.1-.24-12.05-.64-1.74-.18-3.91-.9-5.71-1.27-1.26-.19-2.75-1.21-2.54-2.54-.46-2.5,3.31.56,2.44-2.75-.71-2.7-12.84-11.47-15.84-12.72-9.48-3.95-17.06,5.71-25.13,7.07-7.07,1.19-14.94-1.12-21.43,2.06-.37-2.63-3.05-.18-4.11,1.26-1.76,1.27-3.11,3.19-4.06,5.77-.69,0-1.24-.22-1.65-.69-1.26.91-2.24,2.05-2.94,3.44l-.87.37c-.04.2.03.43,0,.63-1.29.86-1.29,2.13,0,3.81,1.02.75,1.6,1.45,3.17,1.28-.87,2.22-4.04.85-5.69.29-5.53-1.9-12.53-9.27-14.61-14.25-.64-.57-.86-.15-.63,1.27,1.59,4.23,2.78,8.76,5.71,12.37,3.54,4.36,6.31,2.57,11.41,2.86.46,1.74-1.37,1.52-2.53,1.9-1.36,1.51-3.47,2.15-6.34,1.9-9.73,1.96-21.15,1.75-31.08,2.53,1.37-3.2,3.1-6.49,3.65-9.99.12-.75.67-2.57-.79-2.06-.67.23-5.88,10.72-7.93,11.74-1.56.78-11.28-.8-13.96-.96-.85-1.6-.34-2.12,1.27-1.27,4.59-.38,7.25-2.56,7.97-6.53.33-3.22,1.05-6.12,2.17-8.7.31-1.36.94-4.74-.63-4.44.32,3.03-.03,6.93-1.02,9.81-.83,2.4-2.68,6.64-5.32,6.68-2.38,1.68-2.46.24-1.27-1.9-.06-.83.1-1.71,0-2.54-1.76-.55-3.24-1.82-4.44-3.81-.96.22-1.85-.3-2.67-1.57l-3.04-1.6c-3.92.28-3.06-.36-4.22-.63-3.94-.93-12.12,3.82-17.03,3.8-5.82-.03-12.7-5.96-19.07-3.22-2.26.98-3.47,4.05-5.97,4.49-.88-.94,7.15-9.19,8.24-10.15l-.28-.85c1.73-.95,4.13-2.33,5.66-3.64.04-.03-.11-.28-.3-.59-2.47.97-3.46.52-1.9-1.9,7.66-7.79,17.01-13.91,27.91-15.22,6.36-.46,12.7-.46,19.03,0,.42,0,.85,0,1.27,0,4.75.45,5.89.49,3.41.12l-.24-.76c-15.25-3.52-28.53-4.18-42.45,4.17-1.54.93-9.3,7.45-10.2,6.61.9-4.14,3.34-6.55,6.64-8.89,6.25-4.44,14.94-9.01,22.53-10.14.12-1.12-2.15-.68-2.84-.61-4.77.43-10.3,2.47-14.71,4.32-1.87.79-4.21,2.76-5.91,2.33,6.6-7.48,14.77-12.6,24.73-14.27,4.2-.68,8.47-.47,12.69,0,.21,0,.42,0,.63,0,13.48,1.73,26.38,3.35,40.15-1.2l2.98-.07Z"/>
        <path class="cls-8" d="M189.1,257.72c4.59-1.62,9.24-2.21,13.53.74,3.38,2.32,4.08,9.53,4.25,13.51.17,3.91-1.7,18.56-.36,20.66.48.75.85.73,1.62.32,2.77-1.48,2.59-11.29,3.47-14.29,3.94,7.64,8.09,14,15.34,18.91,2.36,1.6,4.46,2.11,6.54,3.29.52.29,2.05,2.28,2.54,2.54-1,.66-1.3,1.65-1.24,2.79.24,5,11.83,12.92,15.45,16.94,3.57,3.96,7.54,10.88,10.42,15.58.64,1.05,1.21,2.14,1.38,3.38-1.5-.31-3.37-2.32-3.81-3.81-10.03-10.14-19.92-21.02-29-31.93-5.7-6.49-20.48-3.68-15.46,6.51-.35-4.97,4.67-6.28,7.99-3.07-1.03-5.31,3.24-4.08,6.4-2.25,4.14,2.4,8.31,7.71,9.14,12.46.75,4.28-.27,12.18-5.08,13.2-.25.57.18.79,1.27.63,1.3-2.12,2.64-4.38,4.01-6.78,2.02-6.37,3.21-5.6,8.47-1.4,4.25,3.4,8.53,8.88,11.63,13.25,5.47,4.72,10.69,10.48,14.59,16.49,6.36,3.64,10.53,11.42,9.51,19.03.25,1.42.46,2.69.63,3.81-.2.77.27,2.12-1.03,2.49s-5.91-2.23-7.84-1.86c-.04,2.9-1.42,5.27-1.27,8.25-.18.55-.39.55-.63,0-1.48-1.96-2.13-4.62-1.97-7.97-.8-3.28-4.96-3.77-7.79-3.98-14.21.52-28.55.48-43-.11-5.48.97-10.87,2.32-16.16,4.06-10.49-1.93-19.48-1.62-29.24,3.27-2.03.86-5.73,1.2-4.58-1.62,7.4-2.15,14.8-9.19,22.99-8.08,2.75.37,5.82,2.62,8.35,2.36,1.39-.14,12.72-4.66,14.15-5.57,4.12-2.61,3.28-10.87,3.99-15.36l1.4-.38c5.28,6.35,6.99,6.03,5.13-.95-1.51-5.4-2.66-10.87-3.46-16.38-6.26-2.95-3.23-5.08,1.63-6.91,6.29-3.98.5-5.27-4.08-4.36-3.04.6-16.26,5.05-10.39,8.68.49,2-6.69,8.31-8.63,6.35-5.16.68-10.94.92-14.59-3.17-2.6.25-6.68-3.94-5.71-6.34l1.5-.73c3.48,1.53,7.18,1.8,9.23-2.02,2.67-5.78,5.5-10.41,10.96-14.02,1.83-2.04,1.18-5.03.61-7.48-4.44-11.44-6.31-23.57-5.59-36.4.41-7.82-1.71-11.52-6.38-11.08l-.81-1.21Z"/>
        <path class="cls-14" d="M154.22,270.4c1.64-.44,3.25.44,4.85,2.64,2.25.29,3.17,1.1,2.76,2.43l-.66,1.52c1.03-.66,1.81-.69,2.56.38,1.6,1.05,1.3,2-.63,1.9-1,.96-.58,1.59,1.27,1.9l1.27,1.9c.51,1.18,1.15,1.82,1.9,1.9-.7-2.06,2.91-6.21,5.07-6.34,1.69-.95,2.11.53,1.27,4.44-.35,23.27-17.06,26.37-36.55,28.46-15.84,1.7-34.21,4.28-41.46-12.61.27-1.74.27-3.43,0-5.07-.82-2.87-.68-7.09-.08-10.03.02-.09.32-.11.71-.12,1.36.38,2.14,1.36,2.34,2.94l.24-11.44c-.15-1.41.61-1.87,1.72-2.38s16.21,1.09,17.25,3.24c1.55-.65,2.61-.43,3.18.66,1.3.3,2.14-.55,2.54-2.54.04-1.68,1.5-2.2,4.37-1.57l1.15-1.93c8.09-.4,16.07-.88,23.94-1.45l.98,1.15Z"/>
        <path class="cls-8" d="M303.91,242.5c.91,2.42,1.54,7.41,1.9,10.15.67,3.28.68,6.84,0,10.15-3.6.43-3.6,1.28,0,2.53.12,2.28.43,5.81-.63,7.61l-.85-.32c.44-8.39-7.62-2.84-10.78.61l-2.33.34c.61,1.05-1.62.89-1.51.89,2.35-.51,3.27-.17,2.78,1.01-1.06,1.39-6.38,3.47-7.61,1.9l-.41-.78c-3.37-.48-4.71-1.7-4.03-3.66.38-1.9,3.23-3.1,5.07-3.17l-.28-.86c7.73-10.28,3.25-10.59-4.33-3.2-1.68,1.1-4.48,2.64-6.17,1.53-5.62.81-8.04-4.07-7.61-8.88l.55-1.35c4.19-1.48,12.75-3.11,16.57-.52,1.69-1.17,5.95-1.02,6.35,1.24,1.18.22,2.31,0,1.9-1.27-1.17-1.46-1.59-2.61.63-1.9.77-1.28,4.53-.24,1.13-.57-3.05-1.53-5.65-3.77-7.81-6.73l-.3.96c1.12,1.5.91,2.13-.63,1.9l-1.73.2c-1.88-1.95-3.63-3.92-5.25-5.9-11.32-7.1-23.08-4.78-34.88-.63-.31.54.11.75,1.27.63,9.17-5.63,24.51-7.08,32.98.63,3.92,1.52,9.42,8.92.87,5.63l-10.87-5.15c-8.06-2.93-12.77-1-20.1,2.47l-.98-.41c-3.31,3.41-6.98,6.61-11,9.61.66.17,1.18.52,1.48,1.17.56,1.6,1.1,1.97,1.63,1.1l2.81-.47c1.02-1.37,3.15-1.01,4.44,0,.62-.95,1.33-.98,1.9,0,1.79,1.25-1.02,8.63-3.17,8.88-.21.51-.42.51-.63,0-2.89-.57-4.79-1.83-5.71-3.81l-1.2.79c-.99-1.6-6.23.02-6.67.63-.75,1.03,9.7,9.56,11.17,10.01,1.08-3.35,4.71-.41,6.22,1.25,3.58,1.63,7.27,3.21,11.08,4.75l.33.95,1.41.83c-.39,7.51,1.78,11.81,6.53,12.91l.3.85c-1.63,1.29-4.53.46-6.68.61-.82.06-1.66.66-1.88.66h-13.32c-.81,0-5.7-.46-6.66-.63-3.31-.59-8.65-3.07-11.42-5.07-.07-.42.27-1.11,1.01-2.08l-.38-5.53c-.6-3.76-1.4-7.36-2.69-10.95-2.12-5.91-6.38-11.5-7.45-17.59l5.06,3.81c.35-4.12,4.39-18.78,7.37-20.86,3.68-2.56,20.17-4.6,25.3-5.14,10.18-1.08,34.16-3.22,42.62,1.77,1.93,1.13,4.5,4.45,5.26,6.47Z"/>
        <path class="cls-111" d="M132.02,176.53c-.36.14-3.88,1.77-3.79.32.1-1.7,12.76-10.43,15.02-11.61,9.78-5.12,22.99-3.06,34.12-3.94,9.32-.73,18.62-2.52,27.88-3.77,8.45,4.42,22.95,9.5,29.85,15.83.64.59,1.16.9.94,1.91-11.93-2.61-22.3.51-33.61,3.17-4.33,2.05-10.05,2.94-14.98,3.5-7.19.82-15.29.57-21.81-2.23-5.66-.84-11.73-2.32-17.36-1.82-4.02.36-7.92,1.78-11.79,2.8l-12.08,5.36c1.35-3.94,5.12-7.24,8.88-8.87.2-.49-.22-.7-1.27-.63Z"/>
        <path class="cls-14" d="M189.1,257.72c4.36-.38,6.26-.13,7.33,4.4,2.07,8.75,1.11,20.88,2.25,30.1.71,5.74,7.95,17.36,3.75,22.28-1.6,1.88-4.93,3.57-6.65,6.04-4.51,6.5-4.57,15.4-16.2,10.12-1.95.74-5.51-2.05-3.81-3.81-2.67.37-3.38-4.88-2.54-6.98-1.01-1.35-1.71-4.86-.63-6.34.21-7.96,2.81-15.1,4.24-22.71,1.45-7.71,2.56-19.87,4.96-26.75,1.33-3.83,3.77-5.1,7.29-6.35Z"/>
        <path class="cls-16" d="M213.84,135.94c3.21-.37,5.32.26,6.34,1.9,9.63,1.16,19.55,3.16,28.54,6.98,17.46,5.2,34.36,12.09,50.1,21.25-12.4,1.43-24.46-.56-36.42-3.54-20.12-5.01-39.54-12.79-59.02-19.62-11.37-3.99-22.81-6.91-34.58-9.51-.15-1.11,1.44-.6,2.21-.63,5.82-.23,12.59-.26,18.39,0,8.23.38,16.41,1.43,24.43,3.16Z"/>
        <path class="cls-87" d="M154.85,133.4c27.66,2.02,56.85,16.21,81.19,28.54.7,2.78-1.7,1.11-3.17,0l-.97.59c-15.05-7.45-30.58-13.98-46.6-19.62-4.23-.43-8.83-1.58-12.69-3.17-37.4-6.26-74.46.53-104.79,24.19l-1.76.54c-8.77,6.88-15.06,12.62-21.45,22-7.65,11.23-14.1,25.69-11.53,39.52-2.84-1.96-2.33-12.19-1.83-15.46,3.38-21.94,24.15-43.51,41.79-55.57,4.93-3.37,11.1-6.96,16.49-9.51,6.27-4.54,14.76-7.11,22.38-9.16,14.31-3.84,28.35-5.22,42.95-2.9Z"/>
        <path class="cls-14" d="M105.38,252.01l2.88-.27c1.03,9.2,15.68,4.84,21.11,1.76,2.29-.71,7.49-2.14,7.72,1.05l-.02.88-6.96,2.92c1.31,1.24-.51,3.03-1.9,1.9-2.77,3.05-5.21,6.65-6.68,10.27l-.93-.12c1.29,3.92-4.47,3.36-7.26,2.72-6.56-1.65-13.19-2.65-19.99-2.6l-1.3-1.39c-1.31.9-1.94.68-1.9-.63,1.17-11.16,4.78-13.69,15.22-16.49Z"/>
        <path class="cls-111" d="M350.84,222.83c-2.45-7.34-5.18-13.18-8.89-19.97l1.9.94.32-2.52,2.22,1.25-.62-3.17,1.89,1.27v-1.91c2.83,1.56,2.55-.61,2.87-.66,1.35-.22,4.44,2.98,5.8,4.06,7.26,5.77,13.68,15.95,16.71,25.15.41,1.25,2.24,9.17,1.9,9.51-1.34-.21-4.77-.31-5.71-.94-.6-.41-4.1-11.56-5.06-13.65-1.84.57-2.93-4.56-2.71-4.31.38.44.26,1.13-.46,1.13h-.63c-3.03-1.4-4.1.27-3.47,3.5l-1.6.31c-.15,2.07.99,10.37.63,10.78-.46.52-1.8-.64-1.9-.63-1.88-2.98-2.6-6.68-3.17-10.15Z"/>
        <path class="cls-78" d="M236.04,161.94c19.6,9.93,49.84,29.71,71.32,30.48,14.03.5,28.58-3.96,41.26-9.54,1.02,4.32-6.02,7.56-9.4,8.99-10.63,4.49-23.58,5.07-35.03,4.36-17.54-1.09-53.03-22.91-69.42-32.38-1.23.31-2.83-.73-1.9-1.9.94.27,2.7,1.14,3.17,0Z"/>
        <path class="cls-8" d="M175.15,271.67l-1.24-.96c1.09-5.4.23-10.15-2.56-14.26-2.77,1.16-7.59-3.39-8.74-5.79-.19-.39-.58-.32-.77.08l-.59.73-14.78,1.62c-2.61,1.12-6.99,2.62-9.37,1.45-5.41-2.53-11.74,2.87-16.33,3.65-3.23.55-11.53.36-13.16-3.03-.82-1.7.79-3.75-2.23-3.16,4.69-1.26,9.65-2.25,14.46-2.99,11.9-1.83,37.95-5.08,48.48-.01,7.67,3.68,8.68,15.28,6.83,22.66Z"/>
        <path class="cls-8" d="M146.61,389.65c.23,1.55,1.04,3.72,1.19,5.48.06.71.59,2.27-.55,2.13-1.77-6.21-5.75-10.15-6.34-16.81-.88-9.85,2.71-13.16,5.71-21.54,2.39-6.69,4.28-16.02,7.15-22.03,2.33-4.89,7.04-10.39,9.97-15.09-.55,2.85.34,5.29-.28,8.29-2.73,13.22-13.29,26.23-18.63,37.81-3.39,7.35-1.8,12.81.43,20.28.11.38.55,2.93,1.36,1.49Z"/>
        <path class="cls-51" d="M172.61,139.74c.19.55-.45.76-1.9.63-.17.29-.36.55-.61.75-.44.36-10.34-.67-10.81-2.02-5.7-.91-11.92-.56-17.76,0-4.95,1.28-10.75,2.05-16.07,2.61-.77.08-1.55.01-2.32-.08-16.81,4.01-33.13,9.82-48.2,18.39-1.64,1.76-4.56,4.16-6.79,5.49-.14.08-.45-.12-.82-.42l-1.27-.63c33.3-26.15,64.76-32.53,106.56-24.74Z"/>
        <path class="cls-31" d="M141.53,139.11c5.87-.62,11.95-.81,17.76,0,3.29.18,8.19.7,11.42,1.27,4.31.01,9.71,1.25,13.32,3.17,16.91,4.56,33.2,11.11,48.86,19.64l.62,1.29c1.84,1.04,4.44,3.29,6.34,4.44.71.83.29,1.04-1.27.63-37.86-19.37-69.23-34.56-113.53-27.27-1.1.13-1.73-.08-1.9-.63,5.91-1.05,12.42-2.21,18.39-2.54Z"/>
        <path class="cls-14" d="M171.35,314.17l.64.08c-.02,2.28.4,4.15,1.26,5.63.33,1.36,1.89,5.82,2.54,6.98.23,1.08-.73,1.98-2.86,2.69l2.36,2.75c5.24,2.9,4.99,6.54-.77,4.7-2.5-.18-6.74-1.41-6.98-3.81-4.57-5.4-2.51-16.09,3.81-19.03Z"/>
        <path class="cls-43" d="M158.03,252.64c4.26-.27,8.33,1.25,12.21,4.57l1.11-.77c.19.09.7-.17,1.11.14.2.14,2.46,3.83,2.54,4.14.62,2.31.21,8.19.15,10.95-.08,3.69-.17,7.86-1.27,11.42.02-1.58.51-3.83-1.27-4.44-.86-.98-.72-2.69.44-5.13-2.44-.76-4.28-1.8-5.52-3.12-1.08.39-1.22.4-.63-.63.04-.92.47-1.76,1.27-2.54.42-1.01.85-2.07,1.27-3.17.87-.76.23-2.24-1.9-4.44-1.18.13-2.45-.08-3.81-.63l-1.7.36c-4.59-3.53-9.91-3.81-15.44-3.01l-1.26-1.15c-.62-.18-1.29-.66-1.13-1.18.3-.98,12.56-2.83,13.82-1.36Z"/>
        <path class="cls-32" d="M151.05,131.5c-1.56.13-3.18-.07-4.76,0-.77.03-2.36-.48-2.21.63l10.78,1.27c-22.5-1.65-45.02,2.42-65.33,12.05l-.63-1.27c18.32-9.32,38.01-13.58,58.68-13.33,1.07.01,2.82-.41,3.48.65Z"/>
        <path class="cls-37" d="M81.91,255.18l6.98,1.91c-1.85,6.38-2.07,13.05-1.91,19.65-1.56-1.06-2.62-3.67-4.43-4.44.91-.39.25-.81-1.97-1.27-.89-.86-2.27-14.12-1.69-15.09.46-.77,2.41-1.53,3.02-.76Z"/>
        <path class="cls-86" d="M232.87,161.94c.48.65,1.22,1.51,1.9,1.9l-1.27.63c-14.05-7.92-33.96-16.67-49.47-20.93-.48-.54-.06-.76,1.27-.63,6.6,1.9,13.25,4.18,19.65,6.67,8.63,3.35,19.66,9.98,27.92,12.36Z"/>
        <path class="cls-60" d="M270.93,168.92c15.54,4.46,24.62,3.85,40.29,2.55.69-.06,2.36-.47,2.2.62-14.55,5.52-29.56,2-43.76-2.53-.5-.55-.08-.77,1.27-.63Z"/>
        <path class="cls-9" d="M123.14,141.65l1.9.63c-15.58,2.56-36.07,10.06-49.47,18.39-1,.5-1.23.37-.63-.63,14.51-9.45,31.17-15.35,48.2-18.39Z"/>
        <path class="cls-41" d="M88.89,252.01c1-.14,1.42.07,1.27.63-2.39.65-6.09,1.61-8.25,2.54-.59.25-1.21.44-1.79.73-.35.61.76,12.74,1.16,14.02.2.66,4.44,2.43,1.26,2.37-.94-.4-3.69.29-4.34-1.69l-1.31-15.38c4.02-.89,7.98-2.18,11.99-3.22Z"/>
        <path class="cls-31" d="M97.14,248.2l-1.61-.15c0-3.18-.32-6.3-.93-9.36-.04-.35-.89-1.09-.63-1.26,3.06.62,11.38,4.74,10.65,8.59-.2,1.06-6.15,1.93-7.48,2.19Z"/>
        <path class="cls-89" d="M202.42,178.43l2.54.63c-9.29,1.97-17.52,4.74-27.59,4.49l-15.54-3.22c1.2-.02,3.12.43,3.81-.63,14.79,2.21,22.06,2.19,36.79-1.27Z"/>
        <path class="cls-52" d="M214.48,248.84c.47,3.22-.69,7.76.28,10.82.46,1.44,2.05,2.3,2.79,3.56,2.14,3.65,4.11,7.44,5.81,11.32-.61,1-1.42-.14-1.89-.65-1.75-1.88-3.89-5.55-5.09-7.92-1.48.33-.22,3.48,0,4.43.11.95-.1,1.37-.63,1.27-1.89-6.92-4-16.48-1.9-23.47.96-.93,1.3-.59.63.63Z"/>
        <path class="cls-15" d="M132.65,158.14c-8.63,4.89-16.36,11.55-23.47,18.39-.89.84-1.22.49-.63-.63,7.27-8.31,13.15-12.97,22.83-18.39,1.3-.42,1.72-.21,1.27.63Z"/>
        <path class="cls-90" d="M91.43,276.11l1.62.58c1.67,3.83,2.18,8.07,1.55,12.74.63,1.2,1.05,2.68,1.27,4.44.11.1.99-.21,1.19.05.45.56-.14,3.93.07,5.03h-1.26c-2.8-6.53-4.84-15.76-5.71-22.83.26-1.74.59-1.55,1.27,0Z"/>
        <path class="cls-1" d="M192.91,243.76l.63,9.52c-.86-.14-4.24.2-4.45,0-.3-.3-.69-8.07-.55-8.47.54-1.62,3.12-.95,4.37-1.05Z"/>
        <path class="cls-141" d="M243.65,141.01c.53.56.11.78-1.27.63l-1.23.39c-7.01-2.06-14-3.45-20.97-4.19-1.97-.45-4.42-1.49-6.34-1.9,1.39-.09,2.58-.67,4.03-.59,6.75.39,18.92,3.78,25.78,5.67Z"/>
        <path class="cls-37" d="M242.38,141.65c2.12-.08,5.97.95,6.98,2.54l-.63.63c-9.38-2.79-19-4.82-28.54-6.98.62-1.19,2.22-.51,3.19-.35,6.05,1.02,13.03,2.65,19.01,4.16Z"/>
        <path class="cls-92" d="M216.38,270.4c1.55,6.51,4.38,13.63,8.9,18.69.43.48,2.53,2.96,3.15,2.24v-6.34c.34,2.16,2.02,6.12-.63,7.61-6.76-4.9-9.93-13.15-12.05-20.93l.63-1.27Z"/>
        <path class="cls-113" d="M161.83,238.06c2.07-1.91,2.86-.93,1.27,1.27.17.59-.04.81-.63.63-.45.4-.84.85-1.27,1.27-2.62-.15-5.29.15-7.92,0l-7.3-1.26c5.43.63,10.59-1.13,15.85-1.91Z"/>
        <path class="cls-107" d="M259.51,165.12c.88.64.67.85-.63.63-5.07-1.94-10.03-4.08-15.02-6.23l-4.64-2.64c2.81.44,5.58,1.82,8.22,2.87,4.01,1.6,8.07,3.91,12.07,5.37Z"/>
        <path class="cls-79" d="M203.69,219.66l-.63,1.27c-.12-.31-.85-.85-1.13-1.69-1.53-4.54-2.91-9.32-2.67-14.16,1.14.2,1.09,1.29,1.35,2.13,1.28,4.01,1.41,8.46,3.08,12.46Z"/>
        <path class="cls-10" d="M267.75,200.63c-1.59-.63-3.55.55-4.44.63-3.45.32-8.01-.24-11.44-.94-.68-.14-2.05-.04-1.88-.96,3.25.13,6.57-.21,9.82,0,2.61.17,5.55.81,7.93,1.26Z"/>
        <path class="cls-137" d="M94.6,246.94c1.37.2,1.59,1.58,0,1.9-.69.03-2.45.29-2.55-.37l.02-10.41,2.53,8.88Z"/>
        <path class="cls-95" d="M270.93,168.92l-1.27.63c-3.67-1.17-7.19-2.43-10.78-3.81l.63-.63c3.19,1.17,8.21,2.89,11.42,3.81Z"/>
        <path class="cls-35" d="M159.93,228.54c1.67.56,1.66.72,0,1.27.2.68,1.09,2.1.32,2.53l-6.03-6.97c2.73-.2,4.27.02,5.71,3.17Z"/>
        <path class="cls-37" d="M230.33,219.03c-1.13,1.54-2.44,5.07-3.18,6.97l-2.53-1.26c-.55-.19-.54-.4,0-.63,2.62-.06,2.57-6.45,5.71-5.07Z"/>
        <path class="cls-70" d="M132.02,176.53c3.46-1.38,6.62-4.07,10.78-3.16l-9.51,3.8-1.27-.63Z"/>
        <path class="cls-140" d="M239.85,168.92c2.85,1.72,6.86,2.9,8.88,5.7-3.71-.94-6.84-3.37-10.15-5.07l1.27-.63Z"/>
        <path class="cls-68" d="M220.82,227.91c.45-2.36,1.07-4.13,1.91-6.34,1.31-.13.17,1.73.75,2.44.24.3,1.04,0,1.14.09.08.07-.05.43,0,.63,0,.96-3.02,4.56-3.81,3.17Z"/>
        <path class="cls-39" d="M354.02,232.98c-2.13.09-1.97.27-4.44,0l3.18-.33c-1.02-2.99-1.43-6.25-2.55-9.19l.63-.63c1.12,3.36,2.22,6.74,3.17,10.15Z"/>
        <path class="cls-28" d="M243.65,141.01c3.82,1.05,7.58,2.47,11.42,3.48,1.33,1.43.33.92-.72.73-1.49-.27-3.59-.65-4.99-1.04-1.99-.55-4.86-2-6.98-2.54l1.27-.63Z"/>
        <path class="cls-81" d="M121.24,214.59c.84-.4,1.53-.82,2.54-.63.59.45-6.95,5.13-7.61,5.7-1.71-.95-1.57-1-.63-2.54,2.15-.1.55.75.36.42-.17-.29,4.2-4.33,5.35-2.96Z"/>
        <path class="cls-65" d="M139,153.7c1.21-.31,1.63-.1,1.27.63-2.45,1.37-5.18,2.43-7.61,3.81l-1.27-.63c2.8-1.57,4.62-2.54,7.61-3.81Z"/>
        <path class="cls-65" d="M159.93,228.54c.82,1.04,2.89-.21,3.17,0s.06,2,.16,2.22c.23.51.9-.15,1.12,1.59-1.98,3.57-2.39-1.38-4.44-2.54-.11-.37.12-1,0-1.27Z"/>
        <path class="cls-83" d="M166.27,197.46c-6.33.06-12.7-.04-19.03,0,5.26-.63,10.14-.7,15.55-.65,1.07.01,2.82-.41,3.48.65Z"/>
        <path class="cls-117" d="M88.89,252.01c3.31-.86,6.52-2.62,10.15-1.9l-6.34,2.24c-.77.42-1.88.11-2.54.29l-1.27-.63Z"/>
        <path class="cls-57" d="M274.1,200c1.37.61,3.21.87,3.81,2.53-2.93.42-5.48-.68-8.25-1.26l4.44-1.27Z"/>
        <path class="cls-10" d="M174.52,337c-.46.44-1.31.65-2.54.63-2.5-.79-3.91-3.32-5.71-2.54.26-.46-.03-1.53,1.27-1.9,1.44,1.7,5.02,2.81,6.98,3.81Z"/>
        <path class="cls-47" d="M161.83,309.73l8.88-4.43c-1.91,3.46-4.38,3.86-7.61,5.07-1.19.29-1.61.08-1.27-.63Z"/>
        <path class="cls-142" d="M121.24,214.59c-1.66.8-3.84,2.66-5.39,3.8l-.31-1.27c.84-1.37,2.63-3.24,3.81-4.44-.05,1.26.62,1.95,1.9,1.9Z"/>
        <path class="cls-122" d="M112.36,234.25c.44-.23,3.72-1.4,1.87.29l-7.91,5.41c-2.62-.83.85-1.81.96-1.9-.49-1.91,3.58-4.24,5.07-3.81Z"/>
        <path class="cls-110" d="M220.82,242.5c-3.01,1.13-4.63,3.88-6.34,6.34-.04-.3-.33-.57-.63-.63,1.16-3.86,3.16-4.65,6.34-6.34,1.03-.4,1.2-.37.63.63Z"/>
        <path class="cls-10" d="M217.65,238.06l2.53,1.26c-3.03.29-5.86,1.66-8.88.64,1.53-.31,4.67-1.36,6.34-1.9Z"/>
        <path class="cls-116" d="M112.36,234.25c-1.73.9-3.5,2.59-5.07,3.81-.39-.73-1.19-1.93-.2-2.54.87-.54,2.48-1.23,3.68-1.92,1.49-.87.52-.6,1.6.66Z"/>
        <polygon class="cls-26" points="290.58 225.38 285.52 226.64 287.41 225.06 284.25 222.21 290.58 225.38"/>
        <path class="cls-6" d="M92.06,269.14c-.3,1.95-.18,3.9.36,5.82l-.99,1.16h-1.27c-.44-3.6-.37-4.1,0-7.61.75-.33,1.66.61,1.9.63Z"/>
        <path class="cls-106" d="M344.49,210.78c-2.16-2.14-4.32-5.28-5.06-8.24,2.16,2.14,4.32,5.28,5.06,8.24Z"/>
        <path class="cls-74" d="M139,153.7c2.43-1.03,4.76-2.83,7.61-2.53l-6.34,3.16-1.27-.63Z"/>
        <path class="cls-85" d="M97.14,248.2c-.7.14-1.69.6-2.54.63.09-.59-.13-1.38,0-1.9.66-2.68.34-5.31,0-8.25,1.89,2.53,0,7.57,2.54,9.51Z"/>
        <path class="cls-83" d="M170.71,196.83c.47.11,6.81,1.11,5.07,2.53-.33.27-7.05-1.73-8.24-1.9,1.02-.02,2.64.38,3.17-.63Z"/>
        <path class="cls-34" d="M109.19,176.53c-1.63,1.57-3.23,4.66-5.71,5.07,1.26-2.16,3.53-3.93,5.07-5.7l.63.63Z"/>
        <path class="cls-89" d="M161.2,180.34c-4.22.04-8.47-.03-12.69,0,.38-.06.96-.57,2.15-.68,2.99-.27,7.71-.24,10.54.68Z"/>
        <path class="cls-102" d="M294.39,224.1c1.07.67,1.97,1.38,2.54,2.54-.1-.02-.66.51-1.31.33-.96-.27-4.5-3.3-3.75-4.13.98,1.42,2.4,1.18,2.53,1.27Z"/>
        <path class="cls-72" d="M206.86,195.56c-2.5.88-4.85,2.4-7.61,2.53l5.7-3.17,1.9.63Z"/>
        <path class="cls-49" d="M220.18,241.86c2.15-1.14,4.35-2.51,6.97-2.53l-6.34,3.17-.63-.63Z"/>
        <path class="cls-108" d="M161.83,309.73l1.27.63c-1.71.64-5.34,3.11-6.34.64,1.79.08,3.46-.67,5.07-1.27Z"/>
        <path class="cls-45" d="M173.25,319.88l-.63,1.58-1.27-7.29c.43-.2.84-.43,1.27-.63-.07,2.44.06,3.98.63,6.34Z"/>
        <path class="cls-22" d="M220.82,232.35c-2.16-1.6-2.14-2.21-1.9-5.07l1.9,1.27c-.17,1.35-.45,2.39,0,3.81Z"/>
        <path class="cls-112" d="M164.37,234.88c.11,1.44-.58,2.2,1.27,1.9,1.31,1.55-.85,3.49-2.54,2.54.15-1.31.07-1.47-1.27-1.27l2.54-3.17Z"/>
        <path class="cls-27" d="M197.98,457.51c2.25-1.23-2.62-4.34-.31-5.07.22-.07,1.52,3.07,2.52,3.01.83-.05,1.36-2.19,3.49.15l-1.26-3.81c1.88.37,2.21,2.03,3.49,3.16.38.05.28-.6.31-.62.15-.1.54.11.63,0l.31,2.54-2.21-1.27v1.9s-2.54-1.26-2.54-1.26l.63,1.89c-1.15.59-2.71-1.25-2.86-1.24-.44.03-.94,1.76-1.58,1.88-1.02-.36-1.68-.61-.63-1.27Z"/>
        <path class="cls-120" d="M197.98,457.51c.25.23.39.93.63,1.27-.46.09-4.11-.57-5.07-.63-.93,1.89.45,2.11.63,3.8-1.51-.13-2.55-1.55-2.61.55-.51.28-.52-.54-.55-.55l-1.26-5.07,2.85,1.9c.69-1.15-1.15-2.2.65-3.17,1.47,1.03,3.37.64,4.74,1.91Z"/>
        <path class="cls-56" d="M180.86,458.15c-3.07.71.79,2.21-3.81,1.27l-.63-4.44c2.34.72,2.93,1.74,4.43,3.17Z"/>
        <path class="cls-9" d="M187.2,459.42c-.59,2.39-3.84.5-3.81-1.27,2.65-1.14,2.59.15,3.81,1.27Z"/>
        <path class="cls-54" d="M148.51,436.58l-1.26-.63v1.9c-.61-1.59-1.81-2.89-1.27-5.07,1.62.62,1.87,2.64,2.53,3.81Z"/>
        <path class="cls-14" d="M292.49,275.48c.13-.31.28-.59.52-.74.45-.29,8.98,3.08,10.03,3.62,1.4-.17,1.69.98.87,3.47-1.09,2.88-3.2,6.1-5.75,7.89-5.56,3.91-23.52,7.46-30.4,7.33-3.62-.06-4.53,0-6.24-3.59s-1.36-7.34-2.01-10.99l.92-.67c6.08,1.31,12.13.35,18.11-.6,1.51-.99,3.2-2.05,5.07-3.17-.53-1.63.03-1.78,1.27-.63,2.94-.97,4.22-2.18,7.61-1.9Z"/>
        <path class="cls-59" d="M358.46,236.15c.27.27.45,6.53.63,7.61l-36.76,3.15-1.29-15.2,37.42,4.44Z"/>
        <path class="cls-100" d="M381.29,178.43c.51,1.21.9,4.99-.63,5.07-5.36-33.43-16.25-49.51-29.81-78.65-.5-1.35-.28-1.77.63-1.27,14.99,24.51,29.04,44.37,29.81,74.84Z"/>
        <path class="cls-58" d="M272.19,300.21c-.48.89-2.08.05-1.59,1.27,1.33,3.31,7.94,4.86,11.1,5.71-1.89.09-3.81-.07-5.71,0-.13.47-.35.44-.63,0-5.22-1.31-10.68-1.26-15.99-2.09-3.99-.62-9.07-1.44-12.55-3.31,8.54-.24,16.89-.45,25.37-1.58Z"/>
        <path class="cls-14" d="M291.22,273.58c2.39-1.92,6.15-6.18,9.21-6.39,5.76-.39,4.7,1.4,4.75,5.75.01,1.23.11,2.61,0,3.81l-1.08,2.4c-4.39-1.93-8.68-3.79-12.88-5.57Z"/>
        <path class="cls-88" d="M352.75,252.01c-.34-1.47-.86-2.87-.63-4.44l2.21,4.44c1.09-4.12-1.43-4.22,2.85-4.45,2.26.37,2.17,5.32.35,6.2l.29,2.05c.78,1.07,1.38,4.97-.55,4.06-1.54,3.56-2.91.02-3.25-2.15-.03-.21.03-.43,0-.63-2.09-.47-2.49-3.62-1.27-5.07Z"/>
        <path class="cls-125" d="M355.28,222.83c.03-.42-.03-.85,0-1.27l1.26.64-.62-7.61c1.17-.12.97,2.24,1.27,2.53,1.38,1.3,1.03-2.02,1.9-.96.51.79,1.05,1.97,1.26,2.86.02.08-.45.7-.3,1.32,1.14,4.57,3.08,9.11,2.83,13.9-1.92.31-1.01-.49-1.28-1.54-1.18-4.61-2.62-9.08-3.8-13.67-1.08-.12-.69,2.18-.66,2.88.06,1.45.29,2.71.66,4.09l-2.53-3.17Z"/>
        <path class="cls-103" d="M315.32,236.79c-.01-2.53,0-5.08,0-7.61,1.57-.11,1.1-.16,1.25.96.19,1.39.45,2.33.65,3.48.83,4.75.63,9.79,1.27,14.59h-2.53c-.44-3.82-.62-7.56-.64-11.42Z"/>
        <path d="M263.31,298.32c.15,4.61-7.38,2.07-10.46,2.03-1.9-.03-4.47,1.04-6.66.5.18-.73,3.02-1.79,3.52-1.86,3.3-.47,8.03.88,10.03.63.21-.03,1.09-2.39,3.57-1.29Z"/>
        <path class="cls-67" d="M360.99,256.45c-1.45,4.32-2.51,4.1-3.17-.63-1.4-2.23.45-5.42-.63-8.25.24-.01.66-.64,1.28-.32,2.16,1.14,2.7,6.93,2.53,9.2Z"/>
        <path class="cls-53" d="M357.82,255.82c.07-.78-.52-2.65.63-2.53l.65,5.7,1.9-2.53c-.23,3.14-2.24,5-2.55,8.24l-.63-4.43-2.52,3.8c.64-1.54-1.17-1.99-1.25-2.35-.29-1.24.16-2.73-.02-3.99l2.53,3.17c-.63-1.4,1.03-1.99,1.06-2.1.39-1.17.11-1.92.21-2.97Z"/>
        <path class="cls-13" d="M291.22,273.58c4.12.46,8.23,3.28,12.04,4.2,1.48.36,1.16.11,1.91-1.03-.17,1.92-.59,3.29-1.27,5.07-.07-1.23.6-2-.79-2.72-1.87-.97-8.67-3.46-10.63-3.62l-.42-.51-2.74-.13c-.25-.96,1.2-.7,1.9-1.26Z"/>
        <path class="cls-30" d="M354.02,257.08l-1.9,3.8c.04-2.12-2.5-8.44-.32-9.51.49-.24.11,2.39.95.63.39,1.7.96,3.13,1.27,5.07Z"/>
        <path class="cls-127" d="M305.81,252.64c.02.14.58.68.66,1.53.33,3.33,1.13,10-3.21,9.57,1.87.91,2.42-.71,2.54,1.59l-10.15-2.22c0-1.31,9.03.12,10.16-.31v-10.15Z"/>
        <path class="cls-133" d="M364.16,222.2l-1.26,2.53c-.48-2.15-1.76-3.35-1.91-5.7-.04-.63.02-1.27,0-1.9.54-.67,2.89,4.48,3.17,5.07Z"/>
        <path d="M275.37,307.19c.21-.01.42,0,.63,0,.26,1.64-5.5,3.59-5.06,1.6.53-2.42,2.45-1.5,4.43-1.6Z"/>
        <path class="cls-24" d="M381.92,184.14c.84,2.73.62,4.42-.63,5.07-.03-1.9-.33-3.84-.63-5.71,1.09-1.02.67-3.52.63-5.07h.63c-.03,1.9.02,3.81,0,5.71Z"/>
        <path class="cls-120" d="M381.92,184.14c1.44,2.95.27,6.94.63,10.15l-1.26-5.07c1.13-1.05.62-3.49.63-5.07Z"/>
        <path class="cls-4" d="M348.31,100.42c2.43-.7,2.32,1.78,3.17,3.17l-.63,1.27c-.43-.92-2.62-3.56-2.54-4.44Z"/>
        <path class="cls-126" d="M196.72,66.8c1.17-1.51,1.91-4.19.32-5.71-2.79-2.67-13.82-.09-17.44.96-3.31.96-14.28,5.09-15.56,7.95-.84,1.88,2.12,6.73-3.64,5.57-4.3-.87-1.96-5.18-.17-7.51,7.15-9.29,28.83-14.33,40-13.33,3.24.29,7.8,1.53,7.95,5.43.35,9.78-24.1,16.78-24.13,18.38,5,2.94,12.75,3.17,16.13,8.59,6.92,11.11-15.13,23.84-24.05,22.16-1.77-.34-3.07-2.94-2.24-3.79.2-.21,4.12-.32,5.71-.64,1.91-.93,3.85-1.6,5.91-2.17.38-1.43,1.37-1.97,2.97-1.64,2.71-1.91,6.15-3.8,4.95-7.79-1.43-4.79-17.11-7.51-21.66-6.83-4.26,8.03-4.66,20.13-14.19,24-8.77,3.56-16.25-.97-6.85-7.49l.32,3.82c6.47.94,7.19-1.8,9.37-6.81,3.96-9.08,6.33-21.5,10.61-29.98,1.62-3.2,4.44-4.41,7.93-4.43.5.45-3.67,10.03-3.98,11.57-.12.58-.64,1.66.49,1.73,1.45.09,12.19-6.32,14.28-7.59.04-1.03,1.07-1.91,3.11-2.63,1.29-1.24,2.58-1.85,3.87-1.81Z"/>
        <path class="cls-1" d="M187.84,99.15c-.81,2.09-1.87,2.73-3.17,1.9-1.04.58-2.46,1.15-3.17-.33-.5-1.05,1.05-.85,1.22-1.41.71-2.27.93-5.38,1.31-7.78,6.05.38,9.56,2.91,3.8,7.61Z"/>
        <path class="cls-103" d="M163.74,123.88c1.75-4.81,2.75-10.53,6.97-13.95-1.06,2.58-1.62,11.72-2.83,13.33-.81,1.07-2.89.53-4.13.62Z"/>
        <path class="cls-128" d="M195.45,64.27c.91,3.38-6,7.57-8.25,5.07,1.82-5.82,1.92-5.86,8.25-5.07Z"/>
        <path class="cls-69" d="M195.45,64.27c1.76.53-1.39,3.09,1.27,2.54-1.41,1.82-5.02,3.25-6.98,4.44l-.42-.51-2.74-.13c-.32-1,.6-1.17.63-1.26,2.32,1.19,7.78-2.65,8.25-5.07Z"/>
        <path class="cls-138" d="M179.59,49.68c.22-.67,2.59-10.75,4.44-8.87-1.43,3.73-2.68,7.58-3.81,11.41l-.63-2.54Z"/>
        <path class="cls-89" d="M187.84,99.15c-.93,1.32-1.12,2.2.63,1.9-3.56,2.51-4.54,2.94-8.88,3.81,1.03-.15,1.86-1.62,2.41-1.84,1.01-.42,5.97-.07,2.67-1.96.4-.22,3.02-1.78,3.17-1.9Z"/>
        <path class="cls-52" d="M147.24,61.1c-1.6,1.93-4.45,3.68-6.98,3.79,1.6-1.93,4.45-3.68,6.98-3.79Z"/>
        <path class="cls-101" d="M251.03,44.05c1.21-.37,5.99-.23,7.38.06,2.09.43,9.09,4.92,4.03,4.88-1.74-.02-12.43-2.77-12.44-4.07,0-.15.71-.77,1.02-.87Z"/>
        <path d="M199.89,340.17c1.51-.5,7.65-5.07,7.6-6.03-.03-.65-2.7-.35-1.77-3.03,1.54-4.42,16.71-10.04,20.19-6.5,4.69,4.76-7.01,7.64-7,8.27.03,1.89,3.32,1.43,3.67,3.3.57,8.62,5.12,16.32,3.78,25.08-.09.56-.28,1.91-1.1,1.74-.23-1.53-.34-3.85-1.9-4.44l-.32,1.9c-1.13-3.28-2.72-4.18-4.76-6.34-6.07-6.45-8.07-7.48-16.49-10.15-2.75,1.34-4.47.08-6.34-1.9-.91-.27-2.11-.33-3.17-.63v-.93s7.61-.34,7.61-.34Z"/>
        <path class="cls-25" d="M271.56,387.11c.75.7.75,3.11-.63,1.9l-1.42-.16c-3.71-9.95-8.62-12.02-18.53-9.41-11.57-.66-23.11-1.69-34.6-3.11-4.55.88-9.93,3.56-14.29,3.82-4,.24-7.65-1.76-12.66-1.27-5.51.54-30.7,10.77-34.57,14.58-3.4,2.54-2.42-1.6-1.3-4.15,2.15-4.9,6.03-9.86,10.82-12.34,3.03-.19,1.56,1.56,3.14,3.38.53.61,1.1.31,1.3.42.65.37.63,1.12,1.95.98,2.45-.26,7.24-2.83,10.33-3.6,9.04-2.26,10.29-1.35,18.64-.06,5.66.88,9.94-3.11,15.06-3.66,10.16-1.1,23.66.15,34.28.03,5.15-.06,20.6-3.06,21.82,4.77.4,2.58.19,4.98.67,7.89Z"/>
        <path class="cls-43" d="M270.93,389.01c1.11-.37,1.46,1.16.63,1.9-5.43-2.76-12.14-5.79-18.24-6.82-9.03-1.51-20.91.88-28.85-2.87-2.88-1.36-4.9-4.54-8.1-4.9,8.57-1.65,22.76,1.68,32,1.93,7.93.21,12.9-4.36,18.74,3.47,1.33,1.79,2.8,5.16,3.81,7.29Z"/>
        <path class="cls-3" d="M204.33,391.55c4.23-.93,20.09-1.87,21.66,2.53.38,1.08-1.03,1.28-2,1.28-.81,1.55-1.59.65-1.9-.63-1.93-.07-5.13-.62-6.97-1.26-.27-.09,5.42.69,5.07,1.9,1.81-.25,2.65.17,2.54,1.27-1.65.64-1.78,1.43-1.13,2.97-3.66.35-7.43.46-11.33.34-2.75.46-5.48.84-8.18,1.14l-.5-.68c-2.51.12-4.97-.5-7.4-1.87-1.19-.22-4.53-1.23-3.19-2.88l6.36-2.83c2.14-.45,4.87-1.12,6.98-1.27Z"/>
        <path class="cls-8" d="M232.24,389.01c3,.25,7.09,3.06,8.9,5.37,1.64,2.1-.18,1.36-1.51,2.32s-2.25,2.31-3.77,3.23c-4.02,2.42-10.67,5.07-15.04,2.4-.27-1,1.44-.62,1.35-.63-4.58-.25-6.84-1.98-1.01-2.08l.32-1.05c-1.88-.69-.21-1.64,1.25-1.94l-2.54-1.27c-.37-.66.27-.87,1.9-.63.68.18,1.27.45,1.9.63,2.3-.23,3.9-1.37,4.79-3.4l1.55.23c1.55-.41,3.94,1.44,5.07,2.54.18.17-4.18-2.52-3.17-3.17.14-.85.14-1.7,0-2.54Z"/>
        <path class="cls-70" d="M185.94,416.92c-.95-1.03,3.14-3.61,3.85-4.07,13.76-8.87,33.67-7.72,45.62,3.75.9.86,4.42,4.9,4.42,5.72,0,.43-.71,1.19-1.53.28-2-2.21-3.72-4.71-6.06-6.63-13.16-10.85-33.28-9.3-46.3.96Z"/>
        <path class="cls-43" d="M232.24,389.01c2.97,1.28,2.61,1.33,0,2.54.19.74-.44.96-1.9.63-2.44,2.1-1.1,4.71-6.34,3.17l1.26-.94c-5.97-3.46-14.17-3.36-20.92-2.87,3.18-1.5,7.17-.94,10.46-1.27,5.99-.61,11.24-1.77,17.45-1.26Z"/>
        <path class="cls-43" d="M222.72,396.62l-1.26,1.26c6.44,3.73-.26,1.45-3.17,2.55l4.43.63c.34,1.88-.7,1.17-1.9,1.27-1.42.11-3,.02-4.44,0,1.03-.69-.03-1.08-3.2-1.17l-.61-.73c-3.57.77-7.17,1.61-10.78,2.54-.43.18-.84.44-1.27.63l-.82-.05c-6.16.07-8-1.39-5.53-4.39-.58-.06-.55-.28,0-.63,2.64-1.98,3.25.54,3.6.62,1.5.36,3.66-.22,5.28.02l-.64,1.26c6.3-.91,12.59-1.65,19.03-1.27l-8.24-2.52h9.51Z"/>
        <path class="cls-14" d="M175.79,326.85c1.04,1.86,2.69,2.53,3.81,3.81,1.64,1.87,3.43,4.75,5.71,6.34.84.83.48,1.06-.63.63-2.38-1.21-7.88,1.52-12.69,0,.45-.97,1.71-.59,2.54-.63,1.33-.08,3.26.45,3.8-1.26-2.05-.26-7.49-5.44-6.97-7.28l4.44-1.61Z"/>
        <path class="cls-105" d="M137.09,411.85c.3,1.21.09,1.64-.63,1.27-4.38-9.07-8.76-18.83-8.24-29.17,1.02-.1,1.46-.14,2.22.63.85.87,2.41,12.67,3.04,15.35.89,3.78,2.32,8.25,3.62,11.92Z"/>
        <path class="cls-43" d="M164.37,376.96c-3.9,4.29-8.57,9.01-10.35,14.71-.37,1.2-1.15,2.03.83,1.78-.75.74-2,4.65-4.44,4.44-1-7.03,6.67-20.47,13.95-20.93Z"/>
        <path class="cls-59" d="M199.25,360.47c-2.12,1.82-2.68,3.15-4.43,5.07-.33-4.42.39-8.73,1.21-13.05.2-1.09-.17-2.37,1.32-2.8,1.72-.12,3.27,8.87,3.09,9.45l-1.19,1.33Z"/>
        <path class="cls-76" d="M273.46,354.76c4.34,4.53,7.53,5.14,8.88,12.05.42,2.55.45,5.07.09,7.55l-.73.06c-.97-8.53-4.18-12.91-9.51-19.03-.71-1.67-.02-1.63,1.27-.63Z"/>
        <path class="cls-52" d="M201.79,343.98c-1.94-.66-.59,2.68-1.27,4.44-.45,2.73.42,8.11,1.27,9.51-.21,1.98-1.2,1.39-2.54,2.54,1.28-3.53-1.1-7.32-1.9-10.78-.66-2.83.08-6.34-1.9-7.61,2.14.64,4.2,1.22,6.34,1.9Z"/>
        <path class="cls-127" d="M262.05,342.08c3.69,4.35,7.44,8.53,11.42,12.69l-1.27.63c-4.76-5.45-9.73-11.21-14.59-16.49-.84-.89-.49-1.22.63-.63.9,1.11,2.86,2.69,3.81,3.81Z"/>
        <path class="cls-43" d="M187.84,396.62c1.07-.35,3.04-.35,3.35.79,1.38-.39,2.37.2,2.99,1.75.03.48.48,3.69.64,3.8,1.01.7,5.99-2.36,5.7.64-4.36,1.96-2.69.21-3.58,0-2.52-.6-6.11.11-7.84-3.16l1.91-1.27-3.8-1.29c-.33-1.17.3-.94.63-1.26Z"/>
        <path class="cls-43" d="M197.35,392.82l-6.34,4.13,4.44-.95c-.12.85-1.27,1.26-1.62,1.92-.28.52.35.56.35.61.02.21-.01.42,0,.63-1.66.69-1.89-1-2.22-1.12-.89-.32-3.26.3-4.13-1.42,2.92-2.88,5.79-3.02,9.51-3.81Z"/>
        <path class="cls-64" d="M272.19,387.11c.21,4.42,4.22,9.89,4.43,14.59-2.43-2.79-3.46-7.23-5.07-10.78-.3-.66-.4-1.4-.63-1.9.77-.1.73-1.33.63-1.9h.63Z"/>
        <path class="cls-54" d="M199.89,340.17c-2.98.98-5.14.06-7.61,1.27-3.98-1.13-4.72-2.33-7.61-3.81l.63-.63c4.08,2.85,9.74,3.53,14.59,3.17Z"/>
        <path class="cls-121" d="M212.57,400.43c1.04.56.61.99-1.27,1.27l-9.51,1.27c4.65-1.97,5.23-2.73,10.78-2.54Z"/>
        <path class="cls-36" d="M200.52,348.42c.62,2.47,1.52,7.06,1.27,9.51-2,.36-1.08-.99-1.28-2.17-.56-3.27-1.41-6.54-1.25-9.87.64-.14,1.14,2.03,1.26,2.53Z"/>
        <path class="cls-50" d="M137.09,411.85c.67,1.88,2.81,4.43,2.53,6.98-1.97-1.06-2.32-3.96-3.16-5.71l.63-1.27Z"/>
        <path class="cls-81" d="M282.34,378.23c-1.74.75-.85-2.01-.63-3.81.02-.15.58-.71.66-1.53.19-1.95-.17-4.1-.03-6.08.77,3.94,1.06,7.37,0,11.42Z"/>
        <path class="cls-17" d="M212.57,400.43c1.77.06,3.36.27,5.07.64v.62s-1.26.64-1.26.64c-1.8-.03-3.33-.68-5.07-.63l1.27-1.27Z"/>
        <path d="M230.33,130.23c2.81.65,14.89,4.61,16.52,3.51,1.13-.76,7.39-21.66,9.37-25.51,6.95-13.5,14.84-13.79,26.98-19.96,11.31-5.74,22.53-12.11,31.51-21.19l1.87.35c1.02-1.11-9.38-11.85-10.77-13.01,2.42-.05,6.72,2.2,9.07,3.62,8.35,5.06,14.71,16.69,17.1,26.03,4.65,18.13-4.14,39.41.92,56.79.43,1.47,2.72,5.43,2.72,6.16v23.79c-2.86.05-5.73-1.85-8.25-3.17l-.48-1.16c.72-10.15.66-20.34-.15-30.55-1.3-1.36-3.02-4.82-2.54-6.66-.96-3.68-.96-7.81,0-12.37-1.62,7.52-.43,13.34,1.9,20.3,1.3,1.4,1.71,6.18,0,7.29,1.75-.07,1.24,8.8.85,9.11-.24.19-.54.31-.85.41.3-.07.59-.1.86-.05.96.2.74,11.49.02,12.22-.17.18-.5.21-.87.19-12.84-6.36-27.41-9.62-40.76-14.74-10.11-3.88-19.7-8.94-29.95-12.55-7.87-2.77-18.64-4.5-25.7-7.6-4.23-.89-2.99-1.99.63-1.27Z"/>
        <path class="cls-119" d="M327.38,167.65c-.72-.38-1.14-1.21-1.27-1.27,1.03-2.79.81-6.9.68-9.88-.05-1.09-.68-2.23-.68-2.49v-9.51c0-2.48.99-3.81,0-7.29-.17-1.03.05-1.46.63-1.27,2.05,7.15,1.72,20.49,1.29,28.26-.07,1.2-.3,2.33-.66,3.46Z"/>
        <path class="cls-144" d="M214.48,127.69c5.49.07,10.58,1.32,15.86,2.54-1.08.14-2.76-.51-2.53.63.77-.13,1.28.37,1.9.64-6.34-.93-12.65-2.52-19.03-3.17.35-1.18,1.61-1.4,3.81-.63Z"/>
        <path class="cls-82" d="M207.5,127.06c-1.88.32-4,.53-6.34.63-2.4-.14-4.89.2-7.29,0-.77-.07-3.39-.24-3.49-1.25,5.57.38,11.74-.82,17.12.63Z"/>
        <path class="cls-97" d="M207.5,127.06c2.18,0,5.31-.52,6.98.63-1.31-.02-2.71-.33-3.81.63-3.14-.32-6.36-.45-9.51-.63,1.46-1.15,4.36-.63,6.34-.63Z"/>
        <path class="cls-53" d="M193.54,51.58c-1.26-.15-.6-3.16-.46-3.95.28-1.58.97-4.63,2.36-5.55l-1.9,9.51Z"/>
        <path class="cls-23" d="M188.31,196.36c2.21,2.31-1.4,13.64-.55,17.2l-1.19,4.83c.8-4.48-4.71-20.04-.65-22.56.66-.41,1.92.04,2.39.53Z"/>
        <path class="cls-145" d="M172.61,224.74c-.06,6.31-.94,18.43-10.15,15.22.22-.2.42-.43.63-.63,1.05-.98,1.55-1.27,2.54-2.54,3.97-5.12,5.61-10.09,6.34-16.49,1.21.34,1.42,1.82.63,4.44Z"/>
        <path class="cls-50" d="M171.98,220.3c.06-.53-.4-7.27,1.27-5.07-.36,2.99.8,6.78-.63,9.51.01-1.5.39-3.24-.63-4.44Z"/>
        <path class="cls-73" d="M258.24,338.27l-.63.63c-5.32-5.78-10.7-11.68-17.45-15.85-.57,3.84-3.36,8.56-6.66,10.78-1.32.49-1.74.28-1.27-.63,3.66-2.42,4.32-9,3.82-13.02-.62-5-7.73-13.35-13.33-12.98l.63,5.07c-.94,1.08-3.43-4.34-6.81-2.71-2.82,1.36-.77,4.34-1.13,6.53-8.34-5.53-2.95-15.75,6.82-14.43,7.93,1.08,9.51,6.41,14.11,11.26,8.67,9.14,14.07,15.73,21.89,25.36Z"/>
        <path class="cls-94" d="M189.18,336.3c-2.19-3.36,9.01-4.57,8.67-.24-.2,2.6-7.84,1.51-8.67.24Z"/>
        <path class="cls-96" d="M235.4,371.25c-2.91-.79-7.56-.6-8.24-4.43,1.02-.86,9.54,3.2,8.24,4.43Z"/>
        <path class="cls-70" d="M232.24,333.2l1.27.63c-2.8,1.89-4.85,2.19-8.25,1.9,1.35-1.96,4.94-1.19,6.98-2.53Z"/>
        <path class="cls-20" d="M163.73,258.99c1.99.67,3.9,2.36,5.71,5.07.25.53,1.41,3.66,1.26,3.8-.9.11-1.72-.54-2.53-.63-.15,1.26-.78,1.2-1.27,0-.84.38-1.47.38-1.9,0-1.04.15-1.46-.06-1.27-.63,2.05-1.3-3.55-4.51-3.88-4.4-.25,2.98-1.28,4.65-3.1,5.04,1.01.93.37,1.78-1.9,2.54.18.6-.03.81-.63.63-.63-.08-2.28.65-3.46.66-7,.08-13.94.19-20.92.56-.57,4.16-3.57,1.04-6.07,2.58-.11,1.42-.94,3.39-2.54,2.54l-6.34,1.26,1.9-1.27c.18-.77-.67-.82-1.24-.96-1.77-.43-14.71-2.11-15.25-1.57.44,8.76-1.01,17.32,0,26-.92.17-.82-1.2-.96-1.88-.99-4.83-1.03-9.94-2.84-14.61l-.69-.21-.44,6.17-.77-.25c-.8-3.02-.61-6.75-1.42-9.68-.35-1.26-1.28-2.16-1.75-3.64-.6-1.9-1.76-7.49.63-6.98,3.62.4,7.96.19,11.66.71,5.08.72,10,2.64,15.17,2.46.4-.63,1.41-1.45,1.72-1.91.94-.18,1.78-.18,2.54,0,3.44-6.84,10.67-13,18.39-14.59.04-1.82,3.17-2.38,3.81-.63,7.99-.79,11.5-1.17,18.39,3.81Z"/>
        <path class="cls-61" d="M172.61,278.65c-.9,1.7-3.67,4.75-5.07,6.34-.93.05-1.57-.58-1.9-1.9-.82.08-1.63.76-2.53.63-.22-1.09.72-1.61,1.26-2.53-.89-.48-1.32-1.12-1.27-1.9.42-.57.44-1.26.63-1.9-1.51-.6-1.41-1.88,0-2.54-1.35-1.13-1.47-3.58.63-3.17-.05-1.08,2.19-1.37,3.17-1.27,1.38-.26,6.07,1.52,6.71,2.53.47.74-1.13,4.76-1.63,5.71Z"/>
        <path class="cls-86" d="M163.73,274.84c-.05.27.51.8,0,2.54-4.36.75-8.42,3.68-12.7,5.38-8.08,3.21-17.32,5.58-25.99,6.03.24-1.27,1.34-1.04,2.22-1.26,13.9-3.54,21.82-4.34,34.57-12.05-.29-1.85.63-2.01,1.9-.63Z"/>
        <path class="cls-18" d="M163.1,279.28l1.91.64c.12.11-.47.98-.64,1.26-4.01,1.23-7.24,4.52-10.99,6.46-6.11,3.15-13.86,5.79-20.72,6.23-.32-1.93.49-1.01,1.54-1.28,10.98-2.83,20.11-5.7,28.9-13.31Z"/>
        <path class="cls-79" d="M149.78,300.85c1.26-.35,1.68-.14,1.27.63-6.63,2.81-19.34,4.09-25.82.77-1.36-.7-2.1-2.07-3.36-2.67-.84-.82-.49-.97.63-.63,8.94,4.46,17.54,5.46,27.27,1.9Z"/>
        <path class="cls-43" d="M159.93,269.14l2.61-.54c.07,1,.68,2.02,1.83,3.08.07.11-1.31,1.49.63,1.58-.39.44-1.17,1.05-1.27,1.59-.67.1-1.32.28-1.9.63-.88-.95-2.33-.67-3.41-1.35-1.22-.76-3.27-3.61-4.2-3.73.18-.23.47-.41.63-.63,1.41-1.41,3.68-2.12,5.07-.63Z"/>
        <path class="cls-48" d="M123.78,274.21c1.36,3.2-2.26,5.68-5.07,5.7.34-1.18,1.89-1.38,2.62-2.23.49-.57-.11-.91-.08-.94.56-.59,2.05-2.24,2.54-2.54Z"/>
        <path class="cls-81" d="M165.64,283.09c1.75-.17,1,.75,1.9,1.9-1.57,1.79-3.01,3.77-5.07,5.07.66-2.49,3.41-4.03,3.17-6.98Z"/>
        <path class="cls-123" d="M122.51,298.95l-.63.63c-2-.94-5.65-.47-6.98-2.53,3.36-.61,4.97.58,7.61,1.9Z"/>
        <path class="cls-40" d="M96.5,283.72c-1.43,2.86-.28,6.92-.63,10.15-1.12-1.03-1.31-2.97-1.27-4.44,0-.06.58.06.62-.94.07-2.22,0-4.45.03-6.67,1.16.16.98,1.17,1.26,1.9Z"/>
        <path class="cls-45" d="M149.78,300.85c1.04-.38,5.98-3.47,6.34-3.17,1.1.94-.84,1.39-1.19,1.64-1.2.85-2.53,1.59-3.88,2.16l-1.27-.63Z"/>
        <path class="cls-20" d="M246.82,247.57c7.62-4.38,12.01-6.37,20.9-3.46,5.07,1.66,10.05,5.43,15.25,6.62-1.44-1.4-3.67-4.64-5.07-5.7-.84-.89-.49-1.22.63-.63,2.68,1.92,4.47,3.61,6.98,5.71,1.58-.29,5.41,3.48,6.83,5.07l.15,1.28c1.78,1.74.04,1.94-1.9,1.27-1.23-.23-3.74-.74-4.79-.71-1.29.04-.68,1.88-1.86,1.34-.58-.26-1.04-1.47-2.04-1.77-3.78-1.13-10.76,1.33-14.78,1.77-2.5,2.39-9.99,1.99-12.69,0-1.77-.24-2.19-.88-1.27-1.9-2.73.44-3.53-3.99-3.83-6.25-1.44.73-2.7.91-3.78.54-3.03,1.33-2-.77.19-1.98l1.08-1.19Z"/>
        <path class="cls-14" d="M254.43,258.35c4.12-.12,8.07.51,12.69,0,3.27-.48.81,1.12,1.38,3.32.98,3.76,3.27,3.91,6.23,5.55.41.95-.4.92-1.27.63l-.53.95c-3.55.25-2.73.35,2.44.32.99-.33,2.18-.42,3.55-.27,3.57-1.29,4.71-.99,3.42.9-.76,2.73-6.47,4.13-9.29,4.51-7.37,1.01-16.87.81-23.05-3.24-1.61,0-4.53-1.78-5.07-3.17l3.17-8.88c.89-1.28,5.09-1.86,6.34-.63Z"/>
        <path class="cls-14" d="M251.26,272.94l.97-.4c8.75,2.72,18.56,3.37,27.18-.09l1.03.49c1.31,2.43,3.98,2.04,6.34,2.54l-1.9,1.9c-.43.14-.83.49-1.27.63-1.71,1.38-4.15,2.81-6.34,2.54-8.82,3.94-21.09,1.71-28.54-4.44-2.09-2.14-.24-4.7,2.54-3.17Z"/>
        <path class="cls-25" d="M238.58,264.06c.41,1.02.41,1.86,0,2.54,3.48,2.39,6.81,5.02,9.98,7.88l.17,1.63c.88.91.53,1.08-.63.63-.61-.32-4.87-2.07-5.07-1.9.24,1.36,1.34,1.87,2.09,2.67.47.49,2.16,1.08.15,1.12-2.86-.51-18.54-11.59-15.56-14.58,5.21-.38,3.97-2.76,8.88,0Z"/>
        <path class="cls-51" d="M274.73,267.23c1.86-.7,3.28-1.17,5.02-2.27,1.56-.99,6.91-5.96,7.86-5.87,6.53.63.61,8.44-2.1,10.68-1.09.59-1.75.66-1.27-.63l-1.24-.78c-2.58.46-5.12.5-7.63.15-.92.65-2.6.71-1.9-.63.59-.19.93-.51,1.27-.63Z"/>
        <path class="cls-86" d="M285.51,269.77c-1.57,1.3-3.21,2.36-5.07,3.17-8.62,3.73-20.46,3.39-29.18,0-1.9.56-2.53.13-1.9-1.27-.84-.84-.48-1.1.63-.63,7.73,2.92,19.24,4.12,27.16,1.47,1.8-.6,3.35-2.05,5.19-2.74-.67-1.55,1.04-2.01,1.9-.63.08,0,.82.71,1.27.63Z"/>
        <path class="cls-32" d="M246.82,247.57c-.3,1.59-1.35,2-2.53,2.86l1.27.31c-.15,1.72-1.31,3.37-3.48,4.96,1.92.11,3.3.78,4.11,2.02,1.68.2,1.61.79,0,1.27-1.48.02-2.96-.03-4.44,0-2.47,1.26-3.95,1.05-4.44-.63-1.42.03-3.57,1.06-4.76,1.9-.43.14-.46-.6-.31-.94,1.24-2.74,11.58-10.02,14.58-11.74Z"/>
        <path class="cls-79" d="M278.54,244.4l-.63.63c-8.77-6.6-23.6-5.37-32.98-.63-1.32.41-1.74.2-1.27-.63,12.43-5.02,23.14-7.77,34.88.63Z"/>
        <path class="cls-18" d="M277.27,280.55c1.07-.19,1.5.02,1.27.63-5.82,2.14-12.95,2.65-19.03,1.27-4.21-.96-7.77-3.81-11.42-5.71.27-.11.57-.36.63-.63,8.05,4.93,19.39,7.1,28.54,4.44Z"/>
        <path class="cls-85" d="M244.92,244.4c-2.98,1.5-6.5,4.27-9.18,6.36-2.06,1.61-4.01,4.68-6.68,5.05l11.74-13.94-.95,3.16c.24.18,3.13-.99,3.81-1.26l1.27.63Z"/>
        <path class="cls-99" d="M286.15,248.2c-1.25-1.38-2.04-3.6-3.8-4.76-.1-.47.66-.43.94-.31,3.89,1.74,7.44,11.26,13.01,10.15.74,1.77-2.36,1.51-3.17,1.27-2.07.59-6.63-4.11-6.98-6.34Z"/>
        <path class="cls-47" d="M293.13,254.55c-.92.34-.44,1.52-.63,1.9-1.9-1.2-4.96-4.65-6.98-6.34l.63-1.9c.74.81,6.53,6.21,6.98,6.34Z"/>
        <path class="cls-118" d="M292.49,256.45c.65.41,1.62.95,2.35,1.12,1.58.38,4.51-.71,3.99,1.41-1.75-.09-3.6.2-5.34-.05-1.39-.2-2.41-1.12-2.9-1.22,1.12.02,1.44-.36,1.9-1.27Z"/>
        <path class="cls-127" d="M254.43,258.35c-2.21.07-4.61.61-6.34.63-.63,0-1.27,0-1.9,0v-1.27c.74-1.91,5.34-2.57,6.98-1.27.41.59,1.12,1.04,1.27,1.9Z"/>
        <path class="cls-86" d="M244.29,267.87c.86.83.47,1.13-.63.63l-1.17.8-3.9-2.7c-1.12-1.6-1.95-1.53,0-2.54,2.03,1.14,3.77,2.55,5.71,3.81Z"/>
        <path class="cls-99" d="M241.75,258.99c-2.26,1.32-3.25,3.16-6.34,2.53l1.9-3.16c1.12-.02,2.71.66,4.44.63Z"/>
        <path class="cls-130" d="M249.99,271.04l-.63.63c-1.85,1.3-5.65-.95-5.71-3.17.27-.1.52-.61.63-.63.14-.03.51-.04.63,0,1.13.4,3.91,2.73,5.07,3.17Z"/>
        <path class="cls-98" d="M185.3,142.92l-1.27.63c-3.63-1-9.73-2.54-13.32-3.17l1.9-.63c4.61.86,8.24,1.89,12.69,3.17Z"/>
        <path class="cls-114" d="M141.53,255.82c-7.94,3.53-12.52,8.72-18.39,14.59-.55.47-1.27.54-1.43-.04-.39-1.38,5.13-8.72,6.5-10.11.63-.53,1.52-1.65,1.9-1.9l6.24-2.66c2.4-1.21,4.13-1.17,5.18.12Z"/>
        <path class="cls-131" d="M161.83,250.74c3.34,1.64,2.07,2.28-3.81,1.9-3.06-.36-6.61.26-9.63.85-1.09.21-3.51-.09-3.05,1.69-1.57.15-2.41.39-3.81.63-.95.17-2.13-.1-3.3.17-2.96.66-5.16,2.28-8.11,2.37,1.86-1.25,4.92-3.12,6.98-3.81,2.98-.99,8.6-2,11.82-2.45,4.28-.6,8.73-.35,12.92-1.35Z"/>
        <path class="cls-33" d="M128.21,260.26c-1.39,2.77-3.34,4.7-4.77,7.6-.32.64-1.57,2.18-.31,2.55-1.26,1.25-1.23,2.33-2.54,0,3.5-5.21,2.2-5.62,7.61-10.15Z"/>
        <path class="cls-115" d="M100.3,254.55c-.05,2,.08,4.02,0,6.03-.03.77.48,2.36-.63,2.21-.67-2.24-.94-4.99-.64-7.3.11-.87.47-1.99,1.26-.93Z"/>
        <path class="cls-59" d="M171.35,256.45l.96,3.17c-4.55-2-9.25-6.38-14.28-6.97.54-1.32,4.05-.28,4.44-.64.35-1.21-.43-1.06-.63-1.27-.35-.36-2.44-1.27-.33-1.26,3.95,2.26,5.68,5.04,9.84,6.97Z"/>
        <path class="cls-98" d="M159.29,139.11c-5.41-.3-12.35-.29-17.76,0,4.36-1.12,9.7-.69,14.28-.65,1.07.01,2.82-.41,3.48.65Z"/>
        <path class="cls-134" d="M166.91,267.23c-.48,1.24-.48,2.08,0,2.54l.63.63c-.54.1-2.04,1.5-3.17,1.27-.05-.07-1.07-.03-1.61-.6-1.01-1.07-.71-2.48-2.83-1.93-.18-1.45,3.52-2.04,5.07-1.9.56-.09,1.29,0,1.9,0Z"/>
        <path class="cls-7" d="M167.54,259.62c2.17,1.37,4.34,3.13,6.34,4.77.13,1.66-.27.63-1.12.47-1-.19-2.4-.46-3.32-.8-3.95-3.79-4.58-5.27-1.9-4.44Z"/>
        <path class="cls-132" d="M167.54,259.62l-1.27.31c1.68,1.37,2.3,2.29,3.17,4.13-1.96-.72-3.77-3.67-5.71-5.07,1.87-1.34,2.49-.2,3.81.63Z"/>
        <path class="cls-48" d="M168.17,267.23c1.29,1.99.42,1.97-1.27,2.54-1.52.51-2.94.45-4.45-.32l4.45-2.22c.41,0,.86-.04,1.27,0Z"/>
        <path class="cls-115" d="M283.61,278.02c-.95,2.07-3.19,2.48-5.07,3.17l-1.27-.63c1.69-.49,4.21-1.81,6.34-2.54Z"/>
        <path class="cls-55" d="M222.09,394.72l-1.9.63-5.07-1.9c2.5-.46,4.71.68,6.97,1.26Z"/>
        <path class="cls-139" d="M232.24,391.55l3.17,3.17-5.07-2.54c1-.86,1.46-.43,1.9-.63Z"/>
        <path class="cls-30" d="M326.74,135.94l-.63,1.27c-1.28-4.51-4.53-8.66-3.16-14.27l1.26-6.03v12.37c0,1.18,2.08,5.06,2.54,6.66Z"/>
        <path class="cls-41" d="M139.63,269.77c-3.48-.51-6.91,1.6-10.14-.31l6.65-7.29,3.49,7.6Z"/>
        <path class="cls-80" d="M156.76,267.23c1.13-2.15,1.89-4.5,1.91-6.98.28-.35,7.37,4.28,7.6,4.76.58,1.18-1.86,1.41-2.53,1.58-1.14,1.36-6.69,3.11-6.98.63Z"/>
        <path class="cls-43" d="M163.73,266.6l1.27.63c-1.09.17-3.9,1.63-5.07,1.9-1.37.31-3.54.11-5.07.63.5-.68,1.61-1.99,1.9-2.54,1.4.87,5.1-.16,6.98-.63Z"/>
        <path class="cls-19" d="M144.07,259.62c-.02,1.02.24,2.26-.31,3.17-2.13,3.52-6.6-3.09.31-3.17Z"/>
        <path class="cls-42" d="M245.55,250.74c1.62-1.15,2.83-2.23,5.07-1.91-.27,3,.9,5.26,2.54,7.62l-.43.5c-2.21-.08-4.36.77-6.55.76s-4.61-1.17-6.98-.64c1.72-2.09,4.16-4.79,6.34-6.34Z"/>
        <path class="cls-42" d="M279.81,254.54l-8.24,1.27,1.91-6.97c.79-.56,7.82,4.26,6.34,5.71Z"/>
        <path class="cls-21" d="M258.87,250.74c-1.83,1.29-3.25-2.21-1.89-3.17,1.83-1.29,3.25,2.21,1.89,3.17Z"/>
        <path class="cls-77" d="M254.13,247.57c2.07-.47,2.26,3.91-.64,3.16-1.58-.41-.08-3,.64-3.16Z"/>
        <path class="cls-99" d="M273.46,267.87c.53.57,1.17.63,1.9.63.55.18.55.39,0,.63-2.58.27-9.76,2.45-11.43,1.6-.29-.15-.81-.83-.62-.96,3.33-.2,6.99-.9,10.15-1.91Z"/>
        <path class="cls-9" d="M275.37,268.5c3.5.04,6.79-1.21,10.14-1.9l-1.26,2.53c-.15,0-1.54.5-1.9.63-.69-2.2-2.16-.21-3.57-.19-1.1.01-2.22-.56-3.4-.44v-.63Z"/>
        <path class="cls-63" d="M243.65,268.5c1.92,1,3.69,2.27,5.71,3.17.79.35,1.57,1.14,1.9,1.27-2.42.21-2.13,1.49-2.54,3.17-3.01-1.84-8.08-6.55-10.15-9.51,1.77.05,3.55,1.1,5.07,1.9Z"/>
      </g>
    </g>
  </g>
</svg>