<?xml version="1.0" encoding="UTF-8"?>
<svg id="Layer_2" data-name="Layer 2" xmlns="http://www.w3.org/2000/svg" xmlns:xlink="http://www.w3.org/1999/xlink" viewBox="0 0 1740.92 1252.17">
  <defs>
    <style>
      .cls-1 {
        fill: #f1f1f1;
      }

      .cls-2 {
        fill: #070707;
      }

      .cls-3 {
        fill: #040404;
      }

      .cls-4 {
        fill: #dfdfdf;
      }

      .cls-5 {
        fill: #474747;
      }

      .cls-6 {
        fill: #8f8f8f;
      }

      .cls-7 {
        fill: #2b2b2b;
      }

      .cls-8 {
        fill: #cecece;
      }

      .cls-9 {
        fill: #1b1b1b;
      }

      .cls-10 {
        fill: #323232;
      }

      .cls-11 {
        fill: #595959;
      }

      .cls-12 {
        fill: #393939;
      }

      .cls-13 {
        fill: #ddd;
      }

      .cls-14 {
        fill: #545454;
      }

      .cls-15 {
        fill: #292929;
      }

      .cls-16 {
        fill: #eaeaea;
      }

      .cls-17 {
        fill: #010101;
      }

      .cls-18 {
        fill: #d2d2d2;
      }

      .cls-19 {
        fill: #fff;
      }

      .cls-19, .cls-20, .cls-21, .cls-22, .cls-23, .cls-24 {
        stroke: #003397;
        stroke-miterlimit: 10;
        stroke-width: 3px;
      }

      .cls-25 {
        fill: #454545;
      }

      .cls-20 {
        fill: url(#radial-gradient-2);
      }

      .cls-21 {
        fill: url(#radial-gradient-3);
      }

      .cls-26 {
        fill: #222020;
      }

      .cls-27 {
        fill: #0a0a0a;
      }

      .cls-28 {
        fill: #b6b6b6;
      }

      .cls-29 {
        fill: #030303;
      }

      .cls-30 {
        fill: #777;
      }

      .cls-31 {
        fill: #9a9a9a;
      }

      .cls-32 {
        fill: #d0d0d0;
      }

      .cls-33 {
        fill: #909090;
      }

      .cls-34 {
        fill: #1c1c1c;
      }

      .cls-35 {
        fill: #b5b5b5;
      }

      .cls-36 {
        fill: #f4f4f4;
      }

      .cls-37 {
        fill: #111;
      }

      .cls-38 {
        fill: #2c2c2c;
      }

      .cls-39 {
        fill: #aaa;
      }

      .cls-40 {
        fill: #979797;
      }

      .cls-41 {
        fill: #919191;
      }

      .cls-42 {
        fill: #3b3b3b;
      }

      .cls-22 {
        fill: url(#radial-gradient);
      }

      .cls-43 {
        fill: #1e1e1e;
      }

      .cls-44 {
        fill: #606060;
      }

      .cls-45 {
        fill: #3e3e3e;
      }

      .cls-46 {
        fill: #d8d8d8;
      }

      .cls-47 {
        fill: #e5e5e5;
      }

      .cls-48 {
        fill: #ccc;
      }

      .cls-49 {
        fill: #3a3a3a;
      }

      .cls-50 {
        fill: #c3c3c3;
      }

      .cls-51 {
        fill: #525252;
      }

      .cls-52 {
        fill: #b1b1b1;
      }

      .cls-53 {
        fill: #373737;
      }

      .cls-54 {
        fill: #5d5d5d;
      }

      .cls-55 {
        fill: #4e4e4e;
      }

      .cls-56 {
        fill: #060606;
      }

      .cls-57 {
        fill: #bebebe;
      }

      .cls-58 {
        fill: #656565;
      }

      .cls-59 {
        fill: #303030;
      }

      .cls-60 {
        fill: #636363;
      }

      .cls-61 {
        fill: #797979;
      }

      .cls-62 {
        fill: #a6a6a6;
      }

      .cls-63 {
        fill: #c7c7c7;
      }

      .cls-64 {
        fill: #0d0d0d;
      }

      .cls-65 {
        fill: #e7e7e7;
      }

      .cls-66 {
        fill: #050505;
      }

      .cls-67 {
        fill: #141414;
      }

      .cls-68 {
        fill: #dadada;
      }

      .cls-69 {
        fill: #464646;
      }

      .cls-70 {
        fill: #b3b3b3;
      }

      .cls-71 {
        fill: #575757;
      }

      .cls-72 {
        fill: #b0b0b0;
      }

      .cls-73 {
        fill: #717171;
      }

      .cls-74 {
        fill: #1d1d1d;
      }

      .cls-75 {
        fill: #252525;
      }

      .cls-76 {
        fill: #212121;
      }

      .cls-77 {
        fill: #3f3f3f;
      }

      .cls-78 {
        fill: #020202;
      }

      .cls-79 {
        fill: #969696;
      }

      .cls-80 {
        fill: #3d3d3d;
      }

      .cls-81 {
        fill: #0b0b0b;
      }

      .cls-82 {
        fill: #cdcdcd;
      }

      .cls-83 {
        fill: #f9f9f9;
      }

      .cls-84 {
        fill: #242424;
      }

      .cls-85 {
        fill: #cacaca;
      }

      .cls-86 {
        fill: #282828;
      }

      .cls-87 {
        fill: #878787;
      }

      .cls-88 {
        fill: #cdecff;
      }

      .cls-89 {
        fill: #353535;
      }

      .cls-90 {
        fill: #565656;
      }

      .cls-91 {
        fill: #121212;
      }

      .cls-92 {
        fill: #272727;
      }

      .cls-93 {
        fill: #fafafa;
      }

      .cls-23, .cls-94 {
        fill: #9333ea;
      }

      .cls-95 {
        fill: silver;
      }

      .cls-96 {
        fill: #181818;
      }

      .cls-97 {
        fill: #e9e9e9;
      }

      .cls-98 {
        fill: #101010;
      }

      .cls-99 {
        fill: #858585;
      }

      .cls-100 {
        fill: #e1e1e1;
      }

      .cls-101 {
        fill: #080808;
      }

      .cls-102 {
        fill: #c5c5c5;
      }

      .cls-103 {
        fill: #f7f7f7;
      }

      .cls-104 {
        fill: #414141;
      }

      .cls-105 {
        fill: #1f1f1f;
      }

      .cls-106 {
        fill: #2a2a2a;
      }

      .cls-107 {
        fill: #f8f8f8;
      }

      .cls-108 {
        fill: #003397;
      }

      .cls-109 {
        fill: #f5f5f5;
      }

      .cls-110 {
        fill: #818181;
      }

      .cls-111 {
        fill: #f0f0f0;
      }

      .cls-112 {
        fill: #222;
      }

      .cls-113 {
        fill: #0c0c0c;
      }

      .cls-114 {
        fill: #838383;
      }

      .cls-115 {
        fill: #afafaf;
      }

      .cls-116 {
        fill: #7f7f7f;
      }

      .cls-117 {
        fill: #202020;
      }

      .cls-118 {
        fill: #8c8c8c;
      }

      .cls-119 {
        fill: #989898;
      }

      .cls-120 {
        fill: #b9b9b9;
      }

      .cls-121 {
        fill: #59b252;
      }

      .cls-122 {
        fill: #f3f3f3;
      }

      .cls-123 {
        fill: #494949;
      }

      .cls-124 {
        fill: #191919;
      }

      .cls-125 {
        fill: #c2c2c2;
      }

      .cls-126 {
        fill: #232323;
      }

      .cls-127 {
        fill: #cbcbcb;
      }

      .cls-128 {
        fill: #6e6e6e;
      }

      .cls-129 {
        fill: #2d2d2d;
      }

      .cls-130 {
        fill: #6a6a6a;
      }

      .cls-131 {
        fill: #434343;
      }

      .cls-132 {
        fill: #737373;
      }

      .cls-133 {
        fill: #a8a8a8;
      }

      .cls-134 {
        fill: #fcfcfc;
      }

      .cls-135 {
        fill: #2f2f2f;
      }

      .cls-136 {
        fill: #ededed;
      }

      .cls-137 {
        fill: #313131;
      }

      .cls-138 {
        fill: #484848;
      }

      .cls-139 {
        fill: #4b4b4b;
      }

      .cls-140 {
        fill: #404040;
      }

      .cls-141 {
        fill: #9c9c9c;
      }

      .cls-24 {
        fill: none;
      }

      .cls-142 {
        fill: #535353;
      }

      .cls-143 {
        fill: #9f9f9f;
      }

      .cls-144 {
        fill: #d3d3d3;
      }

      .cls-145 {
        fill: #1a1a1a;
      }

      .cls-146 {
        fill: #e0e0e0;
      }

      .cls-147 {
        fill: #2e2e2e;
      }

      .cls-148 {
        fill: #555;
      }

      .cls-149 {
        fill: #fbfbfb;
      }

      .cls-150 {
        fill: #bfbfbf;
      }

      .cls-151 {
        fill: #c8c8c8;
      }

      .cls-152 {
        fill: #fdfdfd;
      }

      .cls-153 {
        fill: #b2b2b2;
      }

      .cls-154 {
        fill: #343434;
      }

      .cls-155 {
        fill: #161616;
      }

      .cls-156 {
        fill: #090909;
      }
    </style>
    <radialGradient id="radial-gradient" cx="1027.44" cy="227.65" fx="1027.44" fy="227.65" r="179.65" gradientUnits="userSpaceOnUse">
      <stop offset="0" stop-color="#fff"/>
      <stop offset="1" stop-color="#f3ffff"/>
    </radialGradient>
    <radialGradient id="radial-gradient-2" cx="1409.54" cy="948.57" fx="1409.54" fy="948.57" xlink:href="#radial-gradient"/>
    <radialGradient id="radial-gradient-3" cx="459.05" cy="514.7" fx="459.05" fy="514.7" xlink:href="#radial-gradient"/>
  </defs>
  <path class="cls-88" d="M657.4,826.34c-7.39,0-14.41,1.57-20.75,4.39-8.93-21.98-30.5-37.48-55.69-37.48-33.19,0-60.09,26.9-60.09,60.09,0,1.97.1,3.92.28,5.85-.09,0-.19,0-.28,0-19.18,0-34.74,15.55-34.74,34.74s14.16,33.29,32.13,34.63h-.01s.11,0,.11,0c.83.06,1.66.1,2.51.1s1.65-.04,2.46-.1l132.98.1h0c.36,0,.72,0,1.09,0,28.25,0,51.15-22.9,51.15-51.15s-22.9-51.15-51.15-51.15Z"/>
  <path class="cls-88" d="M1628.8,858.55c-7.39,0-14.41,1.57-20.75,4.39-8.93-21.98-30.5-37.48-55.69-37.48-33.19,0-60.09,26.9-60.09,60.09,0,1.97.1,3.92.28,5.85-.09,0-.19,0-.28,0-19.18,0-34.74,15.55-34.74,34.74s14.16,33.29,32.13,34.63h-.01s.11,0,.11,0c.83.06,1.66.1,2.51.1s1.65-.04,2.46-.1l132.98.1h0c.36,0,.72,0,1.09,0,28.25,0,51.15-22.9,51.15-51.15s-22.9-51.15-51.15-51.15Z"/>
  <path class="cls-88" d="M1304.47,523.05c-7.39,0-14.41,1.57-20.75,4.39-8.93-21.98-30.5-37.48-55.69-37.48-33.19,0-60.09,26.9-60.09,60.09,0,1.97.1,3.92.28,5.85-.09,0-.19,0-.28,0-19.18,0-34.74,15.55-34.74,34.74s14.16,33.29,32.13,34.63h-.01s.11,0,.11,0c.83.06,1.66.1,2.51.1s1.65-.04,2.46-.1l132.98.1h0c.36,0,.72,0,1.09,0,28.25,0,51.15-22.9,51.15-51.15s-22.9-51.15-51.15-51.15Z"/>
  <path class="cls-88" d="M800.91,296.57c-7.39,0-14.41,1.57-20.75,4.39-8.93-21.98-30.5-37.48-55.69-37.48-33.19,0-60.09,26.9-60.09,60.09,0,1.97.1,3.92.28,5.85-.09,0-.19,0-.28,0-19.18,0-34.74,15.55-34.74,34.74s14.16,33.29,32.13,34.63h-.01s.11,0,.11,0c.83.06,1.66.1,2.51.1s1.65-.04,2.46-.1l132.98.1h0c.36,0,.72,0,1.09,0,28.25,0,51.15-22.9,51.15-51.15s-22.9-51.15-51.15-51.15Z"/>
  <path class="cls-24" d="M1198.05,260.37h178.74c7.41,0,14.63,2.29,20.72,6.52,16.12,11.22,43.87,37.43,43.87,91.38,0,62.57-48.96,89.68-67.31,97.28-3.98,1.65-8.21,2.57-12.51,2.74l-33.87,1.3c-33.01,1.27-58.99,28.6-58.61,61.62l.56,47.56c.36,30.29-23.75,55.21-54.03,55.87l-32.77.71"/>
  <path class="cls-24" d="M197.19,593.04h-10.46c-44.1,0-79.84,35.75-79.84,79.84h0c0,44.1,35.75,79.84,79.84,79.84h161.74c19.76,0,37.87,11.01,46.96,28.55l30.18,58.21c13.22,25.49,39.64,41.39,68.36,41.13h0c34.15-.31,63.92-23.3,72.87-56.26l7.35-27.09c6.8-25.06,24.95-45.49,49.03-55.21l138.56-55.87"/>
  <path class="cls-24" d="M900.55,877.24l-61.34,185.9c-15.2,46.08,19.12,93.54,67.64,93.54h0c28.47,0,54.21-16.95,65.44-43.11l30.88-71.88c5.27-12.26,16.96-20.54,30.27-21.44l118.98-8.04"/>
  <g>
    <path class="cls-23" d="M925.86,98.19c12.24-.51,63.97-4.06,74.49-.99-79.21,19.64-120.33,103.02-120.59,124.27-.08,5.68-1.34,7.81-8.3,7.81-41.65,0-59.57,33.97-59.57,65.31,0,35.18,43.91,61.76,78.2,65.11-33.42-3.26-90.84,11.37-120.68-9.82-17.78-12.63-28.56-33.48-28.56-55.29,0-31.34,17.92-65.31,59.57-65.31,6.95,0,8.22-2.13,8.29-7.81.31-24.21.1-118.45,117.15-123.28Z"/>
    <path class="cls-22" d="M1144.61,160.05c-11.78,0-23.08,2.04-33.57,5.79-3.87,1.38-8.14-.32-9.93-4.02-18.95-39.3-59.13-66.88-105.63-66.33-117.14,1.4-116.84,99.07-117.14,123.28-.07,5.68-1.34,7.81-8.29,7.81-41.65,0-59.57,33.97-59.57,65.31,0,35.18,26.8,64.08,61.09,67.44h0s.04,0,.04,0c2.18.21,4.4.33,6.64.33s4.41-.12,8,.15h251.83c1.36-.26,4.17-.14,7.01-.15,55.06-.25,99.9-45.77,99.34-100.83-.55-54.65-45.03-98.78-99.8-98.78Z"/>
  </g>
  <g>
    <path class="cls-23" d="M1307.96,819.11c12.24-.51,63.97-4.06,74.49-.99-79.21,19.64-120.33,103.02-120.59,124.27-.08,5.68-1.34,7.81-8.3,7.81-41.65,0-59.57,33.97-59.57,65.31,0,35.18,43.91,61.76,78.2,65.11-33.42-3.26-90.84,11.37-120.68-9.82-17.78-12.63-28.56-33.48-28.56-55.29,0-31.34,17.92-65.31,59.57-65.31,6.95,0,8.22-2.13,8.29-7.81.31-24.21.1-118.45,117.15-123.28Z"/>
    <path class="cls-20" d="M1526.7,880.97c-11.78,0-23.08,2.04-33.57,5.79-3.87,1.38-8.14-.32-9.93-4.02-18.95-39.3-59.13-66.88-105.63-66.33-117.14,1.4-116.84,99.07-117.14,123.28-.07,5.68-1.34,7.81-8.29,7.81-41.65,0-59.57,33.97-59.57,65.31,0,35.18,26.8,64.08,61.09,67.44h0s.04,0,.04,0c2.18.21,4.4.33,6.64.33s4.41-.12,8,.15h251.83c1.36-.26,4.17-.14,7.01-.15,55.06-.25,99.9-45.77,99.34-100.83-.55-54.65-45.03-98.78-99.8-98.78Z"/>
  </g>
  <g>
    <path class="cls-23" d="M357.47,385.23c12.24-.51,63.97-4.06,74.49-.99-79.21,19.64-120.33,103.02-120.59,124.27-.08,5.68-1.34,7.81-8.3,7.81-41.65,0-59.57,33.97-59.57,65.31,0,35.18,43.91,61.76,78.2,65.11-33.42-3.26-90.84,11.37-120.68-9.82-17.78-12.63-28.56-33.48-28.56-55.29,0-31.34,17.92-65.31,59.57-65.31,6.95,0,8.22-2.13,8.29-7.81.31-24.21.1-118.45,117.15-123.28Z"/>
    <path class="cls-21" d="M576.21,447.1c-11.78,0-23.08,2.04-33.57,5.79-3.87,1.38-8.14-.32-9.93-4.02-18.95-39.3-59.13-66.88-105.63-66.33-117.14,1.4-116.84,99.07-117.14,123.28-.07,5.68-1.34,7.81-8.29,7.81-41.65,0-59.57,33.97-59.57,65.31,0,35.18,26.8,64.08,61.09,67.44h0s.04,0,.04,0c2.18.21,4.4.33,6.64.33s4.41-.12,8,.15h251.83c1.36-.26,4.17-.14,7.01-.15,55.06-.25,99.9-45.77,99.34-100.83-.55-54.65-45.03-98.78-99.8-98.78Z"/>
  </g>
  <circle class="cls-19" cx="979.44" cy="686.19" r="230.02"/>
  <path class="cls-88" d="M156.46,664.45c-23.7,0-43.67,15.96-49.75,37.72-3.7-1.39-7.7-2.15-11.88-2.15-18.7,0-33.87,15.16-33.87,33.87s15.16,33.87,33.87,33.87h61.63c28.53,0,51.65-23.13,51.65-51.65s-23.13-51.65-51.65-51.65Z"/>
  <path class="cls-88" d="M1493.89,241.67c-23.7,0-43.67,15.96-49.75,37.72-3.7-1.39-7.7-2.15-11.88-2.15-18.7,0-33.87,15.16-33.87,33.87s15.16,33.87,33.87,33.87h61.63c28.53,0,51.65-23.13,51.65-51.65s-23.13-51.65-51.65-51.65Z"/>
  <g>
    <path class="cls-152" d="M853.14,854.8c4.82.55,15.46-5.95,20.69-5.81,1.79.05,3.62.22,5.27.92,5.63,2.41,6.97,9.57,9.96,14.91,4.83,8.62,14.85,13.06,24.6,14.68,9.75,1.62,19.76,1.01,29.53,2.49,11.14,1.69,21.75,6.07,32.92,7.62,1.77.25,3.62.41,5.31-.18,1.67-.58,3.01-1.84,4.53-2.76,7.03-4.22,15.92-.33,24.12-.08,8.4.25,16.39-3.48,23.69-7.66,11.1-6.36,21.48-13.95,30.9-22.59,1.14-1.05,2.37-2.66,1.56-3.98-.49-.8-1.51-1.06-2.43-1.19-7.47-1.12-15.4,1.36-20.92,6.53-1.8,1.69-3.38,3.66-5.5,4.91-2.12,1.25-5.06,1.59-6.92-.04-2.05-1.79-1.87-5.09-.79-7.59,1.07-2.5,2.84-4.7,3.57-7.32.73-2.62-.09-6.04-2.67-6.89-1.88-.62-3.87.33-5.62,1.25-8.45,4.47-17.15,9.14-23.08,16.62-1.77,2.23-3.31,4.72-5.64,6.34-2.17,1.52-4.83,2.13-7.42,2.66-9.4,1.91-18.96,3.06-28.55,3.42-3.07.12-7.14-.67-7.45-3.73-.3-2.93,3.17-4.53,5.68-6.09,5.16-3.21,7.85-9.45,8.1-15.52.25-6.07-1.61-12.03-3.85-17.67-2.05-5.17-6.31-14.67-10.42-18.42-5.88-5.37-14.14-7.02-21.84-9.05-7.7-2.03-19.99-4.09-19.89-12.05-.17,14.45,11.3,24.58,14.11,40.27,2.81,15.71,5.6,25.33,10.16,36.48-.82.97-.78-.47-1.73-1.31s-3.49-8.64-3.88-9.85c-2.55-7.83-4.27-7.99-5.97-16.05-1.16-5.53-.22-14.63-3.8-18.99-11.07,5.79-17.16,8.54-21.7,21.69-1,2.9-1.05,6.94-1.22,10-2.11.31.85-3.01-1.04-3.98.77-6.23,5.83-14.87,6.78-18,1.59-5.22-49.15,26-49.15,26Z"/>
    <path class="cls-47" d="M1100.64,630.92c-1.51.68-2.47,1.64-2.87,2.87-.92.75-2.13,1.39-3.62,1.91-1.28,1.49-2.46,2.13-3.55,1.91l-.05.78c-2.58,3.11-5.11,6.19-7.59,9.25.09,1.22.25,1.38.48.48,1.46-2.97,4.41-7.15,7.03-9.64.09-.09.33-.03.62.08.84-1.76,2.16-.27,2.27,1.27.39,5.14.58,10.29.59,15.46.29.24.51.48.54.75.66,6.17.3,12.7-.07,18.85.94.14-.33,4.24-.31,4.02.11-1.31.69-3.43,1.27-4.5-.31-3.46-.37-7.03,0-10.52l-.55-.72-.4-12.19c-1.05-1.09-1.4-6.67.61-6.97s5.63,8.49,4.78,10.65l-1.52,9.84c.33-.47.82-.37,1.38-.13.18,1.1.49,1.89.96,2.39.3.7.48,1.45.33,2.21-2.89,14.13-5.94,23.6-13.11,35.94-.97,2.19-2.3,3.54-3.95,4.86.03,1.89-4.48,4.13-6.23,4.27-4.91.39-5.5-5.53-5.82-9.16-.25-9.77-.69-19.62-1.33-29.53-1.03-2.44-1.35-5.15-.96-8.13-.61-2.49-.77-1.53-.48,2.87.67,3.04.99,6.23.96,9.56l.64,2.1c1.2,25.98,2.27,52.14,0,77.93-1.5,17.11-3.72,35.67-11.64,50.94-.06.88.1,1.19.48.96,3.08-8.5,5.91-17.02,8.47-25.56,1.33-.6,1.93-.68,2.17,1.04,1.59,13.88,1.3,27.78-1.03,41.42,4.29-14.98,4.75-31.35,2.77-46.89,1.8-4.38,3.76,1.44,4.45,3.83,4.26,9.52,9.52,12.49,18.37,17.05,3.89,2.06,7.27,4.69,10.14,7.89,2.18,2.49,2.12,8.62-.9,9.82-.56,2.41-1.77,4.61-3.62,6.6-8.96,10.86-20.12,20.64-31.63,28.72-.42.3-1.03.19-1.55.05-.28-2.19-3.77-3.11-5.57-3.16-5.2-.16-12.54,5.42-17.52,7.55-2.7,1.16-5.59,2.09-8.45,2.78-.56-1.05.94-2.71,1.91-2.87.16-1.06,0-1.38-.48-.96-.02,1.26-1.61,3.65-2.87,3.35-1.22-.8-6.18-.48-6.22-2.61-.03-1.57,5.09-8.66,5.62-12.08.98-6.35-3.12-8.77-8.99-7.56-3.38.7-6.38,4.06-9.05,6-2.06.98-4.13,1.94-6.21,2.87-.22.49-.47.92-.85,1.14-7.27,4.14-15.96,7.14-24.21,8.49-.4-1.45-.16-3.15.72-5.09-3.5-12.41-1.86-32.32,4.11-43.73.99-1.89,8.94-11.56,10.66-8.89,1.23,1.9-3.62,18.41-6.17,21.84-1.04,2.12-1.34,5.22.44,6.86,6.66-4.19,13.19-8.58,19.59-13.16,20.38-9.83,30.91-29.12,40.62-48.82.87-.47,12.43-20.9,10.8-20.18l-2.76,4c-2.22,3.2-4.37,4.58-5.43.13-5.04,2.02-8.96,6.06-11.97,10.53l-7.1,11.45c-2.15,3.57-4.44,6.33-8.15,8.25-1.97,1.02-8.25,3.35-9.58,1.72,1.17-4.52,2.44-9.07,3.8-13.67,1.36-10.65-5.98-3.5-6.82,2.18-1.18.84-1.83.58-2.05-.71l-.39.24c-.04,1.3-1.27,2.66-2.39,2.87-.59,1.56-1.72,3.1-3.32,3.72-1.83,6.15-9.68,17.04-16.75,13-3.27,1.23-6.58,2.3-9.92,3.21-.63.84-1.06,1.39-2.03.62-.83-.39-.89-1.22-.18-2.5-.37.86-.95,1.22-1.73,1.07-2.67,4.09-3.02-.45-1.1-2.87l-1.13.2c-.78.83-1.49,1.23-2.22.09,0,2.3-4.2,3.05-5.94,1.52-1.39,1.02-2.72.36-3.97-1.98-.95.77-2.13.06-2.86-.79-.91-.15-.71-1.56,0-1.91-.36-1.71,1.06-2.05,4.27-1.03.32-.92,1.03-1.31,1.92-.92,1.52,2.06,3.5.42,4.66-1.23,2.43.43,3.46-.21,2.54-3.35,1.17-.51,1.8-1.48,1.9-2.91,1.84.23,2.49,0,1.95-.7,1.41-.24,2.25-.96,2.52-2.15h1.26c.78-5.3,4.08,0,4.75,2.93.23-.82.45-1.31,1.46-1.16.8-1.06,1.59-.9,2.39.48-.41-1.7,2.55-2.76,3.96-1.98.63-2.02,2.02-2.28,3.88-1.62,0-1.33.64-2.06,1.64-2.87-1.12-2.25-1.18-3.69,1.69-3.98-.08-1.02.5-1.55,1.39-1.95-.82-1.29-.21-2.33,1.34-2.14.63-1.28,1.52-1.44,2.67-.82,1.8-6.97,5.19-10.02,11.24-13.5.78-.71,1.9-1.95,2.03-3.01.67-5.23,1.37-14.7.13-19.65-2.02-4.89-3.66-9.29-2.22-14.73,1.57-6.59,2.51-13.24,2.83-19.95-.15-2.88-.71-4.04-3.57-4.88-1.16-.64-2.03-1.32-1.22-2.6-.67-.17-1.05-.34-1.01-.97-2.54.38-3.64-.1-3.29-1.42l1.01-1.05c6.43-.68,12.06-3.23,14.97-9.25.61-1.26,2.68-6.59,1.7-5.95-1.2-.66-.83-1.42.48-1.43.56-.3.72-.62.48-.96-1.41-.32-.48-4.78.96-4.78.46.06.46-.26,0-.96-1.27-.73-1.3-1.17,0-1.91.16-1.76.32-3.52.48-5.26,1.49-.31,1.97-.63,1.43-.96-3.36,2.02-2.49-4.94-1.74-6.68.43-1,3.83-4.36,4.81-4.79.36.19,1.02.24,1.39.13,1.96-.61,21.19-3.01,22.13-2.41.21.13.44.25.66.36,2.16,7.15,3.31,13.97,1.19,21.5.01,2.57.25,3.64,2.62,3.37-.16-1.08.71-1.9,2.61-2.47.33-1.38.9-2.15,1.7-2.31,2.91-5.31,3.18-8.83,2.06-14.8-.08-2.87,4.58-6.03,7.23-4.34,3.19-2.73,6.55-5.35,10.07-7.85.79-.53,1.9-.97,2.63-.25,1.41-2.26,5.94-2.24,8.12-.76,1.09.74,2.68,1.99,1.44,3.15Z"/>
    <path d="M1086.78,619.93c.15,1.66.67,2.65,1.58,2.97.44,1,.97,4.06,1,5.06.01.48-6.18,4.72-7.25,5.27-1.86,2.89-3.15,3.7-6.61,2.82-4.37,4.25-7.07,2.35-4.51-3.39-2.52-1.87-.37-4.98,1.25-6.29-.56-6.49,2.84-3.28,3.46,1.14.62,2.54,1.34,3,2.15,1.36,5.96.74,3.68-3.99,1.78-7.51l-1.29-.8c.09-3.92-12.66-20.27-15.02-19.99-1.08.13-3.2,1.2-3.3,2.38-.89.21-1.55.64-2,1.29,1.94,3.88,3.82,7.8,5.24,11.91l-.37,1.87c.08.52.05.68-.48.48-2.55,0-4.61-1.39-6.18-4.19-2.55-1-6.64-4.97-5.13-7.69l-4.62-5.33c-7.08,2.17-14.08,2.58-21.59,1.88-4.19.09-4.87,1.97-5.42,5.78l-.95,1.1c-6.43-3.18-13.18-5.76-20.35-7.03l-1.25-1.25c.53-.79,1.65-.95,3.35-.48.78-1.14,1.34-.87,1.43.48h3.52s-.18-.96-.18-.96c-8.2-.53-16.33-1.68-24.2-4.48-8.58-2.47-16.73-1.81-24.93,1.61l-1.54-.48c-1.06.26-1.54.1-1.43-.48.14-.34.3-.66.51-.95,2.19-3.01,17.16-6.25,21.52-6.59l-4.71-.56c-2.66-1.07-.43-3.78,1.08-1.93.05-.37.14-.9.41-.96,1.73-.37,6.55-.18,7.95.96-2.66-1.54-4.22-2.28-7.34-2.48-6.23-.4-12.6.41-18.71,1.41l-.71-.83c-1.08.18-1.72.03-1.91-.48l1.12-1.25c7.23-1.8,14.64-3.59,22.13-2.5,1.1-.57-20.04-10.56-21.23-11.09-11.71,2.23-23.52,3.37-35.29,3.22-8.4-.16-14.6,4.51-20.58,9.47l.8.71c.89-.21,1.21-.05.96.48l-.2,1.15c-1.62.85-3.18,1.96-4.23,3.49,8.83-4.5,17.82-6.55,27.78-3.85l1.02,1.13c.17.81-.78.97-2.87.48-.09.43-.25.41-.48,0-3.16-.33-6.42-.55-9.56,0l-1.23,1.21c-4.95,1.09-9.64,3.45-13.34,6.91,1.96-1.01,11.92-4.33,13.32-3.36,2.71,1.88-1.17,2.88-3.27,3.26-6.01,2.28-13.3,5.34-16.84,10.83,10.33-9.02,23.51-11.15,36.83-7.68l1.26,1.26c.34.78-.46.94-2.39.48-.27.92-.69.92-.96,0-4.69-.39-9.47-.39-14.34,0l-1.23,1.15c-6.98,1.22-13.1,5.14-18.13,10.02l-1.67.31c.35,1.49-1.48,2.93-2.87,3.35,0,.66.15,1.29.48,1.91.48.89-.13,1.96-1.82,3.22,1.54-.47,3.15-.6,4.74-.28,7.06,2.78,11.56,3.78,18.72.34,2.32-.83,5.49-.51,7.04,1.02,1.83.41,3.29,1.85,3.87,3.63l.43-.28c.92-.53,1.73.07,2.44,1.78l.91.13c1.41.3,1.27,1.29,0,1.91-.04,1.7-.68,2.49-1.91,2.39l-.83,1.1c-1.79-.18-1.67.25.35,1.29,3.34-.22,6.74-.29,10.19-.21,1.9-2.53,3.62-5.21,5.15-8.02,4.44-4.13,2.12,6.24.68,8.1,6.65-.17,13.27-.66,19.87-1.46l1.87.63c2.19.17,3.79-.31,4.78-1.43l.07-.73c-4.53,1.28-7.1-.98-9.15-4.76-1.05-1.94-2.92-5.55-1.91-7.41-.33-.77-.46-1.26.48-.96l1.11.13c2,3.65,5.16,7.06,8.82,9.09.82.45,3.24,1.76,2.98.34-.76-.93-1.4-2.42,0-2.87v-.48c.85-1.35,1.8-2.15,2.87-2.39.43-.42.97-.57,1.52-.44.65-1.8,1.57-3.09,2.78-3.86-1.2-1.63,2.17-3.57,3.55-2.19,5.13-.95,10.4-1.38,15.82-1.31,4.4-2.05,8.85-3.98,13.35-5.81,4.44-1.96,16.78,7.05,18.17,10.42.97,2.35-.6,2.91-2.61,2.71-.06,1.33-3.26-1.44-1.21.03,1.02.73,2.09,1.37,3.12,1.89.75-1.3,4.07-.45,4.3.96,3.15.28,6.11.59,8.89.95-.35,3.14-.2,6.05.46,8.71-.58,2.31-.26,4.42.96,6.35l-3.24,2.27c-1.15,2.56-2.92,3.47-4.03.43-.18-2.83-.88-5.4-2.08-7.7l-.65.09c-3.44-5.78-9.06-6.1-15.43-6.35-12.4-.49-26.47,1.15-38.27,4.55-2.88,4.41-4.7,9.42-5.45,15.03-.77.91-1.77.83-3.01-.23,3.02,5.45,5.23,11.2,6.61,17.23l-.68,1.71c.57,2.14.45,3.9-.36,5.28-4.92-3.56-8-10.34-8.72-16.27-1.16-.96-1.72-5,.78-3.69-3.33-3.49-3.35-8.26-2.21-12.56.11-2.09,2.72-4.7,4.78-4.78.82-.56.66-.72-.48-.48-1.76,1.35-3.43,3.01-4.78,4.78-.03,2.47-.04,4.96-.05,7.49.94,3.37,1.43,6.77,1.48,10.2,2.21,5.79,4.39,11.45,9.08,15.77l1-.47c2.24,1.42,4.69,2.57,7.26,3.24l.34,1.05c1.95,0,3.71.35,5.27,1.08-.92.93-1.57,2.03-1.96,3.3-2.58-.18-5.12-.85-7.62-1.99-1.13,1.03-4.3-.8-5.46-1.69-4.47-3.41-7.92-6.99-10.51-12.05l-.69,5.02c-.92,5.01-5.27,5.32-4.97-.16l.58-13.88c-.59-8.8-3.45-10.78-12.39-9.75l-.26,1.11c-2.4.76-4.05,2.33-4.61,4.85-2.2,11.56-4.38,23.14-6.53,34.74l-1.02,1.36c-.23.82-.37,1.28-.96.48l-.13,1.02c-3.68,2.8-4.82,8.33-2.35,12.26l-.39,1.05c.47,1.1.09,1.2-.96,1.43l.25,1.5c-7.43,11.05-12.2,22.86-14.32,35.43.29,1.72.04,3.11-.75,4.18.17.46.04,1.07-.4,1.09-.91.05-2.51-5.38-2.72-6.42-1.41-6.76.71-11.05,3.83-17.03,4.86-7.78,8.87-14.72,11.17-23.61-.16-1.89.23-3.45,1.02-5.17-.76-.59-.79-1.67-.11-3.25-6.8,2.6-13.68,3.96-20.62,4.07-3.36-2.53-1.27-4.37,6.28-5.52-7.31,1.11-28.1,2.84-33.51-2.52l-.31-1.38c-1.02.84-1.98.05-2.87-2.39-5.93-6.57-4.93-17.57-9.15-23.11-1.81-2.37-5.18-1.21-5.6-2.52l-1.43-14.45c1.58-1.1,11.57-2.67,11.83-3.68-.64-1.39-.12-3.25-.67-4.5-.31-.71-2.29-2.13-3.02-3.2-1.62-2.37-2.89-5.12-3.93-7.79-10.42,4.55-27.35,11.65-35.82.47.27-.84.43-1.63.48-2.39-4.4-17.82,9.85-35.67,23.08-46.17l1.78-.19c.79-.36,1.24-.49.96.48,1.2.42-1.49,2.08-1.37,1.99,2.39-2.25,4.92-4.03,7.59-5.34,10.7-7.37,24.35-12.28,37.28-13.86,21.57-5.2,42.94-.02,62.91,8.55,7.71,3.31,16.07,6.96,22.65,12,.93.1,1.25-.06.96-.48-1.43-.16-4.91-1.79-4.78-3.35-.58-1.08-.26-1.24.96-.48,1.42-.07,1.74-.55.96-1.43-7.18-2.62-14.23-5.7-21.16-9.26-12.17-5.07-24.7-9.7-37.88-11.1l-2.14-1.15-8.43-.61c-2-1.04,4.75-1.53,5.56-.83.47-.28.95-.55,1.45-.76s.97-.39,1.46-.43c31.55-2.57,55.13.28,84.94,10.94,16,5.72,33.18,11.99,47.65,20.31,8.27,2.35,12.88,4.3,18.99,10.65,4.46,4.63,21.11,23.8,20.86,29.41l-.9.62Z"/>
    <path d="M1014.61,771.44c.15-.36-.36-1.12.47-.95l.95,1.43c1.07-3.09,3.57-11.04,8.11-7.86,2.25,1.58.01,8.72-.69,11.2-.37,1.31-3.06,7.67-2.63,8.12,5.64-1.36,10.16-2.24,13.77-7.02,6.36-8.41,10.08-19.72,20.01-24.92,4.02-2.1,2.46-.68,4.22,2.3,2.74-2.52,4.64-5.65,6.47-8.83.35-.61.4-1.61.46-1.67.37-.41,1-.19.96.72s-1.01,4.91-1.34,5.84c-2.16,6.16-7.66,13.27-10.87,19.24-6.53,12.13-10.17,20.88-19.36,31.78-7.64,9.06-11.58,10.21-20.98,16.3-2.63,1.71-19.14,13.56-20.36,13.46-.56-.04-1.2-1.26-1.43-1.8-1.97-4.74,1.7-8.18,3.24-12.53,1.74-4.9,2.47-10.15,3.69-15.19-3.58,1.63-7.48,5.58-9.34,9.06-3.76,7.02-6.57,25.77-5.95,33.71.24,3.08,1.96,7.02,1.95,9.57-.01,1.97-1.19,2.8-1.47,4.53,8.56-2.18,16.99-5.03,24.85-9.08,1-.32,1.31-.16.96.48-.35.28-.61.68-.96.96-7.41,5.78-15.9,9.01-25.03,9.93-1.66,3.17-3.29,6.37-4.91,9.61l-2.56,1.5c-3.64.28-8.09-.99-11.71-1-2.89,0-5.49,1.51-8.37,1.48-.58-.58,1.99-8.88,2.51-10.17.23-.57.81-.76.83-.82,9.36-14.76,17.36-31.3,21.55-48.13-7.69.16-15.37.16-23.05-.03-.09.92-.38,1.34-1.37,1.31-2.04.99-5.09-1.24-6.94-2.38-2.45-1.51-4.99-3.59-7.4-5.27-1.73-.17-3.62-2.11-4.78-3.35-.7.74-1.25.83-1.91,0-.46.47-.78,1.11-.96,1.91-.17,0-.29.6-1.36.25-2.57-.84-4.97-3.53-7.29-4.74-2.57-1.35-5.73-1.93-8.41-3.54-2.24-1.34-3.55-3.21-5.4-4.64-.48-.37-.61-.93-1.44-.71,2.44,9.4,5.65,18.65,9.47,27.56,1.02,2.38,4.43,7.64,4.78,9.6.27,1.52-.15,4.71.09,6.56,1.04,8,3.94,18.23,7.16,25.58.54,1.83.65,2.84-.96.96-5.24-8.67-8.23-19.03-9.98-28.97-.36-2.05-.09-4.91-.65-7-.46-1.72-2.01-3.29-2.28-5.13-11.49,5.33-19.63,11.5-22.46,24.38-.24,3.58-.65,6.9-1.43,1.43-.31-5.89,1.39-12.56,5.74-16.73-1.51-.68-1.51-1.32,0-1.91,1.65-.55,3.28-1.03,4.96-1.49l12.14-8.29c-2.47-5.94-4.7-12.02-6.59-18.17-.83-2.71-2.81-7.73-2.86-10.29l-.46-2.94c.73-.73,1.48-.06,1.94.71l1.39.32c.35-.15.55-.38.53-.73l-2.97-5.72.53-1.2c-.56-1.85-.54-2.98.96-.96,1.35.5,2.46,1.58,3.31,3.26,1.96-1.5,3.54.45,3.82,2.44.35-.06.74-.04,1.01.2,1.53,1.38,3.12,2.76,4.78,3.66.76,3.41,4.68,5.49,7.9,6.52l.68,1.13c1.11-1.38,2.07-1.7,2.87-.96.66-.14,1.3-.14,1.91,0,.9.5,1.86.82,2.87.96,1.15-.4,2.1.24,2.87,1.91.33.21.4-.16.2-1.1,1.18-2.83,2.71-3.2,5.53-1.29.05-1.18.39-2.23,1.76-2.1,1.6-.06,3.09-.48,4.45-1.24-1.11-1.21-.55-1.8,1.68-1.79-.04-.79.51-1.31,1.67-1.56,1.1-.24,2.56-.45,3.35.48l1.43-.48.24.95c1.2-1,2.61-1.53,2.16.48.61.28.53-2.02,1.43-.95.31.37-.69,2.06-.47,2.39,1.57-.03,1.33-.53,2.38-1.43l.71,1.91c.71-1.66,1.64-3.19,1.21-.23-.14.97,1.78-.41,1.43-1.68.63-.26.48,1.98,1.43.95.12-.13-.5-1.51,1.21-1.9,1.52-.35-.27,1.24.47,1.42.68-1.8,1.91-.97,3.58-1.91.22,1.99-1.18,3.54-1.91,5.25l1.91-.95c1.09-.43,1.98.26,1.91,1.43.56-.29,1.81-1.64,1.92-2.39.79-.2.32.61.55.84.42.43,8.47-3.67,10.12-3.24.36.09.3.97.59.97.39,0,3.5-.07,3.68-.1,1.59-.31,7.13-5.6,8.2-7.11s2.68-6.52,3.23-7.01c.09-.08.69.22.86.04.79-.81,1.63-2.47,2.88-2.56.91.24,2.25-1.84,2.39-2.87Z"/>
    <path d="M1049.98,504.74c4.31,6.53,9.04,13.14,13.38,19.6,1.04,1.19.24,1.67-2.39,1.43,1.12.33,2.03,2.24,1.91,3.35,4.94,7.36,8.99,15.81,12.62,23.99,4.92,11.07,9.75,22.99,9.84,35.28.97.92.79,2.94.48,4.3.94-.58,1.1-1.86.48-3.82-.5-1.29-.25-2.89,0-4.3-.82-3.02-.07-6.5.96-2.39,1.42,11.45,2.25,23.47,2.88,35.11.18,3.22-.59,7.06-.97,10.29.31.04.66-.05.95,0,1.97-.71,3.11-.37.96.96-2.72,1.09-6.75,4.06-9.09,5.97-1.13.92-2.56,3.31-4.02,3.13-.81-.1-1.37-1.17-2.32-.93-.2.05-3.07,2.28-3.25,2.55-.94,1.4.72,7.72.43,9.94-.31,2.34-2.48,4.65-3.73,6.58-2.1.79-1.19-2.02-.38-3.28-.13-.13-3.51-.52-3.68-.44-1.34.57-1.2,2.4-.89,3.54-1.28,1.77-.74,2.49.79,3.91l-.14,1.06c-.41.3-1.01,1.61-1.68,1.91l-.71-1.43-1.92,2.38c.2-.62.74-1.1.85-1.77,1.01-6.2,1.43-12.79.6-19.04-.26-1.96-2.24-3.92-1.46-6.43l-23.3,2.27c-1.26,1.16-3.67,2.22-4.21,3.92-.22.7-.81,4.89-.71,5.51.2,1.22.61.98,1.46,1.21.19.45-.29.77-1.43.96-.46,1.05-.43,2.23.43,3.08-.59.44-.89,1.17-.9,2.18-.05.63.06,1.29,0,1.91.78.62.78.94,0,.96-.06.61-.78,4.15-.96,4.78.92.92.8,1.17-.48.96-.14.4-.34,1.19-.48,1.43.4.63.08,1.4-.29,2.05-3.67,6.51-18.12,8.87-25.03,9.78l-.97-.83c-.97.11-1.78.54-2.45,1.26l-10.98.8c5.16.64,10.26,1.45,15.33,2.43l.49.77c-2.65,1.28-2.49,1.28.48,0,1.08-.51,2.51-.51,4.3,0,.41-1.37.74-1.16,1.43,0,.77,1.07,2.86.03,3.86.69.63.42.3,1.36.44,1.7-.3.28-.61.53-.95.73-4.38,2.56-28.11-.99-34.71-3.23-2.51-.39-4.01-1.31-4.49-2.76-1.07,1.06-2.59-.73-1.91-1.91,2.97-.57,4.67.69,7.16,1.43.04-.58.09-1.28.33-1.81.39-.85,1.45-.21,1.11-1.54l-4.3-.48c.53-1.37,4.81-.99,5.02.48l.54-.96h8.83l.67.96c-.24-2.31,2.66-1.31,4.19-.75l2.26-.2.57-.96c5.14-.27,10.3-1.25,15.27-2.68,4.6-1.33,8.4-2.83,10.27-7.59l1.13-.24c-.31-1.86.01-3.13.96-3.82-1.32-.41-1.36-2.48,0-2.87.48-1.85.41-3.35-.44-4.97l.91-.77-.56-.38c-1.49-.44-2.74-1.08-.1-1.28,1.62-.56,1.01-6.16.66-7.9l-1.02-.4-1.17-6.49.75-.76c2.47.98,1.37,3.06,1.72,4.32.11.4.79.84.94,1.4.25.9-.69,1.9.68,2.65,1.88,1.03,1.32-.71,2.17-1.67s3.54-1.24,3.05-3.03c-.21-.75-1.45-1-1.44-2.48.01-1.13,1.21-1.86.97-2.77-.18-.68-1.37-1.04-1.39-2-.02-1.11,1.86-4.46.95-6.47-2.03,2.16-2.71-.36-3.2-.47-1.63-.35-3.94.63-5.4-.49,1.13-1.45,8.52-1.07,9.63-.12-.28,2.05-.31,4.32-.07,6.81l.96,1.77c-.34-1.63-.18-3.01.48-4.16l-.08-3.54c7.27-.2,14.67.78,21.9,1.8.44.06.87.26,1.3.47s.86.49,1.26.78l2.13-.07c.16-1.28.67-1.02,1.21.07l.61-.83-.62-6.27.96-.55c.94-.33,1.44-1.47,1.51-3.4.9.57,1.67.75,2.31.53.14-.42.3-.41.48,0l.64.17c.25,1.45.83,2.19,1.75,2.22l1.09.13,3.38,9.41c2.7,1.3,3.18-.36,1.45-4.97l.78-.75c1.52.55,3.14,5.11,2.8,6.35-.45,1.64-3.05,1.21-4.21,2.04-.51.37-.84,1.54-1.23,1.64-1.6.42-2.78-7.38-3.11-7.65-.13-.11-1.03.06-1.42,0-.19.18.17,3.14,0,3.97-.09.39-.8.38-.94.67-.77,1.57-1.52,3.83.95,3.49-.69,1.94-1.78,2.66-1.44,5.02s3.76-1.35,4.26-1.48c1.63-.41,3.55.64,4.81-.45.6-.52.61-1.68,1.41-2.42s2-.79,2.88-1.42c1.59-1.16,2.71-2.52,4.23-3.65.41-.69-.79-4.02-1.33-4.45-.27-.22-2.5,1.69-2.87,0-.32-1.43,2.23-1.07,2.37-1.21.12-.12.03-1.45.02-1.89,1.78.04,1.02-3.13.62-4.6-2.06-7.48-11.96-17.45-17.48-22.91-5.19-5.14-10.53-10.37-17.69-12.21.03-6.06.07-12.15.14-18.24-2.98-7.38-3.69-12.06-3.14-20.22,2.27-10.82,2.26-21.34-.06-31.55-.98-1.72-1.35-3.38-1.11-4.97-1.11-2.63.49-2.07,1.91-.48Z"/>
    <path class="cls-17" d="M974.46,476.06c.42.63-.06.79-1.43.48l-1.17.59c-4.59-1.53-9.51-2.84-14.37-3.02-9.37-.34-15.28,6.37-16.98,15.07,23.45-3.04,26.35,13.72,4.17,20.68,24,8.46,1.26,30.3-14.9,25.02l-2.17,10.45c-1.13,1.68-10.7,2.75-8.44-1.81l2.01-6.42c-4.7,1.58-13.44,2.6-14.99-3.71-1.31-5.33,5.65-10.96,10.74-9.47,1.62-4.32,3.22-8.64,4.8-12.97-3.98-.41-7.37-2.34-6.81-6.75.85-6.76,11.25-10.77,16.76-12.79.35-2.19,1.07-3.49,2.15-3.88.59-.12.75.51.48,1.91.69,1.03,1.32,1.24,1.88.63.87-4.83,3.08-9.26,6.39-12.98-6.45,2.82-12.46,6.79-18.36,10.81l-1.85.11c-1.87.68-.97-.43,0-1.43,10.14-6.99,15.92-13.02,29.06-15.16,10.21-1.66,14.34.55,23.04,4.64Z"/>
    <path class="cls-17" d="M1083.91,709.78c1.09-1.85,3.2-2.64,1.91,0-.82,1.07-.99,1.81-2.16,2.86-3.06,2.72-6.45,3.5-10.26,1.93-.71,8.2-.39,16.4-.46,24.63-.15,17.96-2.79,43.57,12.88,56.39,1.36,1.11,11.25,7.38,12.43,7.69,1.07.29,2.12-.32,3.45-.19,2.26.22,3.75,1.5,5.63,2.29.7,1.2.29,1.49-.96.96-.08.01-2.04-1.14-1.43.23.41.92,2.65,2.44,3.12,4.05,1.34,4.5-1.36,7.92-3.61,11.49-1.75,1.59-1.27-.49-.48-1.91,1-1.86,1.76-4.71,1.32-6.82-1.27-6.06-16.63-12.72-21.55-16.2s-8.44-10.5-9.89-16.17c-1.24-.19-.99.22-.97,1.21.04,2.89.89,6.6.99,9.53.34,9.28,0,18.87-1.68,27.99-.3,1.63-2.53,11.34-3.12,11.94-1.11,1.12-.99-1.62-.97-2.17.22-5.11,1.7-10.84,1.95-16.21.42-9.02-.06-18.54-.98-27.5l-5.24,16.5c-1.2,3.22-2.72,6.3-4.31,9.31-.62.54-.78.22-.48-.96,9.36-23.47,11.29-51.12,11.97-76.21.5-18.3-1.03-36.55-.98-54.75-.25-1.42-.33-2.84-.22-4.27l.69-.03c.64,5.3,1.44,10.7,1.91,16.02s-.26,13.97,1.19,18.4c2.12,6.46,6.91,1.95,10.28,0Z"/>
    <path class="cls-47" d="M957.25,813.98c-.01-.55,1.02-1.73,0-2.86,8.31,2.15,16.87-.13,25.33.47.28,2.93-1,5.65-1.91,8.38-2.16,6.49-5.19,13.92-8.05,20.15-3.24,7.06-7.18,15.06-12.51,20.71,2.91-6.81,6.63-13.15,9.95-19.75-.57-1.69-1.94-2.96-2.53-4.64-.9-2.56-.47-5.14-1.49-7.59-1.16-2.78-8.76-13.41-8.79-14.87Z"/>
    <path class="cls-29" d="M919.49,489.92l-.37,1.48c-5.94,5.31-11.63,9.94-19.43,11.87-6.97,3.79-14.56,8.03-20.53,13.35-9.14,8.14-14.5,22.59-16.3,34.57l-1.19,1.83c-.25,1.6-.72,6.41.14,7.43l.81-.26c.19-1.58,1.49-2.24,2.87-1.43,1.23-.54,1.45.1.48.96-1.32,1.78-3.28,3.18-5.87,4.18-2.17,1.75-4.35,2.74-6.56,2.99-1.23.53-1.45-.09-.48-.96.77-.55,3.04-2.02,3.26-2.72.72-12.89,2.47-26.14,9.93-36.91,6.75-9.74,14.28-14.68,24.25-20.68,5.11-3.07,6.39-3.8,11.09-7.56,4.82-3.85,11.14-5.38,16.48-8.61,1.16-.45,1.64-.29,1.43.48Z"/>
    <path class="cls-56" d="M870.74,681.58c.22.24,2.41,2.05,2.87,2.39,3.01,18.49,6.45,37.8,10.64,56.31,4.37,19.35,9.94,29.06,23.45,42.91,1.98,1.35,3.2,2.85,3.67,4.49l-1.43,1.43-.95-2.39c-.29.98-.5,1.82-.48,2.86-.9-4.61-5.32-6.8-8.37-10.03-8.67-9.17-12.72-17.02-16.35-29.06-6.76-22.44-8.49-46.01-13.04-68.93Z"/>
    <path class="cls-2" d="M1049.98,504.74c-1.08-.6-2.21-.99-1.91.48l-1.57-.88c-5.6-10.35-14.98-14.43-25.97-16.54-5.79-1.12-13.36-2.21-19.2-2.65,1.39,1.83,1.43,3.33-.75,4.41-2.86,1.41-14.98-1.48-16.85-4.01-.81-1.1-1.14-2.12-.53-3.41-3.45-1.14-6.76-2.62-9.93-4.46l-.24-1.13,1.43-.48c2.64,1.24,5.15,2.96,8.03,3.68,10.54,2.63,24.72,2.9,36.03,5.07,15.48,2.97,22.75,6.71,31.46,19.92Z"/>
    <path class="cls-27" d="M1085.82,709.78c.17-1.97-1.09-.48-1.91,0,.53-1.61,1.81-2.77,2.64-4.29,2.89-5.32,9.07-17.49,10.51-22.95,1.36-5.16,2.09-10.45,3.58-15.78-.43-.25-.61-.57-.45-1l3.09-13.23c1.18-6.76,1.94-14.63-2.7-20.28l.06-1.33c-1.69-3.95-6.11-3.78-9.56-2.39l.48-.95c-.46-.06-1,.07-1.43,0,13.22-7.48,17.15,11.31,16.72,20.79-.37,8.31-3.22,14.01-5.22,21.54-1.41,5.29-2.05,11.15-3.83,16.24-1.82,5.22-8.76,19.45-11.97,23.64Z"/>
    <path class="cls-48" d="M1009.35,850.3c-5.48,4.46-9.97,10.53-16.1,14.25-3.08,1.87-13.13,6.53-16.4,6.78,2.68-1.68,5.39-10.64,6.82-11.82.76-.63,5.97-.92,7.54-1.3,6.43-1.59,12.23-5.09,18.15-7.9Z"/>
    <path class="cls-98" d="M1104.46,822.1c-13.14,20.93-44.94,41.91-66.44,54.01-.99.32-1.31.16-.96-.48,10.12-5.91,20.69-13.13,30.11-20.07,11.24-8.28,30.22-23.18,36.8-35.37-.31.88-.64,1.59.48,1.91Z"/>
    <path class="cls-101" d="M1087.26,582.17c-.66-.52-.16-1.62-.95-1.43-.03,1.27.02,2.55,0,3.82-.14.42-.3.41-.48,0l-.67-1.04c-1.06-11.78-4.14-23-9.85-33.37-4.38-7.19-8.36-14.52-11.95-21.99-.75-.7-1.55-1.49-2.39-2.39.07-.8,2.29-.22,2.39-1.43,13.43,19.93,20.87,33.4,23.9,57.83Z"/>
    <path class="cls-37" d="M853.06,565.92l.48.96-.61,1.59c-15.49,11.43-34.65,31.38-29.5,51.94.47.32.96.19,1.43,0,.37,2.57-.32,1.47-1.91,2.39-9.7-12.8,6.41-36.31,15.75-45.67,4.38-4.39,9.38-7.64,14.36-11.21Z"/>
    <path class="cls-98" d="M900.85,827.84l-.48.95h1.91c-.16.85-.77.85-1.43.96-8.19,1.4-27.07,12.57-35.37,17.21-.99.33-1.31.17-.96-.48,12.19-7.22,22.78-14.16,36.32-18.64Z"/>
    <path class="cls-67" d="M932.4,812.55l16.24,10.27c.06,2.18-5.63-1.16-6.17-1.47-3.71-2.19-7.3-5.52-10.08-8.8Z"/>
    <path class="cls-117" d="M945.78,847.91c-6.71-1.63-14.81-4.98-18.64-10.98,1.82-.21,2.58,1.64,3.86,2.58,1.37,1,3.13,2.22,4.59,3.05,3.35,1.92,7.34,2.85,10.18,5.35Z"/>
    <path class="cls-145" d="M1107.33,805.37c1.39.59,2.72.82,4.31,1.66.93.49,10.14,6.43,9.07,7.41l-14.34-8.12c.14-.02.69-.79.96-.96Z"/>
    <path class="cls-38" d="M952,847.91c-3.23.09-6.69-2.5-9.24-4.38-2.94-2.17-5.63-4.76-7.97-7.56l8.45,6.6,8.75,5.34Z"/>
    <path class="cls-43" d="M1037.55,859.86c-.52.84-1.34,2.09-1.91,2.87-.92,1.24-7.6,9.48-9.08,8.12.74-1.89,3.06-3.16,4.55-4.77,1.01-1.09,2.11-2.63,3.1-3.83.88-1.07,2.08-2.3,2.87-3.35.74-.5.9-.18.48.96Z"/>
    <path class="cls-75" d="M1037.07,875.63l.96.48c-5.22,2.94-9.34,5.16-14.82,7.65-.81.3-.92.3-.48-.48,4.65-2.73,9.7-4.94,14.34-7.65Z"/>
    <path class="cls-117" d="M864.53,846.48l.96.48c-4.44,2.48-8.88,5.16-13.38,7.65-.78.34-.92.28-.48-.48,4.09-2.87,8.67-5.14,12.9-7.65Z"/>
    <path class="cls-10" d="M944.83,835c-3.5-.05-6.53-3.22-8.6-5.73l7.33,4.38,1.27,1.35Z"/>
    <path class="cls-140" d="M852.1,854.6c-1.2.66-3.01,2.37-4.43,2.97-.76.32-1.43.47-2.26.37l6.21-3.82.48.48Z"/>
    <path class="cls-104" d="M1015.56,846c-1.55,1.13-4.09,2.41-5.26,3.35l-.96-.48c1.37-.71,2.95-1.8,4.34-2.59.46-.26,1.56-1.29,1.87-.28Z"/>
    <path class="cls-124" d="M922.36,486.57l-.43,1.15.43.28c.57,1.39-1.71,2.72-2.87,1.91l-1.43-.48c1.29-.78,3.02-1.98,4.3-2.87Z"/>
    <path class="cls-144" d="M936.22,802.98c.98-.22,1.54.7.96,1.43h-.65c-.61,1.56-.83.46-1.27.48l-1.91-2.87c1.12-.32,2.07.79,2.87.95Z"/>
    <path class="cls-82" d="M942.91,806.33l-.96.48c-.64.42-1.4-.26-1.43-.96-1.32-.13-4.93-3.04-2.39-2.87,1.96.8,3.2,2.24,4.78,3.35Z"/>
    <path class="cls-10" d="M938.13,802.98l-.47.24c.81,1.04,1.9,1.77,2.86,2.63.63.67.37.92-.48.48-.85-.67-2.1-1.22-2.87-1.91-.35-.31-.61-1.04-.96-1.43.22.04.34-.64,1.91,0Z"/>
    <path class="cls-71" d="M1023.21,883.76c-1.72.78-3.49,2.74-5.73,2.38l5.26-2.86.48.48Z"/>
    <path class="cls-92" d="M896.55,845.05v5.74c-1.73-.82-1.35-2.77-1.43-4.3l.39.32.1,2.07h.47c-.35-1.52.22-2.63.48-3.82Z"/>
    <path class="cls-67" d="M932.88,860.82c.61,1.38,1.49,2.68,1.43,4.3-1.27-.67-1.74-2.28-2.39-3.35l.95.48v-1.43Z"/>
    <path class="cls-90" d="M941.96,806.81c.58.54,1.12,1.65,1.91,2.15-1.11.48-2.79-1.81-3.82-2.63l.48-.48c.4.36,1.04.6,1.43.96Z"/>
    <path class="cls-152" d="M1016.52,683.97c1.02,2.36,3.72,2.05,4.82,3.55.43.58.9,3.08.93,3.88.32,8.68-3.38,18.27-3.35,25.79.01,3.1,2.96,7.76,3.34,11.47.53,5.22-.99,11.59-.69,16.99-1.03,5.14-8.08,6.31-10.52,10.03-.85,1.3-2.8,7.38-3.13,7.63-.43.32-2.03-.76-2.38-.47l.96,1.9-2.87-.95,1.43,2.86c-4.24-1.62-1.07,2.49-1.43,2.87-1.29.22-2.26-2.28-3.33-.72l1.42,3.59c-2.71-.7-2,1.73-2.39,3.82-1.26.33-1.08-1.22-1.76-1.44-2.2-.74-1.64,1.92-2.78,2.4-.85.43-.67-.97-.96-.98-.64-.03-2.39,1.09-3.1,1.46-.81-.94-1.61-1.1-2.39-.48-.22.49-1.14,3.68-1.91,2.87-.35-.37-1.49-5.75-3.35-6.21v4.78s-1.91-2.87-1.91-2.87l.47,5.26-2.38-3.82.47,4.77c-.77-.2-.83-1.39-1.42-2.15-.34-.43-.9-1.03-1.43-1.19l.47,3.82-1.9-1.43c-.25,1.01.56,2.14.48,3.02-.04.47-3.3,2.74-3.11.8-1.25,2.33-4.49,4.31-6.22,1.43-.56.06-.05,1.21-.24,1.44-.13.16-3.49-.48-4.06-.77-.41.02-.81.55-1.19.76-.64,1.72-1.19,2.15-1.65,1.31l-1.7.12-.36-.22c.73-1.32.26-.62-1.42,2.08-1.24-.04-1.92.45-2.04,1.49.94.99-2.23,1.55-3.2,1.05-1,.61-2,1.06-3.01,1.34l-.46.35c-1.75-.8-3.03-.73-3.26,1.18-.55.07-1.06.67-1.54,1.81-1.62-.61-1.7-.84-2.87-1.91-.87.14-1.82-.18-2.87-.96-.67.29-.05,1.77-1.91,0-.82.37-1.52.13-2.1-.7.14.81.13,1.3-.77,1.66-3.88-.79-4.1-1.39-6.69-3.52-.22-.18-.83.08-1.18-.29-.74-.78-1.27-3.24-1.77-3.72-.1-.09-.62.32-1.06-.12-.58-.59-1.56-1.57-1.72-2.38l-.94.95-.49-1.9-.94,1.43-.97-3.35-1.44-.95-.71,1.91c-1.38-1.72-2.53-3.39-3.59-5.26-1.14-1.15-1.35-.37-.96.96.79,2.09,3.56,6.48,3.83,7.88.3,1.59-1.4.16-1.92-.23-6.24-4.66-15.16-15.8-19.32-22.5-6.08-9.79-7.97-20.76-10.17-31.89-2.86-14.49-7.06-32.42-8.7-46.76-.09-.78-.39-2.07.42-2.56,6.55,4.95,17.94,4.24,26.07,3.84,4.23-.21,8.43-1.14,12.65-1.45-1.11,2.38-11.54,3.81-11.95,4.3-.14.17-.02,1.14.21,1.46.83,1.13,8.61-.39,10.32-.73,4.4-.86,8.55-2.55,12.89-3.6-.58,1.38-1.64,3.36-1.91,4.77l-1,3.19c-5.47,7.33-9.14,15.7-11,25.1-4.33,7.54-6.63,15.68-1.65,23.52l.74-.66c-1.89-12.82,8.56-30.01,14.82-41.1.68-1.54,3.91.9,4.3,1.91,1.52.01,3.02-.1,4.52-.33,1.31-.94,4.24-1.4,5.04.33,1.76.77,3.63,1.5,5.6,2.2l.13.67c1.13-.28,1.93-.12,2.39.48,2.5.74,2.64,3.88,1.43,5.74-.35,3.03-.66,6.1-.94,9.23.71-1.24,1.5-1.61,2.38-1.1.31-1.17.95-1.81,1.91-1.91-.63-1.74-1.42-5.35-.96-7.17-1.18-2.93-.86-4.04.96-3.35,1.76-1.16,5.67.88,7.49,2.01s5.26,3.56,4.93,5.64c1.46,2.7.52,9.7-1.74,11.79-1.33,1.23-5.37,2.74-7.24,3.37-4.75,1.61-6.09,2.06-10.9-.2-5.06.34-10.02,1.98-14.9,4.91-.89.47-1.72.53-2.5.19-.96,1.32-2.08.37-3.35-2.87-5.05,2.88-9.09,8.47-9.5,14.29.56-1.32,1.34-1.94,2.33-1.86-.18-.22-.31-.43-.28-.61.36-2.2,23.34-11.9,27.6-11.19,6.52,1.55,11.35,1.01,17.56-1.65.62-.21,1.12-.03,1.48.54,2.36.02,4.53.96,6.51,2.83,6.03,1.58,12.32,2.17,18.89,1.78,5.42.61,12.47,2.33,16.18,6.39l.58.02c-.44-.93-.55-1.93-.1-2.88-.53-.87-.15-6.3.39-6.76.46-.39,1.12-.48,1.7-.35,2.55,1.36,4.4,1.49,5.55.42.19-2.79.19-5.66,0-8.6-.99-.61-1.73-1.72-2.22-3.32l-4.6-5.13.13-.62c-3.4-2.42-6.41-6-8.6-9.56-5.03-7.66-9.83-14.85-17.04-20.62-1.75-1.68-6.27-6.17-3.84-8.62.25-.26.85-.06,1.28.09,3.65,1.91,10.96,3.58,15.12,4.24,7.98,1.25,17.05,1.87,25.03,1.02Z"/>
    <path class="cls-17" d="M1083.43,648.13c.36,2.52.6,5.09.47,7.64-.98.13-.51-2.45-1.66-1.9-.83.39-.77,1.26-.64,2.03.45,2.63,5.56,8.67,6.71,11.97,1.42,4.1.34,11.89-3.66,14.23-2.22,1.3-2.6-.55-3.97-.9-2.65-.69-3.57,3.3-4.3,5.08-.29.72.29,1.3-1.07,1.05-1.49-8.02,6.77-9.36,3.43-17.53-.96-2.36-4.76-6.48-4.41-8.97.19-1.3,3.69-3.87,4.72-5.36,1.47-2.14,2.56-5.42,3.9-7.81.72-.7.98-.44.48.48Z"/>
    <path class="cls-17" d="M1097.77,633.79c2.56.25,3.77,4.45,4.37,6.8,1.77,6.83-.04,16.06-1.47,22.93-.09.43-.56.68-1,.86l-2.39,2.87c-.45-5.74,3.06-11.83.85-17.34-.27-.68-2.71-5.1-3.01-5.11-1.12-.03-.66,5.15-.72,6.2.27,1.87.11,3.3-.48,4.3-.97-2.34-1-15.73-1.9-16.5-.26-.23-.79-.12-.96-.23-1.27.42-1.28.03-.48-.96,2.02-1.93,3.91-4.18,7.17-3.82Z"/>
    <path class="cls-134" d="M1012.22,681.58c-.47.04-.96-.02-1.43,0l-4.54-.65c-2.64-.41-7.27-3.8-2.63-4.61,8.25-1.1,21.96-3.02,26.29-10.99,1.25-.71.92-.77.76.52-1.27,10.39-8.71,14.99-18.45,15.73Z"/>
    <path class="cls-32" d="M1100.64,630.92c8.55,8.46,2.72,26.13,0,35.85l-1.43.96c.18-1.11.32-2.23.47-3.35,1.39-9.85,5.09-21.98-1.91-30.59-.23-.28-.99-.48-.95-.7.2-1.29,2.74-1.62,1.91-3.6.07-.09,1.7,1.23,1.91,1.43Z"/>
    <path class="cls-101" d="M1047.11,801.55c-6.53,11.28-15.88,20.6-26.77,27.72-.99.4-1.31.24-.96-.48,9.1-6.9,20.8-18.79,27.24-28.2.68-.52.84-.2.48.96Z"/>
    <path class="cls-29" d="M1095.38,674.41c-.3,5.91-.92,10.42-4.58,15.25-.42.56-2.93,3.22-3.31,3.38-1.03.43-.73-1.12-.73-1.68.05-7.39,7.07-10.41,7.67-16.47.08-.27.14-.49.48-.48.14-.42.3-.41.48,0Z"/>
    <path d="M1064.79,660.55c-.88-.45-2.34-2.27-2.41-3.14-.07-.98.75-1.42.84-1.95.11-.65-.5-1.41-.28-2.21.26-.93,1.96-1.18.9-2.73,1.97,1,3.5,1.15,5.74.95.55,1.34-.7,2.45-.83,3.21-.1.58.36,1,.35,1.09-.65,4.3-1.57,2.76-4.3,4.78Z"/>
    <path class="cls-101" d="M1033.73,732.72c-.7.12-.62-.9-.73-1.42-.38-1.89-.49-3.81-.94-5.75-.71-3.04-3.14-9.15-3.12-11.72,0-1.15,1.36-4.08,2.35-2.33,1.54,2.71,1.32,7.08,2.44,9.99v11.23Z"/>
    <path class="cls-81" d="M1033.72,737.02c1.45,1.38-2.95,19.14-4.27,21.78-.35.7-.43,1.36-1.46,1.16,2.42-7.07,3.06-14.72,3.41-22.15.33-1,1.43-.81,2.32-.79Z"/>
    <path class="cls-37" d="M999.79,844.57c3.11-1.9,27.12-18.5,28.67-17.2.26,1.27-.32.82-.94,1.19-8.99,5.27-17.75,11.63-26.78,16.5-1.01.35-1.33.19-.96-.48Z"/>
    <path class="cls-64" d="M1048.07,834.53c5.04-5.77,9.42-12.72,13.63-19.12.37-.56-.12-1.23,1.18-.95-2.59,7.96-8.21,15.02-14.34,20.55-.67.63-.92.37-.48-.48Z"/>
    <path class="cls-43" d="M1031.33,832.14c.13,1.16-1.77,1.84-2.62,2.4-5.03,3.35-10.83,7.17-16.5,9.06l19.12-11.46Z"/>
    <path class="cls-112" d="M1014.13,826.41c-2.32,1.95-5.01,3.38-7.4,5.27-3.23,2.54-6.03,5.65-9.33,8.11-.21-.9.5-1.14.95-1.67,3.88-4.62,9.96-9.96,15.77-11.7Z"/>
    <path class="cls-84" d="M1023.69,815.41l12.9-11.94c-1.28,2.96-5.09,6.75-7.64,8.85-1.43,1.18-3.45,2.63-5.26,3.1Z"/>
    <path class="cls-53" d="M1095.38,663.9c-.11,3.54-.27,7.04-.48,10.52l-.48.48c.62-6.34-.52-13.34-.48-19.6,0-.76.4-2.99.48-4.3l.95,7.89c.05,1.67-.03,3.35,0,5.01Z"/>
    <path class="cls-34" d="M1091.08,638.57l-7.65,9.56c-.03-.22-.25-.43-.48-.48,2.24-3.97,4.34-6.88,7.65-10.04-.06.51.06.69.48.96Z"/>
    <path class="cls-96" d="M980.2,794.86s-.6-.44-.96-.21c-.67.43-.62,1.92-1.91,1.64-.14-.15,1.12-1.72,1.3-2.23.1-.27-.36-.6-.35-.63.71-1.76,2.32-3.19,3.82-4.3l-1.91,5.74Z"/>
    <path class="cls-76" d="M1070.53,675.37c-.86.94-.47,2.96-.48,4.3-.68-3-.97-6.48-.96-9.56-.38-1.76-.22-2.71.48-2.87.45,2.69.63,5.42.96,8.13Z"/>
    <path class="cls-84" d="M1032.29,650.04c-.65,3.2,1.72,2.83,3.84,4.07.62.36,1.2-.08.94,1.19l-4.54-1.91-.71,1.91c.12-1.62-.48-4.13.48-5.26Z"/>
    <path class="cls-132" d="M961.08,787.69c-.1.46.15,1.69,0,1.91-.06.09-1.18-.22-1.19,1.43l-.72-1.91-.48,1.43c-.82-.09-.78-.87-.95-1.43-.74,1.04-1.32,2.76-1.44,2.87-.09.09-1.1-.55-1.63-.53s-.21.92-.28,1c-.12.43-.28.42-.48,0-.41-.53-.71-2.57-.48-2.87.82-1.01,1.09,1.96,1.91.95.17-.21-.17-1.68,0-1.91.84-1.11.85,1.25,1.43.95l.72-1.91c.53.13.11,1.04.24,1.43.89-1.26.54-2.68,2.15,0,.37-2.21,1.1-1.38,1.19-1.44Z"/>
    <path class="cls-104" d="M1020.34,829.27c-1.92,1.26-3.91,2.85-6.21,3.34,1.25-1.76,3.67-2.61,5.26-3.82l.96.48Z"/>
    <path class="cls-137" d="M1031.81,657.21c1.72,1.06,4.2,1.5,5.26,3.34-1.95-.05-3.68-1.39-5.26-2.39.03-.31-.03-.64,0-.96Z"/>
    <path class="cls-11" d="M1069.57,667.24c-.8.52-.47,1.97-.48,2.87l-.95-7.65c1.26.87,1.2,3.4,1.43,4.78Z"/>
    <path class="cls-5" d="M1047.11,801.55l-.48-.96,3.34-5.26c-.17,2.31-1.75,4.29-2.86,6.21Z"/>
    <path class="cls-154" d="M1000.75,845.05c-.82.44-4.62,2.9-5.26,2.39-.9-.73.66-1.02.94-1.19,1.07-.63,2.31-1.04,3.36-1.68l.96.48Z"/>
    <path class="cls-74" d="M1095.38,674.41h-.48c.29-3.39-.61-7.29.48-10.52.06,3.4.17,7.15,0,10.52Z"/>
    <path class="cls-147" d="M1030.86,662.94c1.24.34,2.37,1.35,3.4,2.11.25.18,1.75.51.9,1.23-.67.57-3.69-2.47-4.78-2.39.11-.32.39-.63.48-.96Z"/>
    <path class="cls-129" d="M1059.54,811.59c-.17.32-1.84,4.88-2.87,3.82-.27-.28,2.14-4.16,2.39-4.78l.48.96Z"/>
    <path class="cls-131" d="M1014.61,771.44c.74.93-2.22,5.01-2.39,4.78.08-.59-.14-1.4,0-1.91.15-.57,1.3-2.52,1.88-1.46-.09-.63.34-.98.51-1.41Z"/>
    <path class="cls-80" d="M1033.73,649.08c.32.09,4.6.87,3.34,1.91-.28.23-3.77-1.51-4.78-.95.34-.4,1.02-.59,1.43-.96Z"/>
    <path class="cls-100" d="M990.71,777.65c-.14.07-.06.73-.95.48-.21-3.2-.11.35-1.44-.96.36-.79.29-2.1,1.43-2.39l.96,2.87Z"/>
    <path class="cls-49" d="M1037.55,859.86l-.48-.96c.74-.99,1.13-2.72,2.39-3.35.1,1.7-1.09,2.99-1.91,4.3Z"/>
    <path class="cls-92" d="M1048.54,835.01c-.95.85-1.51,2.73-3.35,2.38.48-1.25,2.13-2.02,2.87-2.86l.48.48Z"/>
    <path class="cls-152" d="M973.03,476.54c2.01.77,4.7,2.52,6.84,3.43.68.29,5.59,1.63,5.1,2.3-.1.14-2.23.27-.51,2.68,2.06,2.88,24.24,7.77,14.38-1,1.33-.41,3.1.48,4.59.66,18.08,2.27,35.03,2.28,44.63,20.61,8.07,15.4,1.1,29.87,1.9,45.19.24,4.5,2.97,7.84,3.36,11.45.64,5.86-.56,12.04-.46,17.9,1.69.05,3.42.81,4.93,1.52,7.07,3.35,24.5,21.88,28.41,28.94,2.38,4.3,3.3,7.59,2,12.57l-1.43-2.87c-.2-6.66-17.64-26.66-22.99-31.74-6.57-6.23-8.65-4.91-15.98-7.92-2.37-.97-4.5-2.96-6.92-4.08-11.58-5.32-26.15-10.52-38.25-15.29-31.98-12.6-56.16-14.55-90.32-11.73-15.14-.11-31.38,2.73-45.45,9.48l-1.39.08c-.93.48-1.92,1-2.87,1.43l-1.15.25c-.22-2.49-.16-4.97.19-7.42,1.47-12.9,5.56-22.56,13-33.13,3.81-5.41,18.63-14.63,24.91-17.62,2.03-.96,3.87-1.15,5.71-1.93,5.51-2.32,9.35-6.88,14.21-10.41.75-.55,1.96-1.29,2.87-1.91,4.75-3.25,10.36-7.03,15.45-9.64,2.33-1.19,4.82-2.78,7.49-2.78-3.42,3.48-5.63,6.48-7.3,11.09-1.05,2.89.16,5.14-4.17,4.67-.03-.68.29-1.28.48-1.91.25-1.93.09-2.56-.48-1.91-.34,1.03-.95,4.13-1.44,4.54-1.05.88-6.69,2.52-8.74,3.68-3.67,2.09-10.25,7.37-6.95,12.02,1.53,2.15,3.26,1.59,5.45,2.21.57.16.85-.32.63.66-1.04,4.7-4.18,9.81-5.21,14.64-5.08-2.8-13.15,4.29-9.77,9.54,2.44,3.79,11.12,2.71,14.55.5.68.92-3.09,8.66-2.39,10.51l6.68-.5,2.41-11.93c8.29,5.32,28.76-5.1,24.6-15.77-.93-2.38-4.33-4.61-6.59-5.83-1.79-.97-3.72-1.08-5.11-2.29,5.35-1.09,18.11-6.63,17.02-13.4-1.13-6.98-14.72-6.87-19.88-5.73,1.31-7.78,6.63-16.16,15.11-17.15,5.36-.63,13.75,1.36,18.83,3.29Z"/>
    <path class="cls-47" d="M952.95,585.03c5.1-1.08,20.44-2.82,24.54-.41.82.48,1.75,1.49,2.22,2.32h-8.36c-.1,0-1.86.45-1.67.95,2.84.09,5.95.43,8.7,1.1.72.17,2.56.48,2.77,1.29-9.99-.51-19.34,2.41-28.2,6.7.12.46.6.62,1.43.48,11.3-3.96,14.69-4.76,26.68-2.06,3.92.88,8.15,2.73,11.92,3.37,4.39.75,7.61.06,12.07,2.03.13.97-.99,1.29-3.35.96-.55-.12-1.07-.41-1.43-.48l-5.62-.19c-.13,0,2.29-.14,2.27.67,7.52,1.64,15.03,3.27,21.5,7.65.69-4.41,1.28-7.21,6.46-7.2,4.56,0,8.47.7,13.37.03,1.75-.24,7.64-2.07,8.5-1.84.71.19,5.3,5.63,5.59,6.41.35.96-1.28.43-.92,1.39.1.27,2.74,3.8,3.09,4.13.85.81,1.46.53,2.16,1.1,1.31,1.07,2.08,3.08,3.58,4.11l1.19-1.43c.03.91.66,1.6.96,2.39,1.09,2.16,1.86,4.51,2.32,7.05l-2.8.12c-8.01-.89-16.05-2.13-24.1-2.4l-.28,2.88c-.51-.35-.99.45-1.43,2.39l-.48-6.21c-2.98-.7-6.1-.18-9.08-.48-1.31-.13-2.95-.68-4.3-.96-.95-.15-2.07-.91-1.91-1.91-.34-1.88,2.49.42,1.84-2.07-.53-2.03-9.68-8.64-11.93-9.58-7.15-2.98-12.85,4.3-18.94,5.33-5.33.9-11.26-.84-16.15,1.55-.28-1.98-2.3-.13-3.1.95-1.32.95-2.34,2.4-3.06,4.34-.52,0-.93-.17-1.25-.52-.95.68-1.69,1.55-2.21,2.59l-.65.28c-.03.15.02.32,0,.48-.98.65-.98,1.6,0,2.87.77.57,1.2,1.09,2.39.96-.66,1.68-3.05.64-4.29.22-4.17-1.43-9.44-6.99-11.01-10.74-.49-.43-.65-.11-.48.96,1.2,3.19,2.1,6.6,4.3,9.32,2.67,3.28,4.75,1.94,8.6,2.15.35,1.31-1.03,1.15-1.91,1.43-1.02,1.14-2.62,1.62-4.78,1.43-7.33,1.47-15.94,1.32-23.42,1.91,1.04-2.41,2.34-4.89,2.75-7.52.09-.57.51-1.94-.59-1.55-.5.17-4.43,8.08-5.98,8.85-1.17.59-8.5-.6-10.52-.72-.64-1.21-.25-1.6.96-.96,3.46-.29,5.46-1.93,6.01-4.92.25-2.43.79-4.61,1.64-6.55.24-1.03.71-3.57-.48-3.35.24,2.28-.02,5.22-.77,7.4-.62,1.81-2.02,5-4.01,5.03-1.8,1.27-1.86.18-.96-1.43-.05-.63.08-1.29,0-1.91-1.33-.41-2.44-1.37-3.35-2.87-.72.17-1.39-.23-2.01-1.18l-2.29-1.21c-2.95.21-2.31-.27-3.18-.47-2.97-.7-9.13,2.88-12.83,2.86-4.39-.02-9.57-4.49-14.37-2.42-1.71.74-2.62,3.05-4.5,3.38-.66-.71,5.38-6.93,6.21-7.64l-.21-.64c1.3-.71,3.11-1.75,4.26-2.74.03-.02-.08-.21-.23-.44-1.86.73-2.61.39-1.43-1.43,5.77-5.87,12.82-10.48,21.03-11.47,4.79-.35,9.57-.35,14.34,0,.32,0,.64,0,.96,0,3.58.34,4.44.37,2.57.09l-.18-.57c-11.49-2.65-21.5-3.15-31.99,3.14-1.16.7-7.01,5.62-7.68,4.98.68-3.12,2.52-4.94,5-6.7,4.71-3.35,11.26-6.79,16.98-7.64.09-.85-1.62-.51-2.14-.46-3.59.32-7.76,1.86-11.09,3.25-1.41.59-3.17,2.08-4.46,1.76,4.98-5.63,11.13-9.5,18.64-10.76,3.17-.51,6.39-.36,9.56,0,.16,0,.32,0,.48,0,10.16,1.31,19.88,2.52,30.25-.91l2.25-.05Z"/>
    <path class="cls-47" d="M941,644.3c3.46-1.22,6.96-1.66,10.2.56,2.55,1.75,3.08,7.18,3.21,10.18s-1.28,13.99-.27,15.57c.36.57.64.55,1.22.24,2.09-1.12,1.95-8.51,2.61-10.77,2.97,5.75,6.09,10.55,11.56,14.25,1.78,1.2,3.36,1.59,4.93,2.48.39.22,1.55,1.72,1.91,1.91-.76.5-.98,1.24-.94,2.1.18,3.77,8.91,9.73,11.64,12.76,2.69,2.99,5.68,8.2,7.85,11.74.49.79.91,1.61,1.04,2.55-1.13-.23-2.54-1.75-2.87-2.87-7.55-7.64-15.01-15.84-21.86-24.06-4.3-4.89-15.43-2.77-11.65,4.9-.27-3.74,3.52-4.73,6.02-2.31-.77-4,2.44-3.08,4.82-1.69,3.12,1.81,6.26,5.81,6.89,9.39.57,3.22-.2,9.18-3.82,9.95-.19.43.13.59.96.48.98-1.6,1.99-3.3,3.02-5.11,1.52-4.8,2.42-4.22,6.38-1.05,3.21,2.56,6.43,6.69,8.76,9.99,4.12,3.56,8.05,7.9,10.99,12.43,4.79,2.74,7.93,8.6,7.17,14.34.19,1.07.34,2.02.48,2.87-.15.58.2,1.59-.78,1.88s-4.45-1.68-5.91-1.4c-.03,2.18-1.07,3.97-.96,6.22-.14.42-.3.41-.48,0-1.11-1.48-1.61-3.48-1.49-6-.6-2.47-3.74-2.84-5.87-3-10.71.39-21.51.36-32.41-.09-4.13.73-8.19,1.75-12.18,3.06-7.9-1.46-14.68-1.22-22.04,2.46-1.53.65-4.32.9-3.45-1.22,5.57-1.62,11.15-6.93,17.32-6.09,2.07.28,4.39,1.98,6.29,1.78,1.05-.11,9.59-3.51,10.66-4.19,3.11-1.97,2.47-8.19,3-11.57l1.06-.28c3.98,4.79,5.27,4.55,3.87-.71-1.13-4.07-2-8.19-2.61-12.35-4.71-2.22-2.44-3.83,1.23-5.21,4.74-3,.37-3.97-3.07-3.29-2.29.45-12.25,3.81-7.83,6.54.37,1.51-5.04,6.26-6.5,4.79-3.89.51-8.24.7-10.99-2.39-1.96.19-5.03-2.97-4.3-4.78l1.13-.55c2.62,1.15,5.41,1.36,6.95-1.52,2.01-4.36,4.14-7.84,8.26-10.57,1.38-1.53.89-3.79.46-5.64-3.35-8.62-4.75-17.76-4.21-27.43.31-5.89-1.29-8.68-4.8-8.35l-.61-.91Z"/>
    <path class="cls-152" d="M914.71,653.86c1.23-.33,2.45.33,3.65,1.99,1.7.22,2.39.83,2.08,1.83l-.49,1.15c.77-.49,1.36-.52,1.93.28,1.21.79.98,1.51-.48,1.43-.75.72-.43,1.2.96,1.43l.96,1.43c.39.89.87,1.37,1.43,1.43-.53-1.55,2.19-4.68,3.82-4.78,1.27-.71,1.59.4.96,3.35-.26,17.54-12.85,19.87-27.54,21.45-11.93,1.28-25.78,3.22-31.25-9.5.21-1.31.21-2.58,0-3.82-.62-2.17-.51-5.34-.06-7.56.01-.06.24-.08.54-.09,1.03.29,1.61,1.03,1.77,2.22l.18-8.62c-.11-1.07.46-1.41,1.3-1.79s12.22.82,13,2.44c1.17-.49,1.97-.32,2.4.5.98.22,1.62-.41,1.91-1.91.03-1.26,1.13-1.66,3.29-1.18l.87-1.46c6.1-.3,12.11-.67,18.04-1.1l.74.87Z"/>
    <path class="cls-82" d="M1027.51,632.83c.69,1.82,1.16,5.59,1.43,7.65.51,2.47.51,5.16,0,7.65-2.71.33-2.71.96,0,1.91.09,1.72.33,4.38-.48,5.74l-.64-.24c.33-6.32-5.74-2.14-8.12.46l-1.75.26c.46.79-1.22.67-1.14.67,1.77-.38,2.47-.13,2.09.76-.8,1.05-4.81,2.62-5.74,1.43l-.31-.59c-2.54-.37-3.55-1.28-3.03-2.76.29-1.43,2.44-2.34,3.82-2.39l-.21-.65c5.82-7.74,2.45-7.98-3.26-2.41-1.26.83-3.38,1.99-4.65,1.15-4.23.61-6.06-3.07-5.74-6.69l.41-1.02c3.15-1.12,9.61-2.34,12.49-.39,1.28-.88,4.48-.77,4.78.93.89.17,1.74,0,1.43-.96-.88-1.1-1.2-1.97.48-1.43.58-.96,3.41-.18.85-.43-2.3-1.15-4.26-2.84-5.89-5.07l-.22.72c.84,1.13.68,1.61-.48,1.43l-1.3.15c-1.42-1.47-2.74-2.95-3.95-4.45-8.53-5.35-17.39-3.6-26.29-.48-.24.4.08.56.96.48,6.91-4.24,18.47-5.34,24.85.48,2.95,1.15,7.1,6.72.66,4.25l-8.19-3.88c-6.07-2.21-9.62-.75-15.14,1.86l-.74-.31c-2.5,2.57-5.26,4.98-8.29,7.24.5.13.89.39,1.12.88.42,1.21.83,1.48,1.22.83l2.12-.35c.77-1.03,2.37-.76,3.35,0,.47-.71,1-.74,1.43,0,1.35.95-.77,6.51-2.39,6.69-.16.39-.32.39-.48,0-2.18-.43-3.61-1.38-4.3-2.87l-.91.59c-.75-1.21-4.69.02-5.03.48-.57.77,7.31,7.2,8.42,7.55.81-2.52,3.55-.31,4.69.94,2.7,1.23,5.48,2.42,8.35,3.58l.25.72,1.06.63c-.3,5.66,1.34,8.9,4.92,9.73l.23.64c-1.23.97-3.41.34-5.04.46-.62.04-1.25.5-1.42.5h-10.04c-.61,0-4.29-.35-5.02-.48-2.49-.44-6.52-2.31-8.6-3.82-.05-.31.2-.84.76-1.57l-.28-4.17c-.45-2.83-1.06-5.55-2.03-8.25-1.59-4.45-4.81-8.66-5.62-13.26l3.81,2.87c.26-3.1,3.3-14.15,5.56-15.72,2.77-1.93,15.2-3.47,19.07-3.88,7.67-.81,25.74-2.43,32.12,1.33,1.45.86,3.39,3.36,3.96,4.88Z"/>
    <path class="cls-47" d="M897.99,583.12c-.27.11-2.92,1.33-2.86.24.08-1.28,9.62-7.86,11.32-8.75,7.37-3.86,17.33-2.31,25.71-2.97,7.03-.55,14.03-1.9,21.01-2.84,6.37,3.33,17.3,7.16,22.49,11.93.48.44.88.68.71,1.44-8.99-1.96-16.81.39-25.33,2.39-3.26,1.54-7.58,2.21-11.29,2.64-5.42.62-11.52.43-16.44-1.68-4.27-.64-8.84-1.75-13.08-1.37-3.03.27-5.97,1.34-8.89,2.11l-9.1,4.04c1.02-2.97,3.86-5.45,6.69-6.69.15-.37-.17-.53-.96-.48Z"/>
    <path class="cls-152" d="M941,644.3c3.29-.28,4.72-.1,5.53,3.32,1.56,6.6.84,15.74,1.7,22.68.53,4.33,5.99,13.08,2.83,16.79-1.21,1.41-3.72,2.69-5.01,4.55-3.4,4.9-3.45,11.6-12.21,7.63-1.47.56-4.15-1.55-2.87-2.87-2.01.28-2.55-3.67-1.91-5.26-.76-1.02-1.29-3.67-.48-4.78.16-6,2.12-11.38,3.2-17.12s1.93-14.97,3.74-20.16c1-2.88,2.84-3.84,5.49-4.78Z"/>
    <path class="cls-134" d="M959.64,552.53c2.42-.28,4.01.2,4.78,1.43,7.26.87,14.73,2.38,21.51,5.26,13.16,3.92,25.89,9.11,37.76,16.01-9.35,1.08-18.43-.42-27.44-2.67-15.16-3.78-29.8-9.64-44.48-14.79-8.57-3.01-17.19-5.2-26.06-7.17-.11-.83,1.09-.45,1.67-.47,4.38-.17,9.48-.2,13.86,0,6.2.28,12.37,1.08,18.41,2.38Z"/>
    <path class="cls-93" d="M915.19,550.62c20.84,1.52,42.84,12.22,61.18,21.51.53,2.09-1.28.84-2.39,0l-.73.45c-11.34-5.61-23.04-10.54-35.11-14.78-3.19-.32-6.66-1.19-9.56-2.39-28.19-4.72-56.11.4-78.97,18.23l-1.33.41c-6.61,5.19-11.35,9.51-16.16,16.58-5.77,8.46-10.62,19.36-8.69,29.78-2.14-1.48-1.76-9.19-1.38-11.65,2.55-16.53,18.2-32.79,31.49-41.88,3.72-2.54,8.36-5.24,12.43-7.17,4.72-3.42,11.12-5.36,16.86-6.9,10.78-2.89,21.36-3.93,32.37-2.18Z"/>
    <path class="cls-152" d="M877.91,640l2.17-.2c.78,6.93,11.82,3.65,15.91,1.32,1.73-.54,5.64-1.61,5.82.79v.67s-5.26,2.2-5.26,2.2c.99.93-.38,2.28-1.43,1.43-2.09,2.3-3.93,5.01-5.03,7.74l-.7-.09c.97,2.95-3.37,2.53-5.47,2.05-4.95-1.25-9.94-2-15.06-1.96l-.98-1.05c-.99.68-1.46.52-1.43-.48.88-8.41,3.6-10.32,11.47-12.43Z"/>
    <path class="cls-85" d="M1062.88,618.01c-1.85-5.53-3.9-9.93-6.7-15.05l1.43.71.24-1.9,1.67.94-.47-2.39,1.42.96v-1.44c2.13,1.17,1.92-.46,2.16-.5,1.02-.17,3.34,2.24,4.37,3.06,5.47,4.35,10.31,12.02,12.59,18.95.31.94,1.69,6.91,1.43,7.17-1.01-.16-3.6-.23-4.31-.71-.46-.31-3.09-8.71-3.82-10.28-1.39.43-2.21-3.44-2.04-3.24.29.34.2.85-.35.86h-.48c-2.29-1.05-3.09.21-2.62,2.64l-1.21.23c-.11,1.56.74,7.82.48,8.12-.34.39-1.36-.48-1.43-.48-1.42-2.24-1.96-5.03-2.39-7.65Z"/>
    <path class="cls-83" d="M976.37,572.13c14.77,7.49,37.56,22.38,53.75,22.97,10.57.38,21.54-2.99,31.09-7.19.77,3.25-4.53,5.7-7.09,6.77-8.01,3.38-17.77,3.82-26.4,3.28-13.22-.82-39.96-17.27-52.31-24.4-.93.23-2.13-.55-1.43-1.43.71.2,2.04.86,2.39,0Z"/>
    <path class="cls-48" d="M930.49,654.82l-.93-.72c.82-4.07.17-7.65-1.93-10.75-2.09.88-5.72-2.56-6.59-4.36-.14-.3-.44-.24-.58.06l-.44.55-11.14,1.22c-1.97.84-5.27,1.97-7.06,1.1-4.08-1.91-8.84,2.16-12.3,2.75-2.44.42-8.69.27-9.92-2.28-.62-1.28.6-2.82-1.68-2.38,3.54-.95,7.27-1.69,10.89-2.25,8.97-1.38,28.6-3.83,36.53,0,5.78,2.78,6.54,11.51,5.15,17.08Z"/>
    <path class="cls-85" d="M908.98,743.72c.17,1.17.78,2.8.9,4.13.05.54.45,1.71-.41,1.61-1.33-4.68-4.33-7.65-4.78-12.67-.66-7.42,2.04-9.91,4.3-16.23,1.8-5.04,3.23-12.07,5.39-16.6,1.76-3.69,5.3-7.83,7.51-11.37-.41,2.15.26,3.98-.21,6.24-2.06,9.96-10.01,19.77-14.04,28.49-2.56,5.54-1.36,9.65.32,15.28.09.29.41,2.21,1.03,1.13Z"/>
    <path class="cls-56" d="M928.58,555.4c.14.42-.34.57-1.43.48-.13.22-.27.42-.46.57-.33.27-7.8-.51-8.15-1.52-4.3-.68-8.98-.42-13.38,0-3.73.96-8.1,1.54-12.11,1.97-.58.06-1.17.01-1.75-.06-12.67,3.02-24.97,7.4-36.32,13.86-1.24,1.33-3.43,3.13-5.12,4.14-.11.06-.34-.09-.62-.31l-.96-.48c25.09-19.71,48.8-24.52,80.3-18.64Z"/>
    <path class="cls-36" d="M905.16,554.92c4.42-.47,9-.61,13.38,0,2.48.14,6.17.53,8.6.96,3.25,0,7.32.94,10.04,2.39,12.74,3.44,25.02,8.37,36.82,14.8l.46.97c1.39.78,3.34,2.48,4.78,3.35.53.63.22.79-.96.48-28.53-14.6-52.17-26.05-85.55-20.55-.83.1-1.3-.06-1.43-.48,4.45-.79,9.36-1.67,13.86-1.91Z"/>
    <path class="cls-83" d="M927.62,686.84l.49.06c-.02,1.72.3,3.13.95,4.24.25,1.03,1.43,4.38,1.91,5.26.17.82-.55,1.49-2.15,2.03l1.78,2.07c3.95,2.19,3.76,4.93-.58,3.54-1.89-.14-5.08-1.06-5.26-2.87-3.45-4.07-1.89-12.12,2.87-14.34Z"/>
    <path class="cls-8" d="M917.58,640.48c3.21-.21,6.28.94,9.2,3.44l.84-.58c.14.06.52-.13.84.1.15.11,1.85,2.89,1.91,3.12.47,1.74.16,6.17.11,8.25-.06,2.78-.12,5.92-.96,8.6.02-1.19.38-2.89-.96-3.35-.65-.74-.54-2.03.33-3.86-1.84-.58-3.22-1.36-4.16-2.35-.81.29-.92.3-.48-.48.03-.69.35-1.33.96-1.91.32-.76.64-1.56.96-2.39.65-.58.18-1.69-1.43-3.35-.89.1-1.85-.06-2.87-.48l-1.28.27c-3.46-2.66-7.47-2.87-11.63-2.27l-.95-.87c-.47-.14-.97-.49-.85-.89.23-.74,9.46-2.13,10.41-1.03Z"/>
    <path class="cls-37" d="M912.32,549.19c-1.18.1-2.4-.05-3.59,0-.58.03-1.78-.36-1.67.47l8.12.96c-16.96-1.24-33.93,1.82-49.23,9.08l-.48-.96c13.81-7.02,28.64-10.24,44.22-10.05.81,0,2.12-.31,2.62.49Z"/>
    <path class="cls-63" d="M860.23,642.39l5.26,1.44c-1.39,4.81-1.56,9.83-1.44,14.81-1.17-.8-1.98-2.76-3.34-3.35.68-.29.19-.61-1.49-.96-.67-.65-1.71-10.64-1.27-11.37.35-.58,1.82-1.15,2.28-.57Z"/>
    <path class="cls-92" d="M973.98,572.13c.37.49.92,1.14,1.43,1.43l-.96.48c-10.59-5.96-25.59-12.56-37.28-15.77-.36-.41-.04-.57.96-.48,4.98,1.43,9.98,3.15,14.81,5.03,6.5,2.53,14.82,7.52,21.04,9.31Z"/>
    <path class="cls-65" d="M1002.66,577.39c11.71,3.36,18.55,2.9,30.36,1.92.52-.04,1.78-.35,1.66.46-10.96,4.16-22.28,1.51-32.98-1.91-.38-.42-.06-.58.96-.48Z"/>
    <path class="cls-8" d="M891.29,556.83l1.43.48c-11.74,1.93-27.18,7.58-37.28,13.86-.75.37-.93.28-.48-.48,10.94-7.12,23.49-11.57,36.32-13.86Z"/>
    <path class="cls-46" d="M865.48,640c.75-.11,1.07.05.96.48-1.8.49-4.59,1.21-6.21,1.91-.45.19-.91.33-1.35.55-.27.46.57,9.6.87,10.57.15.5,3.35,1.83.95,1.79-.71-.3-2.78.22-3.27-1.27l-.99-11.59c3.03-.67,6.01-1.65,9.03-2.43Z"/>
    <path class="cls-36" d="M871.7,637.13l-1.21-.11c0-2.4-.24-4.75-.7-7.06-.03-.26-.67-.82-.48-.95,2.31.47,8.58,3.57,8.02,6.47-.15.8-4.64,1.46-5.63,1.65Z"/>
    <path class="cls-96" d="M951.04,584.56l1.91.48c-7,1.48-13.2,3.57-20.79,3.38l-11.71-2.43c.9-.01,2.35.33,2.87-.48,11.15,1.66,16.63,1.65,27.72-.96Z"/>
    <path class="cls-57" d="M960.12,637.61c.35,2.43-.52,5.85.21,8.15.34,1.09,1.54,1.73,2.1,2.68,1.62,2.75,3.09,5.61,4.37,8.53-.46.75-1.07-.11-1.42-.49-1.32-1.42-2.93-4.18-3.84-5.97-1.11.25-.16,2.62,0,3.34.09.71-.07,1.03-.48.96-1.42-5.21-3.02-12.42-1.43-17.68.72-.7.98-.44.48.48Z"/>
    <path class="cls-13" d="M898.46,569.26c-6.5,3.68-12.33,8.7-17.68,13.86-.67.63-.92.37-.48-.48,5.48-6.26,9.91-9.77,17.21-13.86.98-.32,1.3-.16.96.48Z"/>
    <path class="cls-97" d="M867.4,658.16l1.22.43c1.26,2.88,1.65,6.08,1.17,9.6.47.91.79,2.02.96,3.35.08.08.75-.16.9.03.34.42-.11,2.96.05,3.79h-.95c-2.11-4.92-3.65-11.88-4.3-17.21.2-1.31.45-1.16.96,0Z"/>
    <path class="cls-1" d="M943.87,633.78l.48,7.17c-.65-.11-3.2.15-3.35,0-.23-.23-.52-6.08-.42-6.39.41-1.22,2.35-.72,3.29-.79Z"/>
    <path class="cls-151" d="M982.11,556.36c.4.42.08.58-.96.48l-.92.29c-5.29-1.55-10.55-2.6-15.8-3.16-1.48-.34-3.33-1.12-4.78-1.43,1.05-.07,1.95-.51,3.03-.45,5.09.29,14.26,2.85,19.43,4.27Z"/>
    <path class="cls-42" d="M981.15,556.83c1.6-.06,4.5.71,5.26,1.91l-.48.48c-7.07-2.11-14.32-3.63-21.51-5.26.46-.9,1.67-.39,2.41-.26,4.56.77,9.82,2,14.32,3.13Z"/>
    <path class="cls-99" d="M961.55,653.86c1.17,4.91,3.3,10.27,6.71,14.09.32.36,1.9,2.23,2.37,1.69v-4.78c.26,1.62,1.52,4.61-.48,5.74-5.09-3.7-7.48-9.91-9.08-15.77l.48-.96Z"/>
    <path class="cls-120" d="M920.45,629.48c1.56-1.44,2.16-.7.96.96.13.45-.03.61-.48.48-.34.3-.64.64-.96.96-1.97-.12-3.99.11-5.97,0l-5.5-.95c4.09.48,7.98-.85,11.95-1.44Z"/>
    <path class="cls-115" d="M994.06,574.52c.67.48.51.64-.48.48-3.82-1.46-7.56-3.07-11.32-4.69l-3.5-1.99c2.12.33,4.2,1.37,6.2,2.16,3.02,1.2,6.08,2.94,9.1,4.05Z"/>
    <path class="cls-84" d="M952,615.62l-.48.96c-.09-.23-.64-.64-.85-1.28-1.15-3.42-2.19-7.02-2.01-10.67.86.15.82.97,1.02,1.6.96,3.02,1.06,6.37,2.32,9.39Z"/>
    <path class="cls-9" d="M1000.27,601.29c-1.19-.48-2.67.41-3.35.48-2.6.24-6.04-.18-8.62-.71-.52-.1-1.54-.03-1.42-.72,2.45.1,4.95-.16,7.4,0,1.97.13,4.18.61,5.98.95Z"/>
    <path class="cls-146" d="M869.79,636.18c1.03.15,1.2,1.19,0,1.43-.52.02-1.85.22-1.92-.28v-7.84s1.92,6.69,1.92,6.69Z"/>
    <path class="cls-102" d="M1002.66,577.39l-.96.48c-2.77-.88-5.42-1.83-8.13-2.87l.48-.48c2.4.88,6.19,2.17,8.6,2.87Z"/>
    <path class="cls-40" d="M919.02,622.32c1.26.42,1.25.54,0,.96.15.51.82,1.58.24,1.91l-4.54-5.26c2.05-.15,3.22.02,4.3,2.39Z"/>
    <path class="cls-42" d="M972.07,615.15c-.85,1.16-1.84,3.82-2.4,5.25l-1.91-.95c-.41-.14-.41-.3,0-.48,1.97-.04,1.94-4.86,4.3-3.82Z"/>
    <path class="cls-31" d="M855.45,571.17c-2.06,1.28-5.52,4.79-7.5,5.65-.42.18-1.24.36-1.1-.39,1.33.07,1.8-1.47,2.39-1.92,1.51-1.17,4.05-2.72,5.74-3.82l.48.48Z"/>
    <path class="cls-75" d="M897.99,583.12c2.61-1.04,4.99-3.06,8.12-2.38l-7.17,2.86-.96-.48Z"/>
    <path class="cls-150" d="M979.24,577.39c2.15,1.29,5.17,2.19,6.69,4.3-2.79-.71-5.15-2.54-7.65-3.82l.96-.48Z"/>
    <path class="cls-73" d="M964.9,621.84c.34-1.78.8-3.11,1.44-4.78.99-.1.13,1.3.57,1.84.18.22.79,0,.86.07.06.05-.04.32,0,.48,0,.72-2.28,3.44-2.87,2.39Z"/>
    <path class="cls-44" d="M1065.27,625.66c-1.61.07-1.49.21-3.35,0l2.4-.25c-.77-2.25-1.07-4.71-1.92-6.92l.48-.48c.84,2.53,1.67,5.08,2.39,7.65Z"/>
    <path class="cls-33" d="M982.11,556.36c2.88.79,5.71,1.86,8.61,2.62,1.01,1.08.25.69-.54.55-1.12-.2-2.7-.49-3.76-.78-1.5-.41-3.66-1.51-5.26-1.91l.96-.48Z"/>
    <path class="cls-86" d="M889.86,611.8c.64-.3,1.15-.62,1.91-.47.45.34-5.24,3.87-5.74,4.3-1.29-.72-1.19-.75-.48-1.91,1.62-.08.42.57.27.32-.13-.22,3.16-3.27,4.03-2.23Z"/>
    <path class="cls-70" d="M903.24,565.92c.91-.23,1.23-.07.96.48-1.85,1.03-3.9,1.83-5.74,2.87l-.96-.48c2.11-1.18,3.48-1.92,5.74-2.87Z"/>
    <path class="cls-70" d="M919.02,622.32c.62.78,2.18-.16,2.39,0s.04,1.51.12,1.67c.17.38.68-.11.84,1.2-1.49,2.69-1.8-1.04-3.35-1.91-.08-.28.09-.75,0-.96Z"/>
    <path class="cls-89" d="M923.8,598.9c-4.77.04-9.57-.03-14.34,0,3.96-.48,7.64-.53,11.72-.49.81,0,2.12-.31,2.62.49Z"/>
    <path class="cls-125" d="M865.48,640c2.49-.65,4.91-1.97,7.64-1.43l-4.78,1.69c-.58.32-1.41.08-1.91.22l-.96-.48Z"/>
    <path class="cls-62" d="M1005.05,600.81c1.04.46,2.42.66,2.87,1.91-2.21.32-4.13-.52-6.21-.95l3.35-.96Z"/>
    <path class="cls-9" d="M930.01,704.05c-.35.33-.98.49-1.91.48-1.88-.6-2.95-2.5-4.3-1.91.19-.34-.02-1.16.96-1.43,1.09,1.28,3.78,2.12,5.26,2.87Z"/>
    <path class="cls-52" d="M920.45,683.49l6.69-3.34c-1.44,2.61-3.3,2.91-5.74,3.82-.89.22-1.21.06-.96-.48Z"/>
    <path class="cls-153" d="M889.86,611.8c-1.25.6-2.9,2.01-4.07,2.87l-.24-.95c.63-1.04,1.98-2.44,2.87-3.35-.04.95.47,1.47,1.43,1.43Z"/>
    <path class="cls-130" d="M883.17,626.62c.33-.17,2.81-1.06,1.41.22l-5.96,4.08c-1.98-.63.64-1.36.72-1.43-.37-1.44,2.7-3.19,3.82-2.87Z"/>
    <path class="cls-118" d="M964.9,632.83c-2.27.85-3.49,2.92-4.78,4.78-.03-.22-.25-.43-.48-.48.87-2.91,2.38-3.5,4.78-4.78.78-.3.9-.28.48.48Z"/>
    <path class="cls-9" d="M962.51,629.48l1.91.95c-2.28.22-4.42,1.25-6.69.48,1.15-.23,3.52-1.03,4.78-1.43Z"/>
    <path class="cls-124" d="M883.17,626.62c-1.31.67-2.64,1.95-3.82,2.87-.3-.55-.9-1.45-.15-1.92.66-.41,1.87-.92,2.77-1.45,1.13-.65.39-.46,1.21.5Z"/>
    <polygon class="cls-30" points="1017.47 619.93 1013.66 620.88 1015.08 619.69 1012.7 617.54 1017.47 619.93"/>
    <path class="cls-6" d="M867.87,652.91c-.22,1.47-.14,2.94.27,4.39l-.75.87h-.96c-.33-2.71-.28-3.09,0-5.74.56-.25,1.25.46,1.43.48Z"/>
    <path class="cls-114" d="M1058.1,608.93c-1.63-1.61-3.26-3.98-3.81-6.21,1.63,1.61,3.26,3.98,3.81,6.21Z"/>
    <path class="cls-79" d="M903.24,565.92c1.83-.77,3.58-2.13,5.73-1.91l-4.78,2.38-.96-.48Z"/>
    <path class="cls-91" d="M871.7,637.13c-.53.1-1.27.45-1.91.48.07-.45-.1-1.04,0-1.43.5-2.02.26-4,0-6.21,1.42,1.91,0,5.7,1.91,7.17Z"/>
    <path class="cls-89" d="M927.14,598.42c.35.08,5.13.83,3.82,1.91-.25.2-5.31-1.3-6.21-1.43.77-.02,1.99.29,2.39-.48Z"/>
    <path class="cls-39" d="M880.78,583.12c-1.23,1.18-2.43,3.51-4.3,3.82.95-1.62,2.66-2.96,3.82-4.3l.48.48Z"/>
    <path class="cls-96" d="M919.97,585.99c-3.18.03-6.38-.02-9.56,0,.29-.05.72-.43,1.62-.51,2.25-.2,5.81-.18,7.94.51Z"/>
    <path class="cls-110" d="M1020.34,618.97c.8.51,1.48,1.04,1.91,1.91-.07-.02-.5.38-.99.25-.72-.2-3.39-2.49-2.83-3.11.74,1.07,1.81.89,1.91.96Z"/>
    <path class="cls-77" d="M954.39,597.46c-1.89.66-3.66,1.81-5.73,1.91l4.3-2.39,1.43.48Z"/>
    <path class="cls-54" d="M964.42,632.35c1.62-.86,3.28-1.89,5.25-1.91l-4.78,2.39-.48-.48Z"/>
    <path class="cls-116" d="M920.45,683.49l.96.48c-1.29.48-4.02,2.35-4.78.48,1.35.06,2.61-.51,3.82-.96Z"/>
    <path class="cls-51" d="M929.05,691.14l-.48,1.19-.96-5.49c.32-.15.63-.33.96-.48-.05,1.84.04,3,.48,4.78Z"/>
    <path class="cls-25" d="M964.9,625.18c-1.63-1.2-1.61-1.66-1.43-3.82l1.43.95c-.13,1.02-.34,1.8,0,2.87Z"/>
    <path class="cls-119" d="M922.36,627.1c.08,1.09-.44,1.66.96,1.43.99,1.17-.64,2.63-1.91,1.91.11-.98.05-1.1-.96-.96l1.91-2.39Z"/>
    <path class="cls-32" d="M947.69,794.86c1.7-.93-1.98-3.27-.24-3.82.16-.05,1.15,2.31,1.9,2.27.63-.03,1.02-1.65,2.63.12l-.95-2.87c1.42.28,1.66,1.53,2.63,2.38.28.04.21-.46.24-.47.11-.07.4.08.48,0l.23,1.92-1.66-.96v1.43s-1.92-.95-1.92-.95l.48,1.43c-.87.44-2.04-.94-2.16-.93-.33.03-.71,1.33-1.19,1.42-.77-.27-1.27-.46-.48-.96Z"/>
    <path class="cls-128" d="M947.69,794.86c.19.18.29.7.48.96-.35.07-3.1-.43-3.82-.48-.7,1.43.34,1.59.47,2.86-1.14-.1-1.92-1.17-1.97.42-.38.21-.39-.41-.42-.42l-.95-3.82,2.15,1.43c.52-.86-.87-1.66.49-2.39,1.11.77,2.54.49,3.57,1.44Z"/>
    <path class="cls-61" d="M934.79,795.34c-2.31.54.6,1.66-2.87.96l-.47-3.35c1.76.54,2.21,1.31,3.34,2.39Z"/>
    <path class="cls-8" d="M939.57,796.29c-.44,1.8-2.89.38-2.87-.96,2-.86,1.95.11,2.87.96Z"/>
    <path class="cls-59" d="M910.41,779.09l-.95-.48v1.43c-.46-1.2-1.36-2.18-.96-3.82,1.22.46,1.41,1.99,1.91,2.87Z"/>
    <path class="cls-152" d="M1018.91,657.68c.1-.24.21-.44.39-.56.34-.22,6.77,2.32,7.56,2.73,1.05-.13,1.27.74.65,2.61-.83,2.17-2.41,4.59-4.33,5.94-4.19,2.95-17.72,5.62-22.91,5.53-2.72-.05-3.41,0-4.7-2.71s-1.03-5.53-1.51-8.29l.69-.5c4.58.98,9.14.26,13.65-.45,1.14-.75,2.41-1.54,3.82-2.39-.4-1.23.02-1.34.96-.48,2.22-.73,3.18-1.64,5.74-1.43Z"/>
    <path class="cls-134" d="M1068.62,628.05c.2.2.34,4.92.48,5.73l-27.7,2.38-.97-11.45,28.2,3.34Z"/>
    <path class="cls-107" d="M1085.82,584.56c.39.91.68,3.76-.48,3.82-4.04-25.19-12.25-37.31-22.46-59.27-.37-1.01-.21-1.33.48-.96,11.29,18.47,21.88,33.43,22.46,56.4Z"/>
    <path class="cls-63" d="M1003.62,676.33c-.36.67-1.57.04-1.2.96,1,2.49,5.98,3.66,8.37,4.3-1.43.07-2.87-.05-4.3,0-.1.35-.26.34-.48,0-3.93-.99-8.05-.95-12.05-1.57-3.01-.47-6.84-1.08-9.46-2.49,6.44-.18,12.73-.34,19.12-1.19Z"/>
    <path class="cls-149" d="M1017.95,656.25c1.8-1.45,4.64-4.66,6.94-4.81,4.34-.29,3.54,1.05,3.58,4.34,0,.93.08,1.97,0,2.87l-.81,1.81c-3.31-1.46-6.54-2.86-9.7-4.2Z"/>
    <path class="cls-95" d="M1064.32,640c-.26-1.11-.65-2.16-.47-3.34l1.67,3.35c.82-3.1-1.08-3.18,2.15-3.35,1.7.28,1.64,4.01.26,4.67l.22,1.54c.59.81,1.04,3.75-.42,3.06-1.16,2.68-2.19.02-2.45-1.62-.02-.16.02-.32,0-.48-1.57-.35-1.88-2.73-.96-3.82Z"/>
    <path class="cls-133" d="M1066.23,618.01c.02-.32-.02-.64,0-.96l.95.48-.47-5.74c.88-.09.73,1.69.96,1.91,1.04.98.78-1.52,1.43-.72.38.6.79,1.49.95,2.16.02.06-.34.53-.22.99.86,3.44,2.32,6.87,2.13,10.48-1.45.24-.76-.37-.96-1.16-.89-3.48-1.98-6.84-2.86-10.3-.81-.09-.52,1.64-.5,2.17.04,1.1.22,2.04.5,3.08l-1.91-2.39Z"/>
    <path class="cls-111" d="M1036.12,628.53c-.01-1.91,0-3.83,0-5.73,1.18-.09.83-.12.94.72.14,1.05.34,1.75.49,2.62.63,3.58.47,7.38.95,10.99h-1.91c-.33-2.88-.47-5.7-.48-8.6Z"/>
    <path d="M996.92,674.89c.11,3.47-5.56,1.56-7.88,1.53-1.43-.02-3.37.78-5.02.38.13-.55,2.28-1.35,2.66-1.4,2.49-.35,6.05.67,7.55.47.16-.02.82-1.8,2.69-.98Z"/>
    <path class="cls-72" d="M1070.53,643.35c-1.09,3.25-1.89,3.09-2.39-.48-1.06-1.68.34-4.09-.48-6.21.18,0,.5-.48.96-.24,1.63.86,2.03,5.22,1.91,6.93Z"/>
    <path class="cls-58" d="M1068.14,642.87c.06-.59-.39-1.99.47-1.91l.49,4.3,1.43-1.91c-.17,2.37-1.69,3.77-1.92,6.21l-.48-3.34-1.9,2.86c.48-1.16-.88-1.5-.95-1.77-.22-.93.12-2.06-.02-3l1.91,2.39c-.48-1.06.77-1.5.8-1.58.3-.88.08-1.45.16-2.24Z"/>
    <path class="cls-12" d="M1017.95,656.25c3.11.35,6.2,2.47,9.07,3.16,1.12.27.87.08,1.44-.77-.13,1.45-.45,2.48-.96,3.82-.05-.93.45-1.51-.59-2.05-1.41-.73-6.53-2.61-8.01-2.73l-.32-.39-2.07-.1c-.19-.72.9-.53,1.43-.95Z"/>
    <path class="cls-35" d="M1065.27,643.82l-1.43,2.86c.03-1.6-1.89-6.36-.24-7.16.37-.18.09,1.8.71.48.3,1.28.73,2.36.96,3.82Z"/>
    <path class="cls-135" d="M1028.95,640.48c.01.1.43.51.5,1.15.25,2.51.85,7.54-2.42,7.21,1.41.68,1.82-.54,1.92,1.19l-7.65-1.67c0-.98,6.81.09,7.65-.24v-7.65Z"/>
    <path class="cls-142" d="M1072.92,617.54l-.95,1.91c-.36-1.62-1.33-2.52-1.44-4.3-.03-.47.01-.96,0-1.43.4-.5,2.18,3.38,2.39,3.82Z"/>
    <path d="M1006.01,681.58c.16,0,.32,0,.48,0,.2,1.23-4.14,2.71-3.81,1.21.4-1.82,1.84-1.13,3.34-1.21Z"/>
    <path class="cls-28" d="M1086.3,588.86c.63,2.05.47,3.33-.48,3.82-.02-1.43-.25-2.9-.48-4.3.82-.77.51-2.65.48-3.82h.48c-.03,1.43.01,2.87,0,4.3Z"/>
    <path class="cls-128" d="M1086.3,588.86c1.08,2.22.21,5.23.47,7.64l-.95-3.82c.85-.79.47-2.63.48-3.82Z"/>
    <path class="cls-4" d="M1060.97,525.77c1.83-.53,1.75,1.34,2.39,2.39l-.48.96c-.32-.69-1.97-2.68-1.91-3.35Z"/>
    <path class="cls-134" d="M946.74,500.44c.88-1.14,1.44-3.16.24-4.3-2.1-2.01-10.42-.07-13.14.72-2.49.72-10.76,3.84-11.72,5.99-.64,1.42,1.59,5.07-2.74,4.2-3.24-.66-1.48-3.9-.13-5.66,5.39-7,21.72-10.8,30.14-10.05,2.44.22,5.88,1.15,5.99,4.09.27,7.37-18.16,12.65-18.19,13.85,3.77,2.21,9.61,2.39,12.16,6.47,5.22,8.37-11.4,17.97-18.12,16.7-1.34-.25-2.31-2.22-1.69-2.86.15-.15,3.11-.24,4.3-.48,1.44-.7,2.9-1.2,4.45-1.64.28-1.08,1.03-1.49,2.24-1.23,2.04-1.44,4.63-2.87,3.73-5.87-1.08-3.61-12.9-5.66-16.32-5.14-3.21,6.05-3.51,15.17-10.69,18.08-6.61,2.68-12.25-.73-5.16-5.64l.24,2.88c4.88.71,5.41-1.36,7.06-5.13,2.98-6.84,4.77-16.2,8-22.59,1.22-2.41,3.34-3.32,5.98-3.34.38.34-2.76,7.56-3,8.72-.09.43-.48,1.25.37,1.3,1.1.07,9.18-4.76,10.76-5.72.03-.78.81-1.44,2.35-1.98.97-.94,1.94-1.39,2.91-1.36Z"/>
    <path class="cls-1" d="M940.05,524.81c-.61,1.58-1.41,2.05-2.39,1.43-.79.44-1.86.86-2.39-.25-.38-.79.79-.64.92-1.06.53-1.71.7-4.05.99-5.86,4.56.29,7.2,2.19,2.87,5.74Z"/>
    <path class="cls-111" d="M921.89,543.45c1.32-3.63,2.07-7.94,5.25-10.51-.8,1.95-1.22,8.83-2.14,10.05-.61.8-2.18.4-3.12.46Z"/>
    <path class="cls-136" d="M945.78,498.52c.69,2.54-4.52,5.71-6.21,3.82,1.37-4.39,1.45-4.41,6.21-3.82Z"/>
    <path class="cls-74" d="M945.78,498.52c1.33.4-1.05,2.33.96,1.91-1.06,1.37-3.78,2.45-5.26,3.35l-.32-.39-2.07-.1c-.24-.75.45-.88.48-.95,1.75.9,5.86-2,6.21-3.82Z"/>
    <path class="cls-147" d="M933.83,487.53c.16-.5,1.95-8.1,3.35-6.69-1.08,2.81-2.02,5.71-2.87,8.6l-.48-1.91Z"/>
    <path class="cls-96" d="M940.05,524.81c-.7.99-.85,1.66.48,1.43-2.68,1.9-3.42,2.22-6.69,2.87.77-.11,1.4-1.22,1.81-1.39.76-.31,4.5-.06,2.01-1.48.3-.17,2.28-1.34,2.39-1.43Z"/>
    <path class="cls-57" d="M909.46,496.14c-1.2,1.45-3.35,2.77-5.26,2.86,1.2-1.45,3.35-2.77,5.26-2.86Z"/>
    <path class="cls-37" d="M861.66,553.01c.22,1.17-.31,6.76,0,7.17.06.08.69-.05.96,0-.38.17-.61.77-1.43.48.21-2.05-.29-4.52-.03-6.5.09-.69.5-1.08.51-1.14Z"/>
    <path class="cls-109" d="M987.67,483.29c.91-.28,4.51-.17,5.56.04,1.58.32,6.85,3.71,3.04,3.68-1.31-.01-9.37-2.08-9.37-3.07,0-.11.53-.58.77-.65Z"/>
    <path d="M949.13,706.44c1.13-.37,5.76-3.82,5.73-4.54-.02-.49-2.04-.26-1.33-2.28,1.16-3.33,12.59-7.57,15.21-4.9,3.53,3.59-5.28,5.75-5.27,6.23.03,1.43,2.5,1.08,2.77,2.49.43,6.5,3.86,12.3,2.85,18.9-.06.42-.21,1.44-.83,1.31-.17-1.16-.26-2.9-1.43-3.34l-.24,1.43c-.85-2.47-2.05-3.15-3.59-4.78-4.58-4.86-6.08-5.64-12.43-7.65-2.07,1.01-3.37.06-4.78-1.43-.68-.2-1.59-.25-2.39-.48v-.7s5.74-.26,5.74-.26Z"/>
    <path class="cls-29" d="M1003.14,741.81c.57.53.57,2.34-.48,1.43l-1.07-.12c-2.79-7.5-6.5-9.06-13.96-7.09-8.72-.49-17.41-1.28-26.08-2.35-3.43.66-7.48,2.68-10.77,2.88-3.02.18-5.77-1.33-9.54-.96-4.15.41-23.13,8.12-26.05,10.99-2.56,1.92-1.82-1.2-.98-3.13,1.62-3.69,4.54-7.43,8.15-9.3,2.29-.15,1.17,1.17,2.37,2.55.4.46.83.23.98.32.49.28.48.84,1.47.74,1.85-.2,5.46-2.13,7.79-2.72,6.81-1.7,7.76-1.02,14.04-.05,4.27.66,7.49-2.34,11.35-2.76,7.65-.83,17.83.11,25.83.02,3.88-.04,15.52-2.31,16.44,3.59.3,1.95.15,3.75.51,5.95Z"/>
    <path class="cls-82" d="M1002.66,743.24c.84-.28,1.1.87.48,1.43-4.09-2.08-9.15-4.37-13.74-5.14-6.8-1.14-15.76.66-21.74-2.16-2.17-1.02-3.69-3.42-6.1-3.69,6.45-1.25,17.15,1.26,24.12,1.45,5.98.16,9.72-3.28,14.12,2.61,1.01,1.35,2.11,3.89,2.87,5.5Z"/>
    <path class="cls-3" d="M952.47,745.15c3.18-.7,15.14-1.41,16.32,1.9.29.81-.78.97-1.51.96-.61,1.17-1.19.49-1.43-.48-1.46-.05-3.87-.47-5.26-.95-.2-.07,4.08.52,3.82,1.43,1.36-.19,2,.13,1.91.96-1.24.48-1.34,1.07-.85,2.24-2.76.26-5.6.35-8.54.25-2.07.35-4.13.63-6.16.86l-.38-.51c-1.89.09-3.75-.38-5.57-1.41-.89-.17-3.41-.93-2.4-2.17l4.79-2.13c1.61-.34,3.67-.84,5.26-.96Z"/>
    <path class="cls-127" d="M973.5,743.24c2.26.19,5.34,2.3,6.71,4.05,1.24,1.58-.13,1.03-1.14,1.75s-1.7,1.74-2.84,2.43c-3.03,1.83-8.04,3.82-11.33,1.81-.2-.76,1.08-.47,1.02-.47-3.45-.19-5.15-1.49-.76-1.57l.24-.79c-1.41-.52-.16-1.24.94-1.47l-1.91-.96c-.28-.5.2-.66,1.43-.48.52.13.96.34,1.43.48,1.73-.18,2.94-1.03,3.61-2.56l1.17.17c1.16-.31,2.97,1.09,3.82,1.91.13.13-3.15-1.9-2.39-2.39.1-.64.1-1.28,0-1.91Z"/>
    <path class="cls-75" d="M938.62,764.27c-.72-.78,2.36-2.72,2.9-3.07,10.37-6.69,25.37-5.82,34.38,2.82.68.65,3.33,3.69,3.33,4.31,0,.33-.53.9-1.15.21-1.51-1.67-2.8-3.55-4.56-5-9.91-8.17-25.08-7.01-34.89.72Z"/>
    <path class="cls-120" d="M973.5,743.24c2.24.96,1.96,1,0,1.91.14.56-.33.72-1.43.48-1.84,1.58-.83,3.55-4.78,2.39l.95-.71c-4.5-2.61-10.68-2.53-15.76-2.16,2.39-1.13,5.4-.71,7.88-.96,4.51-.46,8.47-1.34,13.15-.95Z"/>
    <path class="cls-63" d="M966.33,748.98l-.95.95c4.85,2.81-.2,1.09-2.39,1.92l3.34.47c.25,1.42-.53.88-1.43.95-1.07.08-2.26.02-3.35,0,.78-.52-.03-.82-2.41-.88l-.46-.55c-2.69.58-5.4,1.21-8.13,1.91-.33.14-.63.33-.96.48l-.62-.04c-4.64.06-6.03-1.05-4.16-3.31-.44-.05-.41-.21,0-.48,1.99-1.49,2.45.41,2.71.47,1.13.27,2.76-.16,3.98.01l-.48.95c4.75-.69,9.49-1.24,14.34-.96l-6.21-1.9h7.17Z"/>
    <path class="cls-66" d="M930.97,696.4c.78,1.4,2.03,1.91,2.87,2.87,1.24,1.41,2.58,3.58,4.3,4.78.63.62.36.8-.48.48-1.79-.91-5.94,1.15-9.56,0,.34-.73,1.29-.44,1.91-.48,1-.06,2.46.34,2.87-.95-1.55-.2-5.65-4.1-5.25-5.49l3.34-1.21Z"/>
    <path class="cls-113" d="M901.81,760.45c.22.92.07,1.23-.48.96-3.3-6.84-6.6-14.19-6.21-21.98.77-.07,1.1-.1,1.67.48.64.66,1.81,9.55,2.29,11.57.67,2.85,1.75,6.22,2.73,8.98Z"/>
    <path class="cls-82" d="M922.36,734.16c-2.94,3.23-6.46,6.79-7.8,11.08-.28.91-.86,1.53.63,1.34-.57.56-1.5,3.51-3.34,3.34-.76-5.3,5.03-15.42,10.51-15.77Z"/>
    <path class="cls-64" d="M948.65,721.73c-1.59,1.37-2.02,2.37-3.34,3.82-.25-3.33.3-6.58.91-9.84.15-.82-.13-1.79,1-2.11,1.3-.09,2.46,6.69,2.33,7.12l-.9,1Z"/>
    <path class="cls-81" d="M1004.57,717.43c3.27,3.41,5.67,3.88,6.69,9.08.31,1.92.34,3.82.07,5.69l-.55.05c-.73-6.42-3.15-9.73-7.17-14.34-.53-1.26-.01-1.23.96-.48Z"/>
    <path class="cls-57" d="M950.56,709.3c-1.47-.49-.44,2.02-.96,3.35-.34,2.06.32,6.11.96,7.17-.16,1.49-.91,1.05-1.91,1.91.97-2.66-.83-5.51-1.43-8.13-.5-2.13.06-4.78-1.43-5.74,1.62.48,3.17.92,4.78,1.43Z"/>
    <path class="cls-135" d="M995.97,707.87c2.78,3.28,5.61,6.43,8.6,9.56l-.96.48c-3.58-4.11-7.33-8.45-10.99-12.43-.63-.67-.37-.92.48-.48.68.84,2.16,2.03,2.87,2.87Z"/>
    <path class="cls-146" d="M940.05,748.98c.81-.26,2.29-.26,2.53.6,1.04-.29,1.79.15,2.25,1.32.03.36.36,2.78.48,2.86.76.53,4.51-1.78,4.3.48-3.29,1.48-2.03.16-2.7,0-1.9-.45-4.61.09-5.91-2.38l1.44-.95-2.86-.97c-.25-.88.23-.71.48-.95Z"/>
    <path class="cls-119" d="M947.22,746.11l-4.78,3.11,3.34-.71c-.09.64-.95.95-1.22,1.45-.21.39.26.42.27.46.02.16-.01.32,0,.48-1.25.52-1.42-.75-1.67-.84-.67-.24-2.46.22-3.11-1.07,2.2-2.17,4.37-2.28,7.17-2.87Z"/>
    <path class="cls-69" d="M1003.62,741.81c.16,3.33,3.18,7.45,3.34,10.99-1.83-2.11-2.61-5.45-3.82-8.13-.22-.5-.3-1.06-.48-1.43.58-.07.55-1,.48-1.43h.48Z"/>
    <path class="cls-59" d="M949.13,706.44c-2.25.74-3.87.05-5.74.96-3-.85-3.56-1.76-5.74-2.87l.48-.48c3.08,2.15,7.34,2.66,10.99,2.39Z"/>
    <path class="cls-129" d="M958.69,751.84c.78.42.46.74-.96.96l-7.17.96c3.5-1.49,3.94-2.06,8.13-1.91Z"/>
    <path class="cls-41" d="M949.61,712.65c.47,1.86,1.15,5.32.96,7.17-1.51.27-.81-.74-.97-1.64-.43-2.46-1.07-4.93-.94-7.44.48-.1.86,1.53.95,1.91Z"/>
    <path class="cls-55" d="M901.81,760.45c.5,1.41,2.12,3.34,1.91,5.26-1.48-.8-1.75-2.98-2.39-4.3l.48-.96Z"/>
    <path class="cls-86" d="M1011.26,735.11c-1.31.57-.64-1.51-.48-2.87.01-.11.44-.53.5-1.16.14-1.47-.13-3.09-.02-4.58.58,2.97.8,5.55,0,8.6Z"/>
    <path class="cls-14" d="M958.69,751.84c1.33.05,2.53.21,3.82.48v.47s-.95.48-.95.48c-1.36-.02-2.51-.52-3.82-.48l.96-.96Z"/>
    <path d="M972.07,548.23c2.11.49,11.22,3.47,12.45,2.65.85-.57,5.57-16.33,7.06-19.22,5.24-10.17,11.18-10.39,20.33-15.04,8.52-4.33,16.98-9.13,23.75-15.97l1.41.26c.77-.84-7.07-8.93-8.12-9.8,1.82-.04,5.07,1.66,6.83,2.73,6.29,3.81,11.08,12.58,12.89,19.61,3.5,13.66-3.12,29.7.7,42.8.32,1.11,2.05,4.09,2.05,4.65v17.92c-2.16.04-4.32-1.39-6.21-2.39l-.36-.87c.54-7.65.5-15.33-.11-23.02-.98-1.02-2.28-3.64-1.91-5.02-.72-2.78-.72-5.88,0-9.32-1.22,5.67-.32,10.05,1.43,15.29.98,1.05,1.29,4.66,0,5.5,1.32-.05.93,6.63.64,6.86-.18.14-.4.23-.64.31.22-.05.44-.08.65-.04.72.15.56,8.65.01,9.21-.13.13-.38.16-.66.15-9.68-4.79-20.65-7.25-30.71-11.11-7.62-2.92-14.84-6.74-22.57-9.45-5.93-2.08-14.05-3.39-19.37-5.73-3.19-.67-2.25-1.5.48-.96Z"/>
    <path class="cls-127" d="M1045.2,576.43c-.54-.29-.86-.91-.96-.96.77-2.1.61-5.2.51-7.44-.04-.82-.51-1.68-.51-1.88v-7.17c0-1.87.74-2.87,0-5.5-.12-.78.03-1.1.48-.96,1.55,5.39,1.29,15.44.97,21.29-.05.9-.22,1.75-.5,2.6Z"/>
    <path class="cls-155" d="M960.12,546.32c4.14.05,7.97,1,11.95,1.91-.81.1-2.08-.38-1.91.47.58-.1.97.28,1.43.48-4.77-.7-9.53-1.9-14.34-2.39.26-.89,1.22-1.05,2.87-.48Z"/>
    <path class="cls-87" d="M954.86,545.84c-1.42.24-3.01.4-4.78.48-1.81-.11-3.69.15-5.49,0-.58-.05-2.56-.18-2.63-.95,4.2.28,8.85-.62,12.9.47Z"/>
    <path class="cls-104" d="M954.86,545.84c1.65,0,4-.39,5.26.48-.99-.01-2.05-.25-2.87.48-2.37-.24-4.79-.34-7.17-.48,1.1-.87,3.28-.47,4.78-.48Z"/>
    <path class="cls-58" d="M944.34,488.96c-.95-.11-.45-2.38-.35-2.98.21-1.19.73-3.49,1.78-4.18l-1.43,7.16Z"/>
    <path class="cls-27" d="M940.41,598.06c1.67,1.74-1.06,10.28-.42,12.96l-.89,3.64c.6-3.37-3.55-15.1-.49-17,.5-.31,1.45.03,1.8.4Z"/>
    <path class="cls-156" d="M928.58,619.45c-.04,4.75-.7,13.89-7.65,11.47.17-.15.31-.32.48-.48.79-.74,1.17-.95,1.91-1.91,2.99-3.86,4.22-7.6,4.78-12.43.91.25,1.07,1.37.48,3.35Z"/>
    <path class="cls-55" d="M928.1,616.1c.05-.4-.3-5.48.95-3.82-.27,2.25.61,5.11-.48,7.17.01-1.13.29-2.44-.48-3.35Z"/>
    <path class="cls-78" d="M993.1,705l-.48.48c-4.01-4.36-8.06-8.8-13.15-11.95-.43,2.89-2.54,6.45-5.02,8.12-1,.37-1.31.21-.96-.48,2.76-1.82,3.26-6.78,2.88-9.81-.47-3.77-5.83-10.06-10.05-9.78l.47,3.82c-.71.81-2.58-3.27-5.13-2.04-2.12,1.02-.58,3.27-.85,4.92-6.28-4.16-2.23-11.87,5.14-10.87,5.98.81,7.17,4.83,10.63,8.48,6.53,6.89,10.6,11.85,16.5,19.11Z"/>
    <path class="cls-101" d="M941.06,703.52c-1.65-2.53,6.79-3.44,6.54-.18-.15,1.96-5.91,1.14-6.54.18Z"/>
    <path class="cls-103" d="M975.89,729.85c-2.19-.6-5.7-.45-6.21-3.34.77-.65,7.19,2.41,6.21,3.34Z"/>
    <path class="cls-75" d="M973.5,701.18l.96.48c-2.11,1.43-3.65,1.65-6.21,1.43,1.02-1.48,3.72-.89,5.26-1.91Z"/>
    <path class="cls-17" d="M921.88,645.26c1.5.5,2.94,1.78,4.3,3.82.19.4,1.06,2.75.95,2.87-.67.08-1.29-.41-1.91-.48-.11.95-.59.91-.96,0-.63.28-1.11.28-1.43,0-.78.11-1.1-.04-.96-.48,1.54-.98-2.67-3.4-2.92-3.32-.19,2.24-.96,3.51-2.33,3.79.76.7.28,1.34-1.43,1.91.13.45-.03.61-.48.48-.47-.06-1.72.49-2.6.5-5.28.06-10.5.14-15.77.43-.43,3.13-2.69.78-4.57,1.94-.09,1.07-.71,2.56-1.91,1.91l-4.78.95,1.43-.96c.14-.58-.5-.62-.93-.72-1.33-.32-11.08-1.59-11.49-1.18.33,6.6-.76,13.05,0,19.6-.69.12-.62-.9-.72-1.42-.74-3.64-.78-7.49-2.14-11.01l-.52-.15-.33,4.65-.58-.19c-.61-2.28-.46-5.09-1.07-7.29-.26-.95-.96-1.63-1.32-2.74-.45-1.43-1.33-5.65.48-5.26,2.73.31,6,.14,8.78.54,3.83.54,7.53,1.99,11.43,1.86.3-.48,1.06-1.09,1.29-1.44.71-.14,1.34-.14,1.91,0,2.59-5.15,8.04-9.8,13.86-10.99.03-1.38,2.39-1.79,2.87-.48,6.02-.59,8.67-.88,13.86,2.87Z"/>
    <path class="cls-66" d="M928.58,660.07c-.68,1.28-2.76,3.58-3.82,4.78-.7.04-1.18-.44-1.43-1.43-.62.06-1.23.57-1.91.48-.17-.82.54-1.22.95-1.91-.67-.36-.99-.84-.96-1.43.32-.43.33-.95.48-1.43-1.14-.45-1.06-1.41,0-1.91-1.02-.85-1.11-2.69.48-2.39-.03-.82,1.65-1.03,2.39-.96,1.04-.19,4.57,1.15,5.06,1.91.35.56-.85,3.59-1.23,4.31Z"/>
    <path class="cls-92" d="M921.88,657.21c-.04.21.39.6,0,1.91-3.28.56-6.34,2.78-9.57,4.06-6.09,2.42-13.05,4.21-19.59,4.54.18-.96,1.01-.78,1.67-.95,10.48-2.67,16.44-3.27,26.05-9.08-.22-1.4.47-1.51,1.43-.48Z"/>
    <path class="cls-15" d="M921.41,660.55l1.44.48c.09.08-.36.74-.48.95-3.02.93-5.46,3.41-8.28,4.86-4.61,2.38-10.44,4.36-15.62,4.69-.24-1.45.37-.76,1.16-.96,8.27-2.13,15.16-4.29,21.78-10.03Z"/>
    <path class="cls-84" d="M911.37,676.8c.95-.26,1.27-.1.96.48-5,2.12-14.58,3.08-19.46.58-1.02-.52-1.58-1.56-2.53-2.01-.63-.62-.37-.73.48-.48,6.74,3.36,13.21,4.11,20.55,1.43Z"/>
    <path class="cls-50" d="M919.02,652.91l1.96-.41c.05.75.52,1.52,1.38,2.32.05.08-.99,1.12.48,1.19-.29.33-.88.79-.95,1.2-.51.08-.99.21-1.43.48-.66-.72-1.76-.5-2.57-1.02-.92-.58-2.47-2.72-3.16-2.81.13-.18.35-.31.48-.48,1.06-1.06,2.78-1.6,3.82-.48Z"/>
    <path class="cls-53" d="M891.77,656.73c1.02,2.41-1.71,4.28-3.82,4.3.25-.89,1.42-1.04,1.97-1.68.37-.43-.09-.68-.06-.71.42-.44,1.55-1.69,1.91-1.91Z"/>
    <path class="cls-86" d="M923.32,663.42c1.32-.13.75.56,1.43,1.43-1.19,1.35-2.27,2.84-3.82,3.82.5-1.88,2.57-3.04,2.39-5.26Z"/>
    <path class="cls-131" d="M890.82,675.37l-.48.48c-1.51-.71-4.26-.35-5.26-1.91,2.53-.46,3.75.44,5.74,1.43Z"/>
    <path class="cls-45" d="M871.22,663.9c-1.08,2.16-.21,5.21-.48,7.65-.84-.77-.99-2.24-.96-3.35,0-.04.44.04.46-.71.05-1.68,0-3.36.02-5.03.87.12.74.88.95,1.43Z"/>
    <path class="cls-51" d="M911.37,676.8c.78-.29,4.51-2.62,4.78-2.39.83.71-.63,1.05-.9,1.23-.91.64-1.91,1.2-2.93,1.63l-.96-.48Z"/>
    <path class="cls-17" d="M984.5,636.65c5.75-3.3,9.05-4.8,15.75-2.61,3.82,1.25,7.57,4.1,11.49,4.99-1.09-1.05-2.76-3.5-3.82-4.3-.63-.67-.37-.92.48-.48,2.02,1.45,3.37,2.72,5.26,4.3,1.19-.22,4.07,2.62,5.15,3.82l.11.96c1.34,1.31.03,1.46-1.43.96-.92-.17-2.82-.56-3.61-.53-.97.03-.51,1.41-1.4,1.01-.44-.2-.78-1.11-1.54-1.33-2.85-.85-8.11,1-11.14,1.34-1.88,1.8-7.53,1.5-9.56,0-1.33-.18-1.65-.66-.96-1.43-2.06.33-2.66-3.01-2.89-4.71-1.09.55-2.03.69-2.85.41-2.28,1-1.51-.58.14-1.49l.81-.9Z"/>
    <path class="cls-152" d="M990.23,644.78c3.11-.09,6.08.39,9.56,0,2.46-.36.61.85,1.04,2.51.74,2.83,2.46,2.94,4.69,4.19.31.72-.3.69-.96.48l-.4.71c-2.67.19-2.06.27,1.83.24.75-.25,1.64-.32,2.68-.2,2.69-.97,3.55-.74,2.58.68-.57,2.06-4.87,3.11-7,3.4-5.55.76-12.71.61-17.37-2.44-1.22,0-3.42-1.34-3.82-2.39l2.39-6.69c.67-.96,3.84-1.4,4.78-.48Z"/>
    <path class="cls-134" d="M987.84,655.77l.73-.3c6.59,2.05,13.99,2.54,20.48-.07l.77.37c.99,1.83,3,1.53,4.78,1.92l-1.43,1.43c-.33.11-.63.37-.96.48-1.29,1.04-3.13,2.12-4.78,1.91-6.65,2.97-15.89,1.29-21.51-3.35-1.58-1.61-.18-3.54,1.91-2.39Z"/>
    <path class="cls-29" d="M978.28,649.08c.31.77.31,1.41,0,1.91,2.62,1.8,5.13,3.78,7.52,5.94l.13,1.23c.66.68.4.82-.48.48-.46-.24-3.67-1.56-3.82-1.43.18,1.02,1.01,1.41,1.57,2.01.35.37,1.63.82.11.85-2.15-.38-13.97-8.73-11.72-10.98,3.92-.28,2.99-2.08,6.69,0Z"/>
    <path class="cls-56" d="M1005.53,651.47c1.4-.53,2.47-.88,3.78-1.71,1.17-.74,5.21-4.49,5.92-4.43,4.92.47.46,6.36-1.58,8.05-.82.44-1.32.5-.96-.48l-.94-.59c-1.94.34-3.86.38-5.75.11-.69.49-1.96.54-1.43-.48.44-.14.7-.38.96-.48Z"/>
    <path class="cls-92" d="M1013.65,653.38c-1.18.98-2.42,1.78-3.82,2.39-6.49,2.81-15.42,2.56-21.99,0-1.43.42-1.91.1-1.43-.96-.63-.63-.36-.83.48-.48,5.83,2.2,14.5,3.1,20.46,1.11,1.35-.45,2.53-1.54,3.91-2.06-.51-1.17.78-1.52,1.43-.48.06,0,.62.54.96.48Z"/>
    <path class="cls-37" d="M984.5,636.65c-.23,1.2-1.02,1.51-1.91,2.15l.95.24c-.12,1.29-.99,2.54-2.62,3.74,1.45.08,2.48.59,3.1,1.52,1.27.15,1.21.59,0,.96-1.11.02-2.23-.02-3.35,0-1.86.95-2.97.79-3.35-.48-1.07.02-2.69.8-3.59,1.43-.32.1-.35-.45-.23-.71.94-2.07,8.73-7.55,10.99-8.85Z"/>
    <path class="cls-84" d="M1008.39,634.26l-.48.48c-6.61-4.97-17.78-4.04-24.85-.48-.99.31-1.31.15-.96-.48,9.36-3.79,17.44-5.86,26.29.48Z"/>
    <path class="cls-15" d="M1007.44,661.51c.81-.14,1.13.02.96.48-4.38,1.61-9.75,2-14.34.96-3.17-.72-5.85-2.87-8.6-4.3.2-.08.43-.27.48-.48,6.06,3.72,14.61,5.35,21.51,3.35Z"/>
    <path class="cls-91" d="M983.06,634.26c-2.24,1.13-4.9,3.22-6.92,4.79-1.55,1.21-3.02,3.53-5.03,3.81l8.84-10.51-.72,2.38c.18.14,2.36-.75,2.87-.95l.96.48Z"/>
    <path class="cls-106" d="M1014.13,637.13c-.94-1.04-1.54-2.71-2.87-3.59-.08-.35.5-.33.71-.23,2.93,1.31,5.61,8.48,9.81,7.65.56,1.33-1.78,1.14-2.39.95-1.56.45-5-3.1-5.26-4.78Z"/>
    <path class="cls-52" d="M1019.39,641.91c-.69.25-.33,1.14-.48,1.43-1.43-.9-3.74-3.5-5.26-4.78l.48-1.43c.55.61,4.92,4.68,5.26,4.78Z"/>
    <path class="cls-126" d="M1018.91,643.35c.49.31,1.22.71,1.77.84,1.19.29,3.4-.54,3.01,1.06-1.32-.07-2.71.15-4.03-.04-1.05-.15-1.81-.85-2.19-.92.85.01,1.09-.27,1.43-.96Z"/>
    <path class="cls-135" d="M990.23,644.78c-1.66.05-3.47.46-4.78.48-.48,0-.96,0-1.43,0v-.96c.56-1.44,4.02-1.94,5.26-.96.31.44.85.79.96,1.43Z"/>
    <path class="cls-92" d="M982.59,651.95c.65.62.36.85-.48.48l-.88.6-2.94-2.04c-.85-1.21-1.47-1.15,0-1.91,1.53.86,2.84,1.92,4.3,2.87Z"/>
    <path class="cls-106" d="M980.67,645.26c-1.7,1-2.45,2.38-4.78,1.91l1.43-2.38c.85-.02,2.04.5,3.35.48Z"/>
    <path class="cls-138" d="M986.89,654.34l-.48.48c-1.4.98-4.25-.72-4.3-2.39.2-.08.39-.46.48-.48.1-.02.38-.03.48,0,.85.3,2.94,2.06,3.82,2.39Z"/>
    <path class="cls-105" d="M938.13,557.79l-.96.48c-2.74-.75-7.33-1.91-10.04-2.39l1.43-.48c3.47.65,6.21,1.42,9.56,2.39Z"/>
    <path class="cls-122" d="M905.16,642.87c-5.98,2.66-9.43,6.57-13.86,10.99-.42.36-.95.41-1.08-.03-.29-1.04,3.87-6.57,4.9-7.62.47-.4,1.15-1.24,1.43-1.43l4.7-2.01c1.81-.91,3.11-.88,3.9.09Z"/>
    <path class="cls-139" d="M920.45,639.04c2.51,1.24,1.56,1.71-2.87,1.43-2.3-.27-4.98.2-7.26.64-.82.16-2.64-.06-2.3,1.27-1.18.12-1.82.29-2.87.48-.72.13-1.61-.07-2.49.12-2.23.5-3.89,1.72-6.11,1.79,1.4-.94,3.71-2.35,5.26-2.87,2.25-.75,6.48-1.51,8.91-1.85,3.23-.45,6.58-.26,9.73-1.02Z"/>
    <path class="cls-38" d="M895.12,646.21c-1.05,2.08-2.51,3.54-3.59,5.73-.24.48-1.18,1.64-.23,1.92-.95.94-.93,1.76-1.91,0,2.64-3.93,1.65-4.23,5.74-7.65Z"/>
    <path class="cls-123" d="M874.09,641.91c-.03,1.51.06,3.03,0,4.54-.02.58.36,1.78-.47,1.66-.5-1.69-.71-3.76-.48-5.5.09-.66.35-1.5.95-.7Z"/>
    <path class="cls-64" d="M927.62,643.35l.72,2.39c-3.43-1.51-6.97-4.81-10.76-5.25.41-.99,3.05-.21,3.34-.48.26-.91-.32-.8-.48-.95-.27-.27-1.84-.96-.25-.95,2.98,1.7,4.28,3.8,7.42,5.25Z"/>
    <path class="cls-105" d="M918.54,554.92c-4.07-.23-9.31-.22-13.38,0,3.28-.84,7.31-.52,10.76-.49.81,0,2.13-.31,2.62.49Z"/>
    <path class="cls-143" d="M924.27,651.47c-.36.93-.36,1.57,0,1.91l.48.48c-.41.08-1.54,1.13-2.39.96-.03-.05-.81-.02-1.21-.45-.76-.81-.53-1.87-2.13-1.46-.13-1.1,2.65-1.54,3.82-1.43.42-.07.97,0,1.43,0Z"/>
    <path class="cls-7" d="M924.75,645.74c1.63,1.03,3.27,2.36,4.78,3.59.1,1.25-.21.48-.84.36-.76-.14-1.81-.35-2.5-.6-2.97-2.85-3.45-3.97-1.43-3.35Z"/>
    <path class="cls-141" d="M924.75,645.74l-.95.24c1.27,1.03,1.73,1.72,2.39,3.11-1.48-.54-2.84-2.77-4.3-3.82,1.41-1.01,1.88-.15,2.87.48Z"/>
    <path class="cls-53" d="M925.23,651.47c.97,1.5.32,1.48-.96,1.91-1.15.39-2.21.34-3.35-.24l3.35-1.67c.31,0,.65-.03.96,0Z"/>
    <path class="cls-123" d="M1012.22,659.6c-.71,1.56-2.4,1.87-3.82,2.39l-.96-.48c1.28-.37,3.17-1.37,4.78-1.91Z"/>
    <path class="cls-60" d="M965.86,747.54l-1.43.48-3.82-1.43c1.88-.35,3.55.51,5.26.95Z"/>
    <path class="cls-148" d="M973.5,745.15l2.39,2.39-3.82-1.91c.75-.65,1.1-.32,1.43-.48Z"/>
    <path class="cls-35" d="M1044.72,552.53l-.48.96c-.96-3.4-3.41-6.52-2.38-10.75l.95-4.54v9.32c0,.89,1.57,3.82,1.91,5.02Z"/>
    <path class="cls-46" d="M903.72,653.38c-2.62-.38-5.21,1.21-7.64-.23l5.01-5.49,2.63,5.72Z"/>
    <path class="cls-85" d="M916.63,651.47c.85-1.62,1.43-3.39,1.44-5.26.21-.26,5.55,3.22,5.73,3.59.43.89-1.4,1.06-1.91,1.19-.86,1.03-5.04,2.35-5.26.48Z"/>
    <path class="cls-96" d="M921.88,650.99l.96.48c-.82.13-2.94,1.23-3.82,1.43-1.03.24-2.67.08-3.82.48.38-.51,1.22-1.5,1.43-1.91,1.05.65,3.84-.12,5.26-.48Z"/>
    <path class="cls-16" d="M907.06,645.74c-.01.77.18,1.71-.23,2.39-1.61,2.65-4.97-2.33.23-2.39Z"/>
    <path class="cls-48" d="M983.54,639.04c1.22-.87,2.13-1.68,3.82-1.44-.2,2.26.68,3.97,1.91,5.74l-.32.38c-1.67-.06-3.29.58-4.93.58s-3.48-.88-5.26-.48c1.3-1.58,3.14-3.61,4.78-4.77Z"/>
    <path class="cls-48" d="M1009.35,641.91l-6.21.96,1.44-5.26c.59-.43,5.89,3.21,4.78,4.3Z"/>
    <path class="cls-18" d="M993.57,639.04c-1.38.98-2.45-1.66-1.43-2.39,1.38-.98,2.45,1.66,1.43,2.39Z"/>
    <path class="cls-82" d="M990,636.66c1.56-.36,1.7,2.95-.48,2.38-1.19-.31-.06-2.26.48-2.38Z"/>
    <path class="cls-106" d="M1004.57,651.95c.4.43.88.47,1.43.48.42.14.41.3,0,.48-1.95.21-7.35,1.85-8.61,1.2-.22-.11-.61-.63-.47-.72,2.51-.15,5.27-.68,7.65-1.44Z"/>
    <path class="cls-8" d="M1006.01,652.43c2.64.03,5.12-.91,7.64-1.43l-.95,1.91c-.11,0-1.16.38-1.43.48-.52-1.66-1.62-.16-2.69-.15-.83,0-1.67-.43-2.56-.33v-.48Z"/>
    <path class="cls-68" d="M982.11,652.43c1.44.76,2.78,1.71,4.3,2.39.59.27,1.19.86,1.43.96-1.82.15-1.61,1.12-1.91,2.39-2.27-1.39-6.09-4.94-7.65-7.17,1.34.04,2.67.83,3.82,1.43Z"/>
  </g>
  <path class="cls-88" d="M981.22,886.87c-125.88,0-227.92-103.24-227.92-230.59,0-1.2.03-2.4.04-3.59-1.36,10.17-2.07,20.55-2.07,31.09,0,127.35,102.04,230.59,227.92,230.59s225.97-101.3,227.87-226.99c-15.01,112.64-110.4,199.5-225.85,199.5Z"/>
  <g>
    <path class="cls-121" d="M1449.38,925.11c-11.94-9.48-27.74-14.69-44.48-14.69s-32.53,5.22-44.48,14.69c-12.41,9.84-19.24,23.08-19.24,37.28,0,8.28,2.41,16.44,6.98,23.74-1.48,6.46-7.51,14.59-17.24,23.18-2.48,2.19-3.37,5.66-2.28,8.84,1.09,3.19,3.95,5.34,7.1,5.34,1.13,0,2.24-.27,3.29-.8l32.15-16.16c10.09,5.13,21.68,7.82,33.72,7.82,16.74,0,32.53-5.22,44.48-14.69,12.41-9.84,19.24-23.08,19.24-37.28s-6.83-27.44-19.24-37.28ZM1404.91,1008.67c-12.59,0-24.25-3.17-33.78-8.55.05.07.08.1.08.1l-34.47,17.33c-2.32,1.17-4.32-2.12-2.35-3.87,9.4-8.3,18.55-18.83,19.46-28.92-4.63-6.63-7.27-14.26-7.27-22.38,0-25.56,26.11-46.28,58.33-46.28s58.33,20.72,58.33,46.28-26.11,46.28-58.33,46.28Z"/>
    <ellipse class="cls-121" cx="1387.18" cy="962.87" rx="5.8" ry="6.14"/>
    <ellipse class="cls-121" cx="1403.87" cy="962.87" rx="5.8" ry="6.14"/>
    <ellipse class="cls-121" cx="1420.56" cy="962.87" rx="5.8" ry="6.14"/>
  </g>
  <path class="cls-94" d="M1074.13,273.27h12.13c-3.8,7.71-9.63,13.75-17.49,18.11-9,5.01-19.97,7.52-32.92,7.52s-23.35-2.12-32.47-6.35c-9.11-4.23-15.89-10.48-20.33-18.74-4.44-8.26-6.66-17.25-6.66-26.97,0-10.67,2.52-20.61,7.58-29.82,5.05-9.21,11.96-16.12,20.73-20.73,8.77-4.61,18.8-6.92,30.07-6.92,9.57,0,18.07,1.86,25.52,5.58,7.44,3.72,13.13,9.01,17.06,15.86,3.93,6.85,5.9,14.34,5.9,22.47,0,9.68-2.98,18.44-8.94,26.26-7.48,9.87-17.07,14.81-28.76,14.81-3.15,0-5.52-.55-7.12-1.65-1.6-1.1-2.66-2.71-3.19-4.84-4.48,4.33-9.65,6.49-15.49,6.49-6.3,0-11.53-2.17-15.69-6.52-4.16-4.35-6.24-10.13-6.24-17.34,0-8.92,2.51-17.07,7.52-24.44,6.07-8.96,13.86-13.44,23.35-13.44,6.76,0,11.75,2.58,14.98,7.75l1.42-6.32h15.04l-8.6,40.84c-.53,2.58-.8,4.25-.8,5.01,0,.95.22,1.66.65,2.14.44.48.96.71,1.57.71,1.82,0,4.18-1.1,7.06-3.3,3.87-2.89,7.01-6.76,9.4-11.62,2.39-4.86,3.59-9.89,3.59-15.09,0-9.34-3.38-17.15-10.14-23.44-6.76-6.28-16.2-9.43-28.31-9.43-10.29,0-19.02,2.1-26.17,6.29-7.16,4.2-12.55,10.1-16.18,17.71-3.63,7.61-5.44,15.54-5.44,23.78s2.02,15.3,6.07,21.87c4.04,6.57,9.72,11.36,17.03,14.38,7.31,3.02,15.67,4.53,25.09,4.53s16.88-1.26,23.41-3.79c6.53-2.53,11.79-6.31,15.78-11.36ZM1012.56,249.86c0,4.82.98,8.37,2.93,10.65,1.96,2.28,4.38,3.42,7.26,3.42,2.16,0,4.2-.53,6.09-1.59,1.44-.76,2.87-1.96,4.27-3.59,2.01-2.32,3.75-5.7,5.21-10.14,1.46-4.44,2.19-8.58,2.19-12.42,0-4.29-1-7.58-2.99-9.88-1.99-2.3-4.51-3.45-7.55-3.45-3.27,0-6.28,1.26-9.06,3.79-2.77,2.53-4.86,6.12-6.27,10.79-1.4,4.67-2.11,8.81-2.11,12.42Z"/>
  <g>
    <path class="cls-26" d="M476.5,556.71l-26.5-3.81c-4.3-.62-3.32,8.08-7.52,6.22-10.41-4.63-18.67-12.8-23.51-23.12-1.99-4.25,6.77-3.33,6.09-7.61l-4.26-26.6c-.16-.98-.87-1.79-1.83-2.03-1.33-.33-2.71-.51-4.09-.51-3.74-.01-7.43,1.26-10.38,3.55-1.53,1.18-2.89,2.62-3.99,4.2,0,0-.01.02-.02.02-3.1,4.94-2.64,12.69-2.64,12.69-.03.71.55,5.29.67,5.99,4.98,30.61,31.14,54.11,62.63,54.35,5.44.04,10.34-1.8,13.81-5.76,3.63-4.14,5.08-9.59,3.93-15.1-.26-1.26-.99-2.27-2.38-2.47Z"/>
    <path class="cls-26" d="M496.26,528.91c-5.46-25.9-28.91-44.14-55.39-43.04-2.29.1-3.81,2.04-3.83,4.05-.03,2.13,1.62,4.08,3.89,4.06l3.53-.02h0s1.57.1,3.34.26c0,0,0,.02,0,.03.03,0,.06-.01.09-.02,1.58.14,3.3.32,4.23.5,17.97,4.05,32.2,17.37,36.16,35.86.49,2.29,2.77,3.5,4.87,3.06,1.97-.41,3.6-2.47,3.12-4.74Z"/>
    <path class="cls-26" d="M441.79,502.81c-2.38.02-3.94,2.13-3.96,4.14-.01,2.09,1.58,4.11,3.93,4.13,14.02.07,26.2,9.35,29.78,23.08.66,2.54,3.19,3.45,5.19,2.85,2.12-.63,3.43-2.75,2.81-5.13-4.45-17.15-20.02-29.19-37.76-29.07Z"/>
    <path class="cls-26" d="M454.54,538.06c.75,1.94,2.48,3.03,4.84,2.74,2.65-.33,4.58-2.75,3.66-5.39-3.09-8.88-11.42-15.38-20.93-15.7-2.42-.08-3.73,2.49-3.68,4.27.06,2.07,1.18,4.17,3.51,4.46,5.72.7,10.51,4.2,12.61,9.61Z"/>
  </g>
  <circle class="cls-19" cx="745.02" cy="692.56" r="21.97"/>
  <path class="cls-108" d="M734.74,696.41c-2.32-7.56-3.28-14.98-3.03-21.56-7.61,5.31-11.29,15.1-8.42,24.45,2.82,9.19,11.11,15.18,20.21,15.51-3.54-5.11-6.6-11.38-8.75-18.4Z"/>
  <circle class="cls-19" cx="895.95" cy="897.61" r="21.97"/>
  <path class="cls-108" d="M892.29,907.95c-7.28-3.09-13.57-7.13-18.45-11.55-.83,9.24,4.3,18.36,13.3,22.17,8.85,3.76,18.77,1.26,24.88-5.49-6.19-.58-12.96-2.27-19.72-5.14Z"/>
  <circle class="cls-19" cx="1202.84" cy="628.67" r="21.97"/>
  <path class="cls-108" d="M1213.12,624.82c2.32,7.56,3.28,14.98,3.03,21.56,7.61-5.31,11.29-15.1,8.42-24.45-2.82-9.19-11.11-15.18-20.21-15.51,3.54,5.11,6.6,11.38,8.75,18.4Z"/>
</svg>